<svg width="46" height="39" viewBox="0 0 46 39" fill="none" xmlns="http://www.w3.org/2000/svg">
<path d="M32.7902 22.68V24.4014C32.7902 25.2891 33.5116 26.0113 34.3991 26.0113H40.2006C41.088 26.0113 41.8098 25.2891 41.8098 24.4014V22.68C41.8098 21.7935 41.0879 21.0724 40.2006 21.0724H34.3991C33.5118 21.0724 32.7902 21.7935 32.7902 22.68ZM40.3107 22.68V24.4014C40.3107 24.4612 40.259 24.5125 40.2006 24.5125H34.3991C34.3409 24.5125 34.289 24.4611 34.289 24.4014V22.68C34.289 22.6227 34.3399 22.5712 34.3991 22.5712H40.2006C40.2598 22.5712 40.3107 22.6227 40.3107 22.68Z" fill="#27AE60" stroke="#27AE60" stroke-width="0.2"/>
<path d="M15.508 20.0634L15.5079 20.0635C15.8104 20.6187 15.9645 21.2165 15.9645 21.8388C15.9645 23.9336 14.1946 25.6311 12.0272 25.6311C9.86071 25.6311 8.09189 23.9336 8.09189 21.8388C8.09189 21.2114 8.246 20.6132 8.54973 20.062C8.55304 20.0556 8.55704 20.0488 8.55845 20.0464C8.55869 20.046 8.55885 20.0457 8.55893 20.0456L8.55936 20.0448L8.55936 20.0448L9.94242 17.6728L9.94438 17.6695L9.94444 17.6695L9.9474 17.6646L9.94967 17.6604L9.94977 17.6605L10.6413 16.5245L10.6415 16.5241C10.6475 16.5144 10.6537 16.5048 10.6604 16.4949M15.508 20.0634L10.7432 16.551M15.508 20.0634L15.5052 20.0589L15.5004 20.0505L15.5004 20.0505L15.4989 20.0479L14.1306 17.6767M15.508 20.0634L14.121 17.6604M10.6604 16.4949C10.6604 16.4948 10.6604 16.4948 10.6605 16.4947L10.7432 16.551M10.6604 16.4949C10.6603 16.4949 10.6603 16.495 10.6603 16.4951L10.7432 16.551M10.6604 16.4949C11.0091 15.9779 11.5041 15.6836 12.0557 15.6836C12.5737 15.6836 13.0517 15.9481 13.3687 16.4012M10.7432 16.551C11.0768 16.0562 11.5431 15.7836 12.0557 15.7836C12.5381 15.7836 12.9869 16.0296 13.287 16.459M13.3687 16.4012C13.3685 16.401 13.3684 16.4008 13.3683 16.4007L13.287 16.459M13.3687 16.4012C13.3802 16.4174 13.3901 16.4333 13.3986 16.4475L13.3988 16.4477C13.764 17.0607 13.8599 17.2249 13.9079 17.3073M13.3687 16.4012C13.3688 16.4014 13.3689 16.4015 13.369 16.4017L13.287 16.459M13.287 16.459L13.9079 17.3073M13.9079 17.3073L13.8215 17.3576M13.9079 17.3073L13.3129 16.4989C13.6781 17.1119 13.7738 17.2757 13.8215 17.3576M13.9079 17.3073L13.9079 17.3073M13.9079 17.3073L13.9079 17.3073M13.8215 17.3576L13.9079 17.3073M13.8215 17.3576C13.8316 17.375 13.8395 17.3886 13.8475 17.4021C13.8756 17.4499 13.9045 17.4973 14.0356 17.7125M13.9079 17.3073L15.4123 20.0979L14.0434 17.7256M13.9079 17.3073L13.9084 17.3082C13.9532 17.3851 13.9534 17.3853 14.1209 17.6602M13.9079 17.3073L14.1209 17.6602M14.0356 17.7125C14.0383 17.7168 14.041 17.7212 14.0434 17.7256M14.0356 17.7125L14.1208 17.6601L14.1209 17.6602M14.0356 17.7125L14.121 17.6604M14.0434 17.7256L14.1314 17.6781C14.1311 17.6776 14.1309 17.6772 14.1306 17.6767M14.0434 17.7256L14.13 17.6756L14.1306 17.6767M14.1306 17.6767C14.1271 17.6703 14.1235 17.6644 14.1212 17.6607L14.121 17.6604M14.121 17.6604L14.1209 17.6602M12.6131 18.0624L12.6133 18.0629L12.6144 18.0647C12.6624 18.1465 12.6645 18.1499 12.8361 18.4325L14.1958 20.7886C14.3753 21.1201 14.4657 21.4733 14.4657 21.8391C14.4657 23.098 13.3771 24.1323 12.0269 24.1323C10.678 24.1323 9.59069 23.0981 9.59069 21.8388C9.59069 21.4694 9.68087 21.1174 9.85875 20.7916L11.2339 18.4337L11.9112 17.321C11.9529 17.2616 11.9904 17.2249 12.0187 17.204C12.0396 17.1887 12.0522 17.1842 12.0562 17.1829C12.0591 17.1838 12.066 17.1865 12.0766 17.1937C12.0923 17.2044 12.1109 17.2215 12.1294 17.2449C12.4752 17.826 12.5672 17.9833 12.6131 18.0624Z" fill="#27AE60" stroke="#27AE60" stroke-width="0.2"/>
<mask id="path-3-outside-1_2:317" maskUnits="userSpaceOnUse" x="0" y="0" width="46" height="39" fill="black">
<rect fill="white" width="46" height="39"/>
<path d="M44.3498 34.0446V18.6696C44.3498 17.837 43.6727 17.1596 42.8405 17.1596H41.7099V15.2613C41.7099 12.907 39.9609 10.9553 37.696 10.6378V3.36832C37.696 2.06247 36.6335 1 35.327 1H18.3762C17.0713 1 16.0099 2.06247 16.0099 3.36832V4.94373C12.811 5.13675 9.86465 6.24185 7.62592 8.10461C4.80978 10.4481 3.32098 13.8037 3.32098 17.8088V23.8063C3.32098 24.1652 3.61169 24.4559 3.97055 24.4559C4.32907 24.4559 4.61978 24.1652 4.61978 23.8063V17.8088C4.61978 9.84116 11.05 6.21198 17.0243 6.21198C18.0868 6.21198 19.1395 6.3251 20.155 6.54095V33.7747H4.62045L4.62482 26.7863C4.62515 26.4274 4.33444 26.1364 3.97592 26.1364C3.97559 26.1364 3.97525 26.1364 3.97525 26.1364C3.61673 26.1364 3.32602 26.4268 3.32602 26.7853L3.32132 33.7747H2.50659C1.67575 33.7747 1 34.4522 1 35.2847V36.5331C1 37.3643 1.67575 38.0407 2.50659 38.0407H43.4911C44.3229 38.0407 45 37.3643 45 36.5331V35.2847C45 34.7714 44.7422 34.3176 44.3498 34.0446ZM40.4107 15.2609V17.1593H38.503C38.1445 17.1593 37.8534 17.4503 37.8534 17.8088C37.8534 18.1677 38.1445 18.4584 38.503 18.4584H42.8408C42.9546 18.4584 43.051 18.5551 43.051 18.6696V33.7747H40.2654V29.587C40.2654 28.8323 39.6517 28.2184 38.8978 28.2184H35.4878C34.7335 28.2184 34.1202 28.8323 34.1202 29.587V33.7747H30.9962V18.4584H35.5244C35.8832 18.4584 36.174 18.1677 36.174 17.8088C36.174 17.4503 35.8832 17.1593 35.5244 17.1593H33.6797V15.2609C33.6797 13.4025 35.1904 11.8902 37.0464 11.8902C38.9015 11.8902 40.4107 13.4025 40.4107 15.2609ZM35.419 33.7747V29.587C35.419 29.5507 35.4519 29.5175 35.4878 29.5175H38.8978C38.9337 29.5175 38.9666 29.5507 38.9666 29.587V33.7747H35.419ZM27.5426 33.7747V10.9949C28.9589 12.8748 29.6971 15.1888 29.6971 17.8088V33.7747H27.5426ZM26.2438 17.9737H21.4538V15.1011H26.2438V17.9737ZM26.2438 19.2728V22.1426H21.4538V19.2728H26.2438ZM26.2438 23.4418V26.3143H21.4538V23.4418H26.2438ZM26.2438 13.8023H21.4538V10.9322H26.2438V13.8023ZM21.4538 27.6131H26.2438V30.4833H21.4538V27.6131ZM18.3762 2.2988H35.327C35.9171 2.2988 36.3972 2.7785 36.3972 3.36832V10.6374C34.1313 10.955 32.381 12.9067 32.381 15.2609V17.1593H30.9814C30.8384 13.8443 29.5964 10.9919 27.3553 8.82669C27.3499 8.82132 27.3442 8.81628 27.3385 8.81091C27.0992 8.58029 26.8484 8.35739 26.5865 8.14288C24.1101 6.11462 20.825 4.97427 17.3087 4.91586V3.36832C17.3087 2.77884 17.7877 2.2988 18.3762 2.2988ZM25.7634 9.14795C25.9286 9.28323 26.0887 9.42221 26.2438 9.56454V9.63303H21.4538V6.879C23.0665 7.37985 24.5449 8.14993 25.7634 9.14795ZM21.4538 31.7821H26.2438V33.7747H21.4538V31.7821ZM43.7012 36.5331C43.7012 36.6463 43.6049 36.7419 43.4911 36.7419H2.50659C2.39212 36.7419 2.2988 36.6483 2.2988 36.5331V35.2847C2.2988 35.1702 2.39413 35.0735 2.50659 35.0735H43.4911C43.6049 35.0735 43.7012 35.1702 43.7012 35.2847V36.5331Z"/>
</mask>
<path d="M44.3498 34.0446V18.6696C44.3498 17.837 43.6727 17.1596 42.8405 17.1596H41.7099V15.2613C41.7099 12.907 39.9609 10.9553 37.696 10.6378V3.36832C37.696 2.06247 36.6335 1 35.327 1H18.3762C17.0713 1 16.0099 2.06247 16.0099 3.36832V4.94373C12.811 5.13675 9.86465 6.24185 7.62592 8.10461C4.80978 10.4481 3.32098 13.8037 3.32098 17.8088V23.8063C3.32098 24.1652 3.61169 24.4559 3.97055 24.4559C4.32907 24.4559 4.61978 24.1652 4.61978 23.8063V17.8088C4.61978 9.84116 11.05 6.21198 17.0243 6.21198C18.0868 6.21198 19.1395 6.3251 20.155 6.54095V33.7747H4.62045L4.62482 26.7863C4.62515 26.4274 4.33444 26.1364 3.97592 26.1364C3.97559 26.1364 3.97525 26.1364 3.97525 26.1364C3.61673 26.1364 3.32602 26.4268 3.32602 26.7853L3.32132 33.7747H2.50659C1.67575 33.7747 1 34.4522 1 35.2847V36.5331C1 37.3643 1.67575 38.0407 2.50659 38.0407H43.4911C44.3229 38.0407 45 37.3643 45 36.5331V35.2847C45 34.7714 44.7422 34.3176 44.3498 34.0446ZM40.4107 15.2609V17.1593H38.503C38.1445 17.1593 37.8534 17.4503 37.8534 17.8088C37.8534 18.1677 38.1445 18.4584 38.503 18.4584H42.8408C42.9546 18.4584 43.051 18.5551 43.051 18.6696V33.7747H40.2654V29.587C40.2654 28.8323 39.6517 28.2184 38.8978 28.2184H35.4878C34.7335 28.2184 34.1202 28.8323 34.1202 29.587V33.7747H30.9962V18.4584H35.5244C35.8832 18.4584 36.174 18.1677 36.174 17.8088C36.174 17.4503 35.8832 17.1593 35.5244 17.1593H33.6797V15.2609C33.6797 13.4025 35.1904 11.8902 37.0464 11.8902C38.9015 11.8902 40.4107 13.4025 40.4107 15.2609ZM35.419 33.7747V29.587C35.419 29.5507 35.4519 29.5175 35.4878 29.5175H38.8978C38.9337 29.5175 38.9666 29.5507 38.9666 29.587V33.7747H35.419ZM27.5426 33.7747V10.9949C28.9589 12.8748 29.6971 15.1888 29.6971 17.8088V33.7747H27.5426ZM26.2438 17.9737H21.4538V15.1011H26.2438V17.9737ZM26.2438 19.2728V22.1426H21.4538V19.2728H26.2438ZM26.2438 23.4418V26.3143H21.4538V23.4418H26.2438ZM26.2438 13.8023H21.4538V10.9322H26.2438V13.8023ZM21.4538 27.6131H26.2438V30.4833H21.4538V27.6131ZM18.3762 2.2988H35.327C35.9171 2.2988 36.3972 2.7785 36.3972 3.36832V10.6374C34.1313 10.955 32.381 12.9067 32.381 15.2609V17.1593H30.9814C30.8384 13.8443 29.5964 10.9919 27.3553 8.82669C27.3499 8.82132 27.3442 8.81628 27.3385 8.81091C27.0992 8.58029 26.8484 8.35739 26.5865 8.14288C24.1101 6.11462 20.825 4.97427 17.3087 4.91586V3.36832C17.3087 2.77884 17.7877 2.2988 18.3762 2.2988ZM25.7634 9.14795C25.9286 9.28323 26.0887 9.42221 26.2438 9.56454V9.63303H21.4538V6.879C23.0665 7.37985 24.5449 8.14993 25.7634 9.14795ZM21.4538 31.7821H26.2438V33.7747H21.4538V31.7821ZM43.7012 36.5331C43.7012 36.6463 43.6049 36.7419 43.4911 36.7419H2.50659C2.39212 36.7419 2.2988 36.6483 2.2988 36.5331V35.2847C2.2988 35.1702 2.39413 35.0735 2.50659 35.0735H43.4911C43.6049 35.0735 43.7012 35.1702 43.7012 35.2847V36.5331Z" fill="#27AE60"/>
<path d="M44.3498 34.0446V18.6696C44.3498 17.837 43.6727 17.1596 42.8405 17.1596H41.7099V15.2613C41.7099 12.907 39.9609 10.9553 37.696 10.6378V3.36832C37.696 2.06247 36.6335 1 35.327 1H18.3762C17.0713 1 16.0099 2.06247 16.0099 3.36832V4.94373C12.811 5.13675 9.86465 6.24185 7.62592 8.10461C4.80978 10.4481 3.32098 13.8037 3.32098 17.8088V23.8063C3.32098 24.1652 3.61169 24.4559 3.97055 24.4559C4.32907 24.4559 4.61978 24.1652 4.61978 23.8063V17.8088C4.61978 9.84116 11.05 6.21198 17.0243 6.21198C18.0868 6.21198 19.1395 6.3251 20.155 6.54095V33.7747H4.62045L4.62482 26.7863C4.62515 26.4274 4.33444 26.1364 3.97592 26.1364C3.97559 26.1364 3.97525 26.1364 3.97525 26.1364C3.61673 26.1364 3.32602 26.4268 3.32602 26.7853L3.32132 33.7747H2.50659C1.67575 33.7747 1 34.4522 1 35.2847V36.5331C1 37.3643 1.67575 38.0407 2.50659 38.0407H43.4911C44.3229 38.0407 45 37.3643 45 36.5331V35.2847C45 34.7714 44.7422 34.3176 44.3498 34.0446ZM40.4107 15.2609V17.1593H38.503C38.1445 17.1593 37.8534 17.4503 37.8534 17.8088C37.8534 18.1677 38.1445 18.4584 38.503 18.4584H42.8408C42.9546 18.4584 43.051 18.5551 43.051 18.6696V33.7747H40.2654V29.587C40.2654 28.8323 39.6517 28.2184 38.8978 28.2184H35.4878C34.7335 28.2184 34.1202 28.8323 34.1202 29.587V33.7747H30.9962V18.4584H35.5244C35.8832 18.4584 36.174 18.1677 36.174 17.8088C36.174 17.4503 35.8832 17.1593 35.5244 17.1593H33.6797V15.2609C33.6797 13.4025 35.1904 11.8902 37.0464 11.8902C38.9015 11.8902 40.4107 13.4025 40.4107 15.2609ZM35.419 33.7747V29.587C35.419 29.5507 35.4519 29.5175 35.4878 29.5175H38.8978C38.9337 29.5175 38.9666 29.5507 38.9666 29.587V33.7747H35.419ZM27.5426 33.7747V10.9949C28.9589 12.8748 29.6971 15.1888 29.6971 17.8088V33.7747H27.5426ZM26.2438 17.9737H21.4538V15.1011H26.2438V17.9737ZM26.2438 19.2728V22.1426H21.4538V19.2728H26.2438ZM26.2438 23.4418V26.3143H21.4538V23.4418H26.2438ZM26.2438 13.8023H21.4538V10.9322H26.2438V13.8023ZM21.4538 27.6131H26.2438V30.4833H21.4538V27.6131ZM18.3762 2.2988H35.327C35.9171 2.2988 36.3972 2.7785 36.3972 3.36832V10.6374C34.1313 10.955 32.381 12.9067 32.381 15.2609V17.1593H30.9814C30.8384 13.8443 29.5964 10.9919 27.3553 8.82669C27.3499 8.82132 27.3442 8.81628 27.3385 8.81091C27.0992 8.58029 26.8484 8.35739 26.5865 8.14288C24.1101 6.11462 20.825 4.97427 17.3087 4.91586V3.36832C17.3087 2.77884 17.7877 2.2988 18.3762 2.2988ZM25.7634 9.14795C25.9286 9.28323 26.0887 9.42221 26.2438 9.56454V9.63303H21.4538V6.879C23.0665 7.37985 24.5449 8.14993 25.7634 9.14795ZM21.4538 31.7821H26.2438V33.7747H21.4538V31.7821ZM43.7012 36.5331C43.7012 36.6463 43.6049 36.7419 43.4911 36.7419H2.50659C2.39212 36.7419 2.2988 36.6483 2.2988 36.5331V35.2847C2.2988 35.1702 2.39413 35.0735 2.50659 35.0735H43.4911C43.6049 35.0735 43.7012 35.1702 43.7012 35.2847V36.5331Z" stroke="#27AE60" stroke-width="0.4" mask="url(#path-3-outside-1_2:317)"/>
</svg>
