<svg width="42" height="42" viewBox="0 0 42 42" fill="none" xmlns="http://www.w3.org/2000/svg">
<mask id="path-1-outside-1_2:261" maskUnits="userSpaceOnUse" x="0" y="13.281" width="42" height="28" fill="black">
<rect fill="white" y="13.281" width="42" height="28"/>
<path d="M39.596 14.4617L28.9517 20.8065C28.1658 21.2749 27.8511 22.2386 28.168 23.066C27.6935 23.2651 27.1623 23.2744 26.6758 23.0864L25.2988 22.5455C24.7495 22.3295 24.1564 22.292 23.5841 22.4369L21.4743 22.9708C21.3925 22.9915 21.3124 23.0157 21.234 23.0431C19.9451 22.3073 19.1772 22.0873 17.8171 22.6133L16.596 23.0853C16.019 23.3084 15.3828 23.2554 14.8492 22.9394L14.4414 22.699C14.5584 21.9692 14.2308 21.2069 13.5591 20.8066L2.91485 14.4617C2.07085 13.9588 1 14.5659 1 15.5496V27.4316C1 28.2521 1.43779 29.0227 2.14253 29.4427L6.79004 32.2131C7.65453 32.7282 8.76581 32.4611 9.30393 31.621L9.5026 31.7383L8.9 32.5777C8.22691 33.515 8.44093 34.8184 9.37846 35.4916C9.84188 35.8243 10.4067 35.9498 10.96 35.8515C11.0448 36.4115 11.3464 36.9044 11.8068 37.235C12.269 37.5668 12.8373 37.6916 13.3892 37.5937C13.4704 38.1313 13.7596 38.637 14.2352 38.9783C14.8759 39.4382 15.6704 39.4757 16.3153 39.1847C16.4572 39.5779 16.7139 39.919 17.0608 40.1681C17.962 40.815 19.2117 40.6404 19.9027 39.7841L21.4637 40.7089C21.7969 40.9063 22.1631 41.0001 22.5248 41.0001C23.2389 41.0001 23.9355 40.6343 24.3251 39.9766C24.4896 39.6989 24.5823 39.3982 24.6085 39.0963L24.6693 39.1324C25.1494 39.4167 25.7114 39.4973 26.2517 39.3588C26.7922 39.2205 27.2464 38.88 27.5307 38.4001C27.7065 38.1034 27.8043 37.7753 27.8208 37.4405C28.1686 37.5376 28.5375 37.5421 28.8968 37.4503C29.4372 37.312 29.8915 36.9714 30.1758 36.4916C30.3412 36.2124 30.4377 35.9055 30.462 35.5911C31.4092 35.9921 32.5333 35.6402 33.0716 34.7317C33.5443 33.9338 33.4231 32.946 32.8406 32.2851L33.4523 31.9277C34.0324 32.5133 34.966 32.6628 35.7209 32.213L36.8444 31.5432C37.126 31.3754 37.2182 31.0111 37.0504 30.7297C36.8825 30.448 36.5179 30.356 36.2368 30.5237L35.1133 31.1935C34.8484 31.3515 34.5259 31.3033 34.318 31.1132C34.3141 31.0798 29.3258 22.7435 29.3258 22.7435C29.1379 22.4263 29.2427 22.0147 29.5593 21.8259L40.2036 15.4812C40.2579 15.4492 40.324 15.4873 40.324 15.5495V27.4315C40.324 27.8361 40.108 28.2161 39.7606 28.4232L38.6387 29.0919C38.3571 29.2597 38.265 29.624 38.4328 29.9055C38.6005 30.1871 38.965 30.2789 39.2463 30.1114L40.3682 29.4427C41.0729 29.0226 41.5107 28.252 41.5107 27.4315V15.5496C41.5108 14.5672 40.441 13.958 39.596 14.4617ZM23.8752 23.5874C24.2055 23.5039 24.5477 23.5256 24.8648 23.6501L26.2448 24.1922C27.0685 24.5107 27.968 24.4757 28.7528 24.1051L32.799 30.9349L32.1433 31.318C32.0242 31.3886 31.9099 31.4668 31.8012 31.5521L23.1475 26.4274C22.964 26.3187 22.7363 26.3169 22.5513 26.4225C22.3661 26.528 22.2517 26.7248 22.2517 26.938V27.0573C22.2517 27.4794 22.0873 27.8763 21.7887 28.1747C21.4903 28.4729 21.0938 28.637 20.6721 28.637C20.6036 28.6344 20.5432 28.5794 20.5431 28.508V25.6916C20.5431 25.078 20.8866 24.5303 21.4122 24.256C21.4383 24.2455 21.4638 24.2331 21.4883 24.2188C21.5763 24.1786 21.669 24.1459 21.7654 24.1214L23.8752 23.5874ZM7.90638 31.2674C7.73255 31.3114 7.55183 31.2855 7.3977 31.1935L2.75019 28.4233C2.40269 28.2161 2.18684 27.8362 2.18684 27.4316V15.5496C2.18684 15.5369 2.18684 15.5033 2.22711 15.4804C2.24215 15.4719 2.25568 15.4689 2.26723 15.4689C2.28653 15.4689 2.30038 15.4771 2.30719 15.4812L12.9516 21.8259C13.2682 22.0147 13.373 22.4263 13.1851 22.7436L8.31774 30.9595C8.22635 31.1137 8.08021 31.2232 7.90638 31.2674ZM10.7422 34.6847C10.5047 34.7238 10.2662 34.6679 10.0705 34.5275C9.87503 34.3871 9.74583 34.179 9.70682 33.9415C9.66781 33.7039 9.72359 33.4654 9.86404 33.2699L10.7106 32.0906C10.7313 32.0618 10.7535 32.0347 10.7767 32.0091C10.7943 31.9933 10.811 31.9763 10.8268 31.9583C11.1343 31.6702 11.6134 31.6293 11.9684 31.8841C12.3721 32.1739 12.4647 32.7381 12.1749 33.1418C12.1744 33.1424 12.1739 33.1432 12.1735 33.1438L11.3282 34.3211C11.1879 34.5166 10.9797 34.6457 10.7422 34.6847ZM12.4989 36.2708C12.3034 36.1304 12.1742 35.9223 12.1352 35.6848C12.0962 35.4472 12.1519 35.2087 12.2924 35.0132L13.139 33.8339C13.139 33.8339 13.139 33.8338 13.1391 33.8338L14.0734 32.5324C14.2137 32.3368 14.4218 32.2077 14.6594 32.1686C14.7089 32.1605 14.7582 32.1565 14.8074 32.1565C14.9943 32.1565 15.1762 32.2147 15.3311 32.3259C15.7348 32.6156 15.8274 33.1799 15.5376 33.5836L13.7566 36.0644C13.4667 36.4681 12.9025 36.5604 12.4989 36.2708ZM15.5988 38.1713C15.3614 38.2103 15.1228 38.1545 14.9273 38.0141C14.5236 37.7244 14.4309 37.1601 14.7207 36.7565C14.7212 36.7557 14.7217 36.7551 14.7222 36.7544L16.5018 34.2756C16.7915 33.8718 17.3558 33.7794 17.7595 34.0691C17.955 34.2094 18.0842 34.4175 18.1233 34.6551C18.1623 34.8926 18.1064 35.1312 17.966 35.3267L16.185 37.8075C16.0445 38.0031 15.8364 38.1323 15.5988 38.1713ZM17.7529 39.2039C17.5574 39.0635 17.4282 38.8554 17.3892 38.6178C17.3501 38.3803 17.4059 38.1418 17.5464 37.9463C17.547 37.9454 17.5476 37.9446 17.5481 37.9438L18.1392 37.1204C18.4293 36.7175 18.9929 36.6252 19.3963 36.9148C19.7999 37.2046 19.8926 37.7688 19.6028 38.1725L19.2641 38.6442C19.2606 38.649 19.2571 38.6539 19.2537 38.6588L19.0105 38.9975C18.7209 39.4011 18.1567 39.4938 17.7529 39.2039ZM32.0505 34.1268C31.7971 34.5545 31.2427 34.6963 30.8153 34.4429L29.4434 33.6302C29.4428 33.6299 29.4422 33.6295 29.4416 33.6292L25.1927 31.112C24.9106 30.945 24.5467 31.0381 24.3797 31.32C24.2127 31.602 24.3057 31.9661 24.5877 32.133L28.8385 34.6513C28.8385 34.6513 28.8385 34.6513 28.8386 34.6514L28.8392 34.6517C29.2664 34.9053 29.408 35.4592 29.1548 35.8867C29.032 36.0939 28.8359 36.2409 28.6026 36.3006C28.3692 36.3602 28.1266 36.3256 27.9194 36.2028L26.8011 35.5403C26.8002 35.5398 26.7994 35.5392 26.7984 35.5387C26.7979 35.5384 26.7972 35.538 26.7967 35.5377L23.6665 33.6833C23.3844 33.5161 23.0206 33.6094 22.8535 33.8913C22.6865 34.1733 22.7795 34.5373 23.0615 34.7043L26.1918 36.5587C26.1924 36.5591 26.1931 36.5595 26.1936 36.5598C26.4008 36.6826 26.5478 36.8786 26.6075 37.112C26.6672 37.3453 26.6324 37.588 26.5097 37.7952C26.387 38.0024 26.1909 38.1494 25.9575 38.2091C25.7243 38.2688 25.4815 38.2341 25.2744 38.1114L23.5961 37.1171C23.595 37.1165 23.594 37.1158 23.5929 37.1151L22.3656 36.3881C22.0837 36.2212 21.7197 36.3142 21.5526 36.5962C21.3856 36.8781 21.4787 37.2422 21.7608 37.4092L22.988 38.1363L22.9897 38.1372C23.4162 38.3911 23.5574 38.9444 23.3044 39.3716C23.0508 39.7994 22.4966 39.9411 22.069 39.6879L20.6 38.8176C21.2314 37.8859 21.0085 36.6109 20.0887 35.9506C19.8076 35.7488 19.493 35.6271 19.172 35.5809C19.314 35.23 19.3575 34.846 19.2946 34.4629C19.2042 33.9125 18.9049 33.4303 18.4519 33.105C17.9764 32.7638 17.4048 32.6514 16.8695 32.7463C16.7882 32.2087 16.499 31.703 16.0235 31.3617C15.5704 31.0364 15.0179 30.9072 14.4674 30.9974C14.0077 31.0729 13.5956 31.2941 13.2828 31.629C13.137 31.3563 12.9284 31.1121 12.6608 30.9199C11.9516 30.4108 11.0286 30.4111 10.3309 30.8489L9.91008 30.6006L13.9476 23.7855L14.2457 23.9612C14.7471 24.2583 15.3064 24.409 15.8699 24.409C16.2587 24.409 16.6494 24.3373 17.0243 24.1923L18.2453 23.7203C18.9753 23.4383 19.3672 23.4249 20.1042 23.7834C19.6357 24.2889 19.3565 24.9635 19.3565 25.6916V28.508C19.3565 29.233 19.9459 29.8233 20.6705 29.8238H20.6723C21.4109 29.8238 22.1053 29.5363 22.6279 29.0141C22.945 28.6973 23.1757 28.3169 23.3082 27.9018L31.5737 32.7965C31.601 32.8127 31.6292 32.8264 31.658 32.8378C31.6817 32.8574 31.7072 32.8755 31.7346 32.8917C32.162 33.1451 32.3039 33.6992 32.0505 34.1268Z"/>
</mask>
<path d="M39.596 14.4617L28.9517 20.8065C28.1658 21.2749 27.8511 22.2386 28.168 23.066C27.6935 23.2651 27.1623 23.2744 26.6758 23.0864L25.2988 22.5455C24.7495 22.3295 24.1564 22.292 23.5841 22.4369L21.4743 22.9708C21.3925 22.9915 21.3124 23.0157 21.234 23.0431C19.9451 22.3073 19.1772 22.0873 17.8171 22.6133L16.596 23.0853C16.019 23.3084 15.3828 23.2554 14.8492 22.9394L14.4414 22.699C14.5584 21.9692 14.2308 21.2069 13.5591 20.8066L2.91485 14.4617C2.07085 13.9588 1 14.5659 1 15.5496V27.4316C1 28.2521 1.43779 29.0227 2.14253 29.4427L6.79004 32.2131C7.65453 32.7282 8.76581 32.4611 9.30393 31.621L9.5026 31.7383L8.9 32.5777C8.22691 33.515 8.44093 34.8184 9.37846 35.4916C9.84188 35.8243 10.4067 35.9498 10.96 35.8515C11.0448 36.4115 11.3464 36.9044 11.8068 37.235C12.269 37.5668 12.8373 37.6916 13.3892 37.5937C13.4704 38.1313 13.7596 38.637 14.2352 38.9783C14.8759 39.4382 15.6704 39.4757 16.3153 39.1847C16.4572 39.5779 16.7139 39.919 17.0608 40.1681C17.962 40.815 19.2117 40.6404 19.9027 39.7841L21.4637 40.7089C21.7969 40.9063 22.1631 41.0001 22.5248 41.0001C23.2389 41.0001 23.9355 40.6343 24.3251 39.9766C24.4896 39.6989 24.5823 39.3982 24.6085 39.0963L24.6693 39.1324C25.1494 39.4167 25.7114 39.4973 26.2517 39.3588C26.7922 39.2205 27.2464 38.88 27.5307 38.4001C27.7065 38.1034 27.8043 37.7753 27.8208 37.4405C28.1686 37.5376 28.5375 37.5421 28.8968 37.4503C29.4372 37.312 29.8915 36.9714 30.1758 36.4916C30.3412 36.2124 30.4377 35.9055 30.462 35.5911C31.4092 35.9921 32.5333 35.6402 33.0716 34.7317C33.5443 33.9338 33.4231 32.946 32.8406 32.2851L33.4523 31.9277C34.0324 32.5133 34.966 32.6628 35.7209 32.213L36.8444 31.5432C37.126 31.3754 37.2182 31.0111 37.0504 30.7297C36.8825 30.448 36.5179 30.356 36.2368 30.5237L35.1133 31.1935C34.8484 31.3515 34.5259 31.3033 34.318 31.1132C34.3141 31.0798 29.3258 22.7435 29.3258 22.7435C29.1379 22.4263 29.2427 22.0147 29.5593 21.8259L40.2036 15.4812C40.2579 15.4492 40.324 15.4873 40.324 15.5495V27.4315C40.324 27.8361 40.108 28.2161 39.7606 28.4232L38.6387 29.0919C38.3571 29.2597 38.265 29.624 38.4328 29.9055C38.6005 30.1871 38.965 30.2789 39.2463 30.1114L40.3682 29.4427C41.0729 29.0226 41.5107 28.252 41.5107 27.4315V15.5496C41.5108 14.5672 40.441 13.958 39.596 14.4617ZM23.8752 23.5874C24.2055 23.5039 24.5477 23.5256 24.8648 23.6501L26.2448 24.1922C27.0685 24.5107 27.968 24.4757 28.7528 24.1051L32.799 30.9349L32.1433 31.318C32.0242 31.3886 31.9099 31.4668 31.8012 31.5521L23.1475 26.4274C22.964 26.3187 22.7363 26.3169 22.5513 26.4225C22.3661 26.528 22.2517 26.7248 22.2517 26.938V27.0573C22.2517 27.4794 22.0873 27.8763 21.7887 28.1747C21.4903 28.4729 21.0938 28.637 20.6721 28.637C20.6036 28.6344 20.5432 28.5794 20.5431 28.508V25.6916C20.5431 25.078 20.8866 24.5303 21.4122 24.256C21.4383 24.2455 21.4638 24.2331 21.4883 24.2188C21.5763 24.1786 21.669 24.1459 21.7654 24.1214L23.8752 23.5874ZM7.90638 31.2674C7.73255 31.3114 7.55183 31.2855 7.3977 31.1935L2.75019 28.4233C2.40269 28.2161 2.18684 27.8362 2.18684 27.4316V15.5496C2.18684 15.5369 2.18684 15.5033 2.22711 15.4804C2.24215 15.4719 2.25568 15.4689 2.26723 15.4689C2.28653 15.4689 2.30038 15.4771 2.30719 15.4812L12.9516 21.8259C13.2682 22.0147 13.373 22.4263 13.1851 22.7436L8.31774 30.9595C8.22635 31.1137 8.08021 31.2232 7.90638 31.2674ZM10.7422 34.6847C10.5047 34.7238 10.2662 34.6679 10.0705 34.5275C9.87503 34.3871 9.74583 34.179 9.70682 33.9415C9.66781 33.7039 9.72359 33.4654 9.86404 33.2699L10.7106 32.0906C10.7313 32.0618 10.7535 32.0347 10.7767 32.0091C10.7943 31.9933 10.811 31.9763 10.8268 31.9583C11.1343 31.6702 11.6134 31.6293 11.9684 31.8841C12.3721 32.1739 12.4647 32.7381 12.1749 33.1418C12.1744 33.1424 12.1739 33.1432 12.1735 33.1438L11.3282 34.3211C11.1879 34.5166 10.9797 34.6457 10.7422 34.6847ZM12.4989 36.2708C12.3034 36.1304 12.1742 35.9223 12.1352 35.6848C12.0962 35.4472 12.1519 35.2087 12.2924 35.0132L13.139 33.8339C13.139 33.8339 13.139 33.8338 13.1391 33.8338L14.0734 32.5324C14.2137 32.3368 14.4218 32.2077 14.6594 32.1686C14.7089 32.1605 14.7582 32.1565 14.8074 32.1565C14.9943 32.1565 15.1762 32.2147 15.3311 32.3259C15.7348 32.6156 15.8274 33.1799 15.5376 33.5836L13.7566 36.0644C13.4667 36.4681 12.9025 36.5604 12.4989 36.2708ZM15.5988 38.1713C15.3614 38.2103 15.1228 38.1545 14.9273 38.0141C14.5236 37.7244 14.4309 37.1601 14.7207 36.7565C14.7212 36.7557 14.7217 36.7551 14.7222 36.7544L16.5018 34.2756C16.7915 33.8718 17.3558 33.7794 17.7595 34.0691C17.955 34.2094 18.0842 34.4175 18.1233 34.6551C18.1623 34.8926 18.1064 35.1312 17.966 35.3267L16.185 37.8075C16.0445 38.0031 15.8364 38.1323 15.5988 38.1713ZM17.7529 39.2039C17.5574 39.0635 17.4282 38.8554 17.3892 38.6178C17.3501 38.3803 17.4059 38.1418 17.5464 37.9463C17.547 37.9454 17.5476 37.9446 17.5481 37.9438L18.1392 37.1204C18.4293 36.7175 18.9929 36.6252 19.3963 36.9148C19.7999 37.2046 19.8926 37.7688 19.6028 38.1725L19.2641 38.6442C19.2606 38.649 19.2571 38.6539 19.2537 38.6588L19.0105 38.9975C18.7209 39.4011 18.1567 39.4938 17.7529 39.2039ZM32.0505 34.1268C31.7971 34.5545 31.2427 34.6963 30.8153 34.4429L29.4434 33.6302C29.4428 33.6299 29.4422 33.6295 29.4416 33.6292L25.1927 31.112C24.9106 30.945 24.5467 31.0381 24.3797 31.32C24.2127 31.602 24.3057 31.9661 24.5877 32.133L28.8385 34.6513C28.8385 34.6513 28.8385 34.6513 28.8386 34.6514L28.8392 34.6517C29.2664 34.9053 29.408 35.4592 29.1548 35.8867C29.032 36.0939 28.8359 36.2409 28.6026 36.3006C28.3692 36.3602 28.1266 36.3256 27.9194 36.2028L26.8011 35.5403C26.8002 35.5398 26.7994 35.5392 26.7984 35.5387C26.7979 35.5384 26.7972 35.538 26.7967 35.5377L23.6665 33.6833C23.3844 33.5161 23.0206 33.6094 22.8535 33.8913C22.6865 34.1733 22.7795 34.5373 23.0615 34.7043L26.1918 36.5587C26.1924 36.5591 26.1931 36.5595 26.1936 36.5598C26.4008 36.6826 26.5478 36.8786 26.6075 37.112C26.6672 37.3453 26.6324 37.588 26.5097 37.7952C26.387 38.0024 26.1909 38.1494 25.9575 38.2091C25.7243 38.2688 25.4815 38.2341 25.2744 38.1114L23.5961 37.1171C23.595 37.1165 23.594 37.1158 23.5929 37.1151L22.3656 36.3881C22.0837 36.2212 21.7197 36.3142 21.5526 36.5962C21.3856 36.8781 21.4787 37.2422 21.7608 37.4092L22.988 38.1363L22.9897 38.1372C23.4162 38.3911 23.5574 38.9444 23.3044 39.3716C23.0508 39.7994 22.4966 39.9411 22.069 39.6879L20.6 38.8176C21.2314 37.8859 21.0085 36.6109 20.0887 35.9506C19.8076 35.7488 19.493 35.6271 19.172 35.5809C19.314 35.23 19.3575 34.846 19.2946 34.4629C19.2042 33.9125 18.9049 33.4303 18.4519 33.105C17.9764 32.7638 17.4048 32.6514 16.8695 32.7463C16.7882 32.2087 16.499 31.703 16.0235 31.3617C15.5704 31.0364 15.0179 30.9072 14.4674 30.9974C14.0077 31.0729 13.5956 31.2941 13.2828 31.629C13.137 31.3563 12.9284 31.1121 12.6608 30.9199C11.9516 30.4108 11.0286 30.4111 10.3309 30.8489L9.91008 30.6006L13.9476 23.7855L14.2457 23.9612C14.7471 24.2583 15.3064 24.409 15.8699 24.409C16.2587 24.409 16.6494 24.3373 17.0243 24.1923L18.2453 23.7203C18.9753 23.4383 19.3672 23.4249 20.1042 23.7834C19.6357 24.2889 19.3565 24.9635 19.3565 25.6916V28.508C19.3565 29.233 19.9459 29.8233 20.6705 29.8238H20.6723C21.4109 29.8238 22.1053 29.5363 22.6279 29.0141C22.945 28.6973 23.1757 28.3169 23.3082 27.9018L31.5737 32.7965C31.601 32.8127 31.6292 32.8264 31.658 32.8378C31.6817 32.8574 31.7072 32.8755 31.7346 32.8917C32.162 33.1451 32.3039 33.6992 32.0505 34.1268Z" fill="#27AE60"/>
<path d="M39.596 14.4617L28.9517 20.8065C28.1658 21.2749 27.8511 22.2386 28.168 23.066C27.6935 23.2651 27.1623 23.2744 26.6758 23.0864L25.2988 22.5455C24.7495 22.3295 24.1564 22.292 23.5841 22.4369L21.4743 22.9708C21.3925 22.9915 21.3124 23.0157 21.234 23.0431C19.9451 22.3073 19.1772 22.0873 17.8171 22.6133L16.596 23.0853C16.019 23.3084 15.3828 23.2554 14.8492 22.9394L14.4414 22.699C14.5584 21.9692 14.2308 21.2069 13.5591 20.8066L2.91485 14.4617C2.07085 13.9588 1 14.5659 1 15.5496V27.4316C1 28.2521 1.43779 29.0227 2.14253 29.4427L6.79004 32.2131C7.65453 32.7282 8.76581 32.4611 9.30393 31.621L9.5026 31.7383L8.9 32.5777C8.22691 33.515 8.44093 34.8184 9.37846 35.4916C9.84188 35.8243 10.4067 35.9498 10.96 35.8515C11.0448 36.4115 11.3464 36.9044 11.8068 37.235C12.269 37.5668 12.8373 37.6916 13.3892 37.5937C13.4704 38.1313 13.7596 38.637 14.2352 38.9783C14.8759 39.4382 15.6704 39.4757 16.3153 39.1847C16.4572 39.5779 16.7139 39.919 17.0608 40.1681C17.962 40.815 19.2117 40.6404 19.9027 39.7841L21.4637 40.7089C21.7969 40.9063 22.1631 41.0001 22.5248 41.0001C23.2389 41.0001 23.9355 40.6343 24.3251 39.9766C24.4896 39.6989 24.5823 39.3982 24.6085 39.0963L24.6693 39.1324C25.1494 39.4167 25.7114 39.4973 26.2517 39.3588C26.7922 39.2205 27.2464 38.88 27.5307 38.4001C27.7065 38.1034 27.8043 37.7753 27.8208 37.4405C28.1686 37.5376 28.5375 37.5421 28.8968 37.4503C29.4372 37.312 29.8915 36.9714 30.1758 36.4916C30.3412 36.2124 30.4377 35.9055 30.462 35.5911C31.4092 35.9921 32.5333 35.6402 33.0716 34.7317C33.5443 33.9338 33.4231 32.946 32.8406 32.2851L33.4523 31.9277C34.0324 32.5133 34.966 32.6628 35.7209 32.213L36.8444 31.5432C37.126 31.3754 37.2182 31.0111 37.0504 30.7297C36.8825 30.448 36.5179 30.356 36.2368 30.5237L35.1133 31.1935C34.8484 31.3515 34.5259 31.3033 34.318 31.1132C34.3141 31.0798 29.3258 22.7435 29.3258 22.7435C29.1379 22.4263 29.2427 22.0147 29.5593 21.8259L40.2036 15.4812C40.2579 15.4492 40.324 15.4873 40.324 15.5495V27.4315C40.324 27.8361 40.108 28.2161 39.7606 28.4232L38.6387 29.0919C38.3571 29.2597 38.265 29.624 38.4328 29.9055C38.6005 30.1871 38.965 30.2789 39.2463 30.1114L40.3682 29.4427C41.0729 29.0226 41.5107 28.252 41.5107 27.4315V15.5496C41.5108 14.5672 40.441 13.958 39.596 14.4617ZM23.8752 23.5874C24.2055 23.5039 24.5477 23.5256 24.8648 23.6501L26.2448 24.1922C27.0685 24.5107 27.968 24.4757 28.7528 24.1051L32.799 30.9349L32.1433 31.318C32.0242 31.3886 31.9099 31.4668 31.8012 31.5521L23.1475 26.4274C22.964 26.3187 22.7363 26.3169 22.5513 26.4225C22.3661 26.528 22.2517 26.7248 22.2517 26.938V27.0573C22.2517 27.4794 22.0873 27.8763 21.7887 28.1747C21.4903 28.4729 21.0938 28.637 20.6721 28.637C20.6036 28.6344 20.5432 28.5794 20.5431 28.508V25.6916C20.5431 25.078 20.8866 24.5303 21.4122 24.256C21.4383 24.2455 21.4638 24.2331 21.4883 24.2188C21.5763 24.1786 21.669 24.1459 21.7654 24.1214L23.8752 23.5874ZM7.90638 31.2674C7.73255 31.3114 7.55183 31.2855 7.3977 31.1935L2.75019 28.4233C2.40269 28.2161 2.18684 27.8362 2.18684 27.4316V15.5496C2.18684 15.5369 2.18684 15.5033 2.22711 15.4804C2.24215 15.4719 2.25568 15.4689 2.26723 15.4689C2.28653 15.4689 2.30038 15.4771 2.30719 15.4812L12.9516 21.8259C13.2682 22.0147 13.373 22.4263 13.1851 22.7436L8.31774 30.9595C8.22635 31.1137 8.08021 31.2232 7.90638 31.2674ZM10.7422 34.6847C10.5047 34.7238 10.2662 34.6679 10.0705 34.5275C9.87503 34.3871 9.74583 34.179 9.70682 33.9415C9.66781 33.7039 9.72359 33.4654 9.86404 33.2699L10.7106 32.0906C10.7313 32.0618 10.7535 32.0347 10.7767 32.0091C10.7943 31.9933 10.811 31.9763 10.8268 31.9583C11.1343 31.6702 11.6134 31.6293 11.9684 31.8841C12.3721 32.1739 12.4647 32.7381 12.1749 33.1418C12.1744 33.1424 12.1739 33.1432 12.1735 33.1438L11.3282 34.3211C11.1879 34.5166 10.9797 34.6457 10.7422 34.6847ZM12.4989 36.2708C12.3034 36.1304 12.1742 35.9223 12.1352 35.6848C12.0962 35.4472 12.1519 35.2087 12.2924 35.0132L13.139 33.8339C13.139 33.8339 13.139 33.8338 13.1391 33.8338L14.0734 32.5324C14.2137 32.3368 14.4218 32.2077 14.6594 32.1686C14.7089 32.1605 14.7582 32.1565 14.8074 32.1565C14.9943 32.1565 15.1762 32.2147 15.3311 32.3259C15.7348 32.6156 15.8274 33.1799 15.5376 33.5836L13.7566 36.0644C13.4667 36.4681 12.9025 36.5604 12.4989 36.2708ZM15.5988 38.1713C15.3614 38.2103 15.1228 38.1545 14.9273 38.0141C14.5236 37.7244 14.4309 37.1601 14.7207 36.7565C14.7212 36.7557 14.7217 36.7551 14.7222 36.7544L16.5018 34.2756C16.7915 33.8718 17.3558 33.7794 17.7595 34.0691C17.955 34.2094 18.0842 34.4175 18.1233 34.6551C18.1623 34.8926 18.1064 35.1312 17.966 35.3267L16.185 37.8075C16.0445 38.0031 15.8364 38.1323 15.5988 38.1713ZM17.7529 39.2039C17.5574 39.0635 17.4282 38.8554 17.3892 38.6178C17.3501 38.3803 17.4059 38.1418 17.5464 37.9463C17.547 37.9454 17.5476 37.9446 17.5481 37.9438L18.1392 37.1204C18.4293 36.7175 18.9929 36.6252 19.3963 36.9148C19.7999 37.2046 19.8926 37.7688 19.6028 38.1725L19.2641 38.6442C19.2606 38.649 19.2571 38.6539 19.2537 38.6588L19.0105 38.9975C18.7209 39.4011 18.1567 39.4938 17.7529 39.2039ZM32.0505 34.1268C31.7971 34.5545 31.2427 34.6963 30.8153 34.4429L29.4434 33.6302C29.4428 33.6299 29.4422 33.6295 29.4416 33.6292L25.1927 31.112C24.9106 30.945 24.5467 31.0381 24.3797 31.32C24.2127 31.602 24.3057 31.9661 24.5877 32.133L28.8385 34.6513C28.8385 34.6513 28.8385 34.6513 28.8386 34.6514L28.8392 34.6517C29.2664 34.9053 29.408 35.4592 29.1548 35.8867C29.032 36.0939 28.8359 36.2409 28.6026 36.3006C28.3692 36.3602 28.1266 36.3256 27.9194 36.2028L26.8011 35.5403C26.8002 35.5398 26.7994 35.5392 26.7984 35.5387C26.7979 35.5384 26.7972 35.538 26.7967 35.5377L23.6665 33.6833C23.3844 33.5161 23.0206 33.6094 22.8535 33.8913C22.6865 34.1733 22.7795 34.5373 23.0615 34.7043L26.1918 36.5587C26.1924 36.5591 26.1931 36.5595 26.1936 36.5598C26.4008 36.6826 26.5478 36.8786 26.6075 37.112C26.6672 37.3453 26.6324 37.588 26.5097 37.7952C26.387 38.0024 26.1909 38.1494 25.9575 38.2091C25.7243 38.2688 25.4815 38.2341 25.2744 38.1114L23.5961 37.1171C23.595 37.1165 23.594 37.1158 23.5929 37.1151L22.3656 36.3881C22.0837 36.2212 21.7197 36.3142 21.5526 36.5962C21.3856 36.8781 21.4787 37.2422 21.7608 37.4092L22.988 38.1363L22.9897 38.1372C23.4162 38.3911 23.5574 38.9444 23.3044 39.3716C23.0508 39.7994 22.4966 39.9411 22.069 39.6879L20.6 38.8176C21.2314 37.8859 21.0085 36.6109 20.0887 35.9506C19.8076 35.7488 19.493 35.6271 19.172 35.5809C19.314 35.23 19.3575 34.846 19.2946 34.4629C19.2042 33.9125 18.9049 33.4303 18.4519 33.105C17.9764 32.7638 17.4048 32.6514 16.8695 32.7463C16.7882 32.2087 16.499 31.703 16.0235 31.3617C15.5704 31.0364 15.0179 30.9072 14.4674 30.9974C14.0077 31.0729 13.5956 31.2941 13.2828 31.629C13.137 31.3563 12.9284 31.1121 12.6608 30.9199C11.9516 30.4108 11.0286 30.4111 10.3309 30.8489L9.91008 30.6006L13.9476 23.7855L14.2457 23.9612C14.7471 24.2583 15.3064 24.409 15.8699 24.409C16.2587 24.409 16.6494 24.3373 17.0243 24.1923L18.2453 23.7203C18.9753 23.4383 19.3672 23.4249 20.1042 23.7834C19.6357 24.2889 19.3565 24.9635 19.3565 25.6916V28.508C19.3565 29.233 19.9459 29.8233 20.6705 29.8238H20.6723C21.4109 29.8238 22.1053 29.5363 22.6279 29.0141C22.945 28.6973 23.1757 28.3169 23.3082 27.9018L31.5737 32.7965C31.601 32.8127 31.6292 32.8264 31.658 32.8378C31.6817 32.8574 31.7072 32.8755 31.7346 32.8917C32.162 33.1451 32.3039 33.6992 32.0505 34.1268Z" stroke="#27AE60" stroke-width="0.5" mask="url(#path-1-outside-1_2:261)"/>
<path d="M19.04 2.95995V2.94977C19.0454 2.59712 19.334 2.31184 19.6877 2.31184H22.8232C23.1803 2.31184 23.471 2.60262 23.471 2.95995V3.77524H19.04V2.95995ZM14.453 16.5874H28.0577C29.3586 16.5874 30.4166 15.5293 30.4166 14.2285V6.13411C30.4166 4.8333 29.3586 3.77524 28.0577 3.77524H24.9077V2.95995C24.9077 1.81028 23.9727 0.875 22.8231 0.875H19.6875C18.538 0.875 17.6029 1.81019 17.6029 2.95995V3.77524H14.4528C13.152 3.77524 12.094 4.8333 12.094 6.13411V10.5931C12.094 10.9899 12.4156 11.3115 12.8124 11.3115C13.2091 11.3115 13.5308 10.9899 13.5308 10.5931V9.757C14.1546 10.2395 14.9369 10.5271 15.7849 10.5271H16.1244V11.0549C16.1244 11.4518 16.4461 11.7733 16.8428 11.7733C17.2396 11.7733 17.5612 11.4518 17.5612 11.0549V10.5271H24.9492V11.0549C24.9492 11.4518 25.2708 11.7733 25.6676 11.7733C26.0644 11.7733 26.386 11.4518 26.386 11.0549V10.5271H26.7254C27.5735 10.5271 28.3558 10.2395 28.9796 9.757V14.2284C28.9796 14.7368 28.5658 15.1505 28.0576 15.1505H14.453C13.9447 15.1505 13.531 14.7367 13.531 14.2284V13.3673C13.531 12.9704 13.2093 12.6489 12.8125 12.6489C12.4158 12.6489 12.0941 12.9704 12.0941 13.3673V14.2284C12.0941 15.5293 13.1522 16.5874 14.453 16.5874ZM26.7256 9.09031H26.3863V8.56255C26.3863 8.16571 26.0647 7.84413 25.6678 7.84413C25.271 7.84413 24.9494 8.16571 24.9494 8.56255V9.09031H17.5615V8.56255C17.5615 8.16569 17.2398 7.84413 16.8431 7.84413C16.4463 7.84413 16.1246 8.16569 16.1246 8.56255V9.09031H15.7852C14.5424 9.09031 13.531 8.07899 13.531 6.83617V6.13411C13.531 5.62579 13.9447 5.21208 14.4531 5.21208H28.0578C28.5661 5.21208 28.9799 5.62586 28.9799 6.13411V6.83617C28.9799 8.07898 27.9685 9.09031 26.7256 9.09031Z" fill="#27AE60" stroke="#27AE60" stroke-width="0.25"/>
</svg>
