<svg width="42" height="42" viewBox="0 0 42 42" fill="none" xmlns="http://www.w3.org/2000/svg">
<path d="M36 8.30562C36.4536 8.30562 36.8213 7.93795 36.8213 7.48438V3.34375C36.8213 2.02931 35.7519 0.96 34.4375 0.96H3.34375C2.02931 0.96 0.96 2.02931 0.96 3.34375V38.6562C0.96 39.9707 2.02931 41.04 3.34375 41.04H34.4375C35.7519 41.04 36.8213 39.9707 36.8213 38.6562V36.4688C36.8213 36.0152 36.4536 35.6475 36 35.6475C35.5464 35.6475 35.1787 36.0152 35.1787 36.4688V38.6562C35.1787 39.0649 34.8462 39.3975 34.4375 39.3975H3.34375C2.93506 39.3975 2.6025 39.0649 2.6025 38.6562V3.34375C2.6025 2.93506 2.93506 2.6025 3.34375 2.6025H34.4375C34.8462 2.6025 35.1787 2.93506 35.1787 3.34375V7.48438C35.1787 7.93795 35.5464 8.30562 36 8.30562Z" fill="#27AE60" stroke="#27AE60" stroke-width="0.08"/>
<path d="M32.2505 4.71H5.53079C5.07722 4.71 4.70954 5.07767 4.70954 5.53125V21.8594C4.70954 22.313 5.07722 22.6806 5.53079 22.6806C5.98437 22.6806 6.35204 22.313 6.35204 21.8594V6.3525H31.4292V7.5625C31.4292 8.01608 31.797 8.38375 32.2505 8.38375C32.7041 8.38375 33.0717 8.01608 33.0717 7.5625V5.53125C33.0717 5.07767 32.7041 4.71 32.2505 4.71Z" fill="#27AE60" stroke="#27AE60" stroke-width="0.08"/>
<path d="M6.11105 24.1693C5.95826 24.0166 5.74733 23.9288 5.53046 23.9288C5.31436 23.9288 5.10263 24.0166 4.94983 24.1694C4.79702 24.3222 4.70921 24.5339 4.70921 24.75C4.70921 24.9661 4.79702 25.1778 4.94983 25.3306C5.10263 25.4834 5.31436 25.5712 5.53046 25.5712C5.74735 25.5712 5.9583 25.4834 6.11108 25.3306L6.0828 25.3023L6.11101 25.3307C6.26473 25.1778 6.35171 24.966 6.35171 24.75C6.35171 24.534 6.26475 24.3222 6.11105 24.1693Z" fill="#27AE60" stroke="#27AE60" stroke-width="0.08"/>
<path d="M32.2505 33.9288C31.7969 33.9288 31.4292 34.2964 31.4292 34.75V35.6475H6.35204V27.7578C6.35204 27.3042 5.98437 26.9366 5.53079 26.9366C5.07722 26.9366 4.70954 27.3042 4.70954 27.7578V36.4688C4.70954 36.9223 5.07722 37.29 5.53079 37.29H32.2505C32.7041 37.29 33.0717 36.9223 33.0717 36.4688V34.75C33.0717 34.2964 32.7041 33.9288 32.2505 33.9288Z" fill="#27AE60" stroke="#27AE60" stroke-width="0.08"/>
<path d="M24.0781 28.576L24.0781 28.576L22.5624 30.0919L21.6309 29.1603L21.6309 29.1603C21.0092 28.5387 19.9981 28.5387 19.3764 29.1603L19.3764 29.1603L18.7519 29.7848C18.4312 30.1055 18.4312 30.6255 18.7519 30.9463L18.7519 30.9463C19.0726 31.267 19.5926 31.267 19.9134 30.9463L19.9134 30.9463L20.5037 30.356L21.4352 31.2876C21.746 31.5984 22.1543 31.7537 22.5624 31.7537C22.9705 31.7537 23.3788 31.5984 23.6895 31.2876L25.2395 29.7376C25.5602 29.4169 25.5602 28.8969 25.2396 28.5761C24.9188 28.2553 24.3989 28.2553 24.0781 28.576Z" fill="#27AE60" stroke="#27AE60" stroke-width="0.08"/>
<path d="M37.0094 11.0637L37.0095 11.0637C37.6583 11.0331 38.2933 11.2795 38.7524 11.7385C39.2114 12.1977 39.4574 12.8328 39.4272 13.4814C39.4151 13.7421 39.5571 13.9882 39.789 14.108C40.3658 14.4062 40.7929 14.9368 40.9609 15.5639C41.129 16.191 41.0244 16.8642 40.674 17.4108L40.6403 17.3892L40.674 17.4108C40.5331 17.6305 40.5331 17.9146 40.674 18.1341L40.674 18.1342C41.0244 18.6808 41.129 19.3539 40.9609 19.9811C40.7929 20.6083 40.3657 21.1388 39.789 21.437C39.5572 21.5568 39.4151 21.8029 39.4272 22.0636C39.4574 22.7121 39.2114 23.3473 38.7523 23.8064C38.2933 24.2655 37.6588 24.512 37.0095 24.4813C36.7491 24.4694 36.5027 24.6112 36.3829 24.8431C36.2898 25.0232 36.1738 25.1884 36.0396 25.3359V32.6167C36.0396 32.9485 35.84 33.2476 35.5337 33.375C35.4318 33.4174 35.3247 33.438 35.2185 33.438C35.0055 33.438 34.7962 33.3551 34.6392 33.1989L32.7184 31.2882L30.7976 33.1989C30.5623 33.433 30.2094 33.5025 29.9031 33.3751C29.5968 33.2477 29.3971 32.9485 29.3971 32.6168V25.336C29.2629 25.1884 29.1469 25.0233 29.0539 24.8432C28.934 24.6112 28.6876 24.4686 28.4274 24.4814L28.4273 24.4814C27.7784 24.512 27.1435 24.2656 26.6845 23.8065C26.2253 23.3474 25.9794 22.7122 26.0095 22.0636L26.0095 22.0636C26.0134 21.9802 26.0009 21.8983 25.9749 21.8212H10.8261C10.3725 21.8212 10.0049 21.4535 10.0049 21C10.0049 20.5464 10.3725 20.1787 10.8261 20.1787H24.539C24.5152 20.1142 24.494 20.0483 24.476 19.9812M37.0094 11.0637L24.5146 19.9708M37.0094 11.0637C36.7475 11.0763 36.5028 10.9338 36.3829 10.7019C36.0848 10.1252 35.5541 9.69806 34.927 9.52999C34.2997 9.36184 33.6267 9.46654 33.0802 9.8169L33.1018 9.85058M37.0094 11.0637L33.1018 9.85058M24.476 19.9812L24.5146 19.9708M24.476 19.9812C24.476 19.9812 24.476 19.9812 24.476 19.9812L24.5146 19.9708M24.476 19.9812C24.3079 19.354 24.4125 18.6809 24.7629 18.1343L24.7629 18.1343C24.7759 18.1141 24.7873 18.093 24.7976 18.0712M24.5146 19.9708C24.3495 19.3546 24.4523 18.693 24.7966 18.1559C24.8141 18.1286 24.8287 18.1002 24.8416 18.0712H24.7976M24.7976 18.0712H10.8263C10.3728 18.0712 10.0051 17.7035 10.0051 17.25C10.0051 16.7964 10.3728 16.4287 10.8263 16.4287H24.4138C24.3803 16.1418 24.3999 15.8481 24.4761 15.5639C24.6441 14.9367 25.0713 14.4062 25.648 14.108C25.8798 13.9882 26.0219 13.7421 26.0097 13.4813L26.0497 13.4795L26.0097 13.4813C25.9796 12.8328 26.2256 12.1977 26.6847 11.7385C27.1437 11.2795 27.7786 11.0334 28.4275 11.0637M24.7976 18.0712C24.8038 18.0581 24.8097 18.0448 24.8152 18.0312H10.8263C10.3949 18.0312 10.0451 17.6814 10.0451 17.25C10.0451 16.8185 10.3949 16.4687 10.8263 16.4687H24.4188L28.4275 11.0637M28.4254 24.4414C27.7878 24.4715 27.1638 24.2293 26.7128 23.7782C26.2616 23.3271 26.0199 22.7028 26.0495 22.0655C26.0541 21.9668 26.037 21.8705 26.0031 21.7812H10.8261C10.3946 21.7812 10.0449 21.4314 10.0449 21C10.0449 20.5685 10.3946 20.2187 10.8261 20.2187H24.5542L28.4254 24.4414ZM28.4254 24.4414C28.7014 24.4279 28.9624 24.579 29.0894 24.8248C29.1832 25.0064 29.3008 25.1725 29.4371 25.3204L28.4254 24.4414ZM33.1018 9.85058L33.0802 9.81691C32.8605 9.95784 32.5764 9.95777 32.3568 9.81691L32.3352 9.85058M33.1018 9.85058H32.3352M32.3352 9.85058L32.3568 9.81691C31.8102 9.46645 31.1372 9.36192 30.51 9.52999C29.8829 9.69806 29.3522 10.1252 29.0541 10.7019L29.0896 10.7203M32.3352 9.85058L29.0896 10.7203M29.0896 10.7203L29.0541 10.7019C28.9343 10.9337 28.6876 11.0755 28.4275 11.0637M29.0896 10.7203L28.4275 11.0637M33.9666 24.3455L33.9666 24.3455C34.1274 24.4486 34.3173 24.478 34.5018 24.4287C34.6864 24.3792 34.8361 24.2588 34.9238 24.089C35.3374 23.2888 36.1855 22.7991 37.0857 22.8408C37.2767 22.8495 37.4558 22.7803 37.5909 22.6452C37.726 22.51 37.7954 22.3309 37.7865 22.14C37.7446 21.2402 38.2346 20.3917 39.0347 19.978C39.2044 19.8903 39.3249 19.7406 39.3743 19.5561C39.4239 19.3715 39.3943 19.1816 39.2912 19.0208L39.3249 18.9992L39.2912 19.0208C38.805 18.2624 38.805 17.2826 39.2912 16.5243L39.3249 16.5459L39.2912 16.5243C39.3943 16.3635 39.4238 16.1737 39.3743 15.9891C39.3249 15.8045 39.2045 15.6549 39.0348 15.5671C38.2345 15.1535 37.7446 14.3049 37.7865 13.4051C37.7954 13.2143 37.726 13.0351 37.5909 12.9L37.6192 12.8717L37.5909 12.8999C37.4558 12.7648 37.2768 12.6957 37.0858 12.7044C37.0858 12.7044 37.0858 12.7044 37.0857 12.7044L37.0839 12.6644C36.1996 12.7057 35.3658 12.224 34.9593 11.4378L33.9666 24.3455ZM33.9666 24.3455C33.5873 24.1023 33.1528 23.9809 32.7183 23.9809C32.2839 23.9809 31.8493 24.1024 31.4701 24.3455C31.3092 24.4486 31.1193 24.478 30.9348 24.4287C30.7502 24.3792 30.6006 24.2587 30.5128 24.089C30.0992 23.2889 29.2513 22.7987 28.3508 22.8408L33.9666 24.3455ZM26.1118 18.9993L26.1455 19.0209C26.0424 19.1816 26.0129 19.3715 26.0623 19.5561C26.1118 19.7407 26.2322 19.8903 26.4019 19.978L26.3835 20.0135L26.4019 19.978C26.6203 20.091 26.8146 20.2371 26.9821 20.4069C26.996 20.4201 27.0089 20.4338 27.0212 20.4472C27.0212 20.4473 27.0213 20.4474 27.0214 20.4475L26.9918 20.4744C27.4069 20.9157 27.6392 21.514 27.6102 22.1381C27.6007 22.3403 27.6743 22.5303 27.8174 22.6735C27.9605 22.8165 28.151 22.89 28.3527 22.8807L26.1118 18.9993ZM26.1118 18.9993L26.1455 19.0208C26.6317 18.2625 26.6317 17.2827 26.1455 16.5244C26.0424 16.3635 26.0129 16.1737 26.0623 15.9891C26.1118 15.8045 26.2323 15.6549 26.402 15.5671C27.2021 15.1535 27.692 14.305 27.6502 13.4051C27.6413 13.2143 27.7107 13.0351 27.8458 12.8999C27.9809 12.7648 28.1604 12.6956 28.3509 12.7044C29.2513 12.7461 30.0993 12.2563 30.5129 11.4561L30.4774 11.4378M26.1118 18.9993L30.4774 11.4378M30.4774 11.4378L30.5129 11.4561C30.6006 11.2864 30.7503 11.1659 30.9349 11.1165C31.1194 11.0671 31.3093 11.0965 31.4701 11.1996L31.4917 11.166L31.4701 11.1996C32.2285 11.6859 33.2084 11.6859 33.9665 11.1996C34.1274 11.0966 34.3172 11.067 34.5018 11.1165L34.5121 11.0778L30.4774 11.4378ZM32.3567 25.7282L32.3567 25.7282C32.5764 25.5872 32.8605 25.5873 33.0801 25.7282L33.1017 25.6945L33.0801 25.7282C33.4557 25.9689 33.8908 26.0936 34.3299 26.0936C34.3524 26.0936 34.3749 26.0929 34.3971 26.092V30.6414L33.2975 29.5475C32.9772 29.2288 32.4595 29.2288 32.1392 29.5475L31.0396 30.6414V26.0923C31.5013 26.1057 31.9619 25.9811 32.3567 25.7282Z" fill="#27AE60" stroke="#27AE60" stroke-width="0.08"/>
<path d="M36.462 15.6191L36.462 15.6191C36.1413 15.2984 35.6213 15.2984 35.3006 15.6191L35.3289 15.6474L35.3006 15.6191L32.7359 18.1839L31.7319 17.18C31.4112 16.8593 30.8912 16.8593 30.5704 17.18L30.5704 17.18C30.2497 17.5007 30.2497 18.0207 30.5704 18.3415L30.5704 18.3415L32.1551 19.9261C32.3155 20.0865 32.5257 20.1667 32.7358 20.1667C32.9459 20.1667 33.1562 20.0865 33.3165 19.9261C33.3165 19.9261 33.3165 19.9261 33.3165 19.9261L36.462 16.7806C36.7827 16.4599 36.7827 15.9399 36.462 15.6191Z" fill="#27AE60" stroke="#27AE60" stroke-width="0.08"/>
<path d="M10.565 10.4194C10.4122 10.2666 10.2005 10.1788 9.98438 10.1788C9.76828 10.1788 9.55655 10.2666 9.40375 10.4194C9.25094 10.5722 9.16313 10.7839 9.16313 11C9.16313 11.2161 9.25094 11.4278 9.40375 11.5806C9.55655 11.7334 9.76828 11.8212 9.98438 11.8212C10.2005 11.8212 10.4122 11.7334 10.565 11.5806C10.7178 11.4278 10.8056 11.2161 10.8056 11C10.8056 10.7839 10.7178 10.5722 10.565 10.4194Z" fill="#27AE60" stroke="#27AE60" stroke-width="0.08"/>
<path d="M16.7026 10.1788H12.9005C12.4469 10.1788 12.0792 10.5464 12.0792 11C12.0792 11.4536 12.4469 11.8212 12.9005 11.8212H16.7026C17.1562 11.8212 17.5238 11.4536 17.5238 11C17.5238 10.5464 17.1562 10.1788 16.7026 10.1788Z" fill="#27AE60" stroke="#27AE60" stroke-width="0.08"/>
<path d="M24.6589 23.9288H15.7275C15.2739 23.9288 14.9063 24.2964 14.9063 24.75C14.9063 25.2036 15.2739 25.5712 15.7275 25.5712H24.6588C25.1124 25.5712 25.4801 25.2036 25.4801 24.75C25.4801 24.2964 25.1125 23.9288 24.6589 23.9288Z" fill="#27AE60" stroke="#27AE60" stroke-width="0.08"/>
</svg>
