<svg width="42" height="42" viewBox="0 0 42 42" fill="none" xmlns="http://www.w3.org/2000/svg">
<mask id="path-1-outside-1_2:259" maskUnits="userSpaceOnUse" x="0" y="0" width="42" height="42" fill="black">
<rect fill="white" width="42" height="42"/>
<path d="M40.4141 26.5004C40.7377 26.5004 41 26.238 41 25.9145V22.7984C41 22.0446 40.3866 21.4312 39.6328 21.4312H34.1531V12.5831C34.1531 11.8293 33.5398 11.2159 32.7859 11.2159H27.8695V2.36719C27.8695 1.61336 27.2562 1 26.5023 1H15.4977C14.7438 1 14.1305 1.61336 14.1305 2.36719V11.2159H9.21406C8.46024 11.2159 7.84688 11.8293 7.84688 12.5831V21.4312H2.36719C1.61336 21.4312 1 22.0446 1 22.7984V29.5022C1 29.8258 1.26234 30.0881 1.58594 30.0881C1.90953 30.0881 2.17188 29.8258 2.17188 29.5022V22.7984C2.17188 22.6908 2.25953 22.6031 2.36719 22.6031L20.4141 22.6038V36.9401H17.9819V26.5321C17.9819 25.9936 17.5438 25.5555 17.0053 25.5555H5.58063C5.04211 25.5555 4.60406 25.9936 4.60406 26.5321V36.9402H2.36719C2.25953 36.9402 2.17188 36.8525 2.17188 36.7448V32.3147C2.17188 31.9911 1.90953 31.7288 1.58594 31.7288C1.26234 31.7288 1 31.9911 1 32.3147V36.7448C1 37.4987 1.61336 38.112 2.36719 38.112H2.96328V40.0234C2.96328 40.562 3.40133 41 3.93984 41H6.18906C6.72758 41 7.16563 40.562 7.16563 40.0234V38.112H15.4204V40.0234C15.4204 40.562 15.8584 41 16.397 41H18.6462C19.1847 41 19.6227 40.562 19.6227 40.0234V38.112H22.3774V40.0234C22.3774 40.562 22.8155 41 23.354 41H25.6032C26.1417 41 26.5798 40.562 26.5798 40.0234V38.112H34.8345V40.0234C34.8345 40.562 35.2726 41 35.8111 41H38.0603C38.5988 41 39.0369 40.562 39.0369 40.0234V38.112H39.633C40.3868 38.112 41.0002 37.4987 41.0002 36.7448V28.7303C41.0002 28.4067 40.7378 28.1444 40.4142 28.1444C40.0906 28.1444 39.8283 28.4067 39.8283 28.7303V36.7448C39.8283 36.8525 39.7406 36.9402 39.633 36.9402H37.3961V26.5321C37.3961 25.9936 36.958 25.5555 36.4195 25.5555H24.9947C24.4562 25.5555 24.0181 25.9936 24.0181 26.5321V36.9402H21.5859V22.6038L39.6328 22.6031C39.7405 22.6031 39.8281 22.6908 39.8281 22.7984V25.9145C39.8281 26.238 40.0905 26.5004 40.4141 26.5004ZM25.4077 39.8281H23.5491V38.112H25.4077V39.8281ZM36.2241 31.2342H25.19V29.5148H36.2241V31.2342ZM36.2241 32.4061V34.1255H25.19V32.4061H36.2241ZM29.4367 35.2973H31.9773V36.9402H29.4367V35.2973ZM37.8648 39.8281H36.0063V38.112H37.8648V39.8281ZM33.1492 36.9402V35.2973H36.2241V36.9402H33.1492ZM36.2241 26.7274V28.343H25.19V26.7274H36.2241ZM25.19 35.2973H28.2648V36.9402H25.19V35.2973ZM32.9813 12.5831V21.4312H21.5859V12.3878H25.3102V14.7858C25.3102 15.3243 25.7482 15.7623 26.2867 15.7623H28.2805C28.819 15.7623 29.257 15.3243 29.257 14.7858V12.3878H32.7859C32.8936 12.3878 32.9813 12.4755 32.9813 12.5831ZM26.482 12.3878H28.0852V14.5905H26.482V12.3878ZM20.1984 2.17188H21.8016V4.37453H20.1984V2.17188ZM15.3023 2.36719C15.3023 2.25953 15.39 2.17188 15.4977 2.17188H19.0266V4.56984C19.0266 5.10836 19.4646 5.54641 20.0031 5.54641H21.9969C22.5354 5.54641 22.9734 5.10836 22.9734 4.56984V2.17188H26.5023C26.61 2.17188 26.6977 2.25953 26.6977 2.36719V11.2159H15.3023V2.36719ZM13.9148 12.3878H15.518V14.5905H13.9148V12.3878ZM9.01875 12.5831C9.01875 12.4755 9.10641 12.3878 9.21406 12.3878H12.743V14.7858C12.743 15.3243 13.181 15.7623 13.7195 15.7623H15.7133C16.2518 15.7623 16.6898 15.3243 16.6898 14.7858V12.3878H20.4141V21.4312H9.01875V12.5831ZM10.0227 36.9402V35.2973H12.5633V36.9402H10.0227ZM16.81 31.2342H5.77594V29.5148H16.81V31.2342ZM16.81 32.4061V34.1255H5.77594V32.4061H16.81ZM13.7352 35.2973H16.81V36.9402H13.7352V35.2973ZM16.81 26.7274V28.343H5.77594V26.7274H16.81ZM5.77594 35.2973H8.85078V36.9402H5.77594V35.2973ZM5.99367 39.8281H4.13516V38.112H5.99375V39.8281H5.99367ZM18.4508 39.8281H16.5922V38.112H18.4508V39.8281Z"/>
</mask>
<path d="M40.4141 26.5004C40.7377 26.5004 41 26.238 41 25.9145V22.7984C41 22.0446 40.3866 21.4312 39.6328 21.4312H34.1531V12.5831C34.1531 11.8293 33.5398 11.2159 32.7859 11.2159H27.8695V2.36719C27.8695 1.61336 27.2562 1 26.5023 1H15.4977C14.7438 1 14.1305 1.61336 14.1305 2.36719V11.2159H9.21406C8.46024 11.2159 7.84688 11.8293 7.84688 12.5831V21.4312H2.36719C1.61336 21.4312 1 22.0446 1 22.7984V29.5022C1 29.8258 1.26234 30.0881 1.58594 30.0881C1.90953 30.0881 2.17188 29.8258 2.17188 29.5022V22.7984C2.17188 22.6908 2.25953 22.6031 2.36719 22.6031L20.4141 22.6038V36.9401H17.9819V26.5321C17.9819 25.9936 17.5438 25.5555 17.0053 25.5555H5.58063C5.04211 25.5555 4.60406 25.9936 4.60406 26.5321V36.9402H2.36719C2.25953 36.9402 2.17188 36.8525 2.17188 36.7448V32.3147C2.17188 31.9911 1.90953 31.7288 1.58594 31.7288C1.26234 31.7288 1 31.9911 1 32.3147V36.7448C1 37.4987 1.61336 38.112 2.36719 38.112H2.96328V40.0234C2.96328 40.562 3.40133 41 3.93984 41H6.18906C6.72758 41 7.16563 40.562 7.16563 40.0234V38.112H15.4204V40.0234C15.4204 40.562 15.8584 41 16.397 41H18.6462C19.1847 41 19.6227 40.562 19.6227 40.0234V38.112H22.3774V40.0234C22.3774 40.562 22.8155 41 23.354 41H25.6032C26.1417 41 26.5798 40.562 26.5798 40.0234V38.112H34.8345V40.0234C34.8345 40.562 35.2726 41 35.8111 41H38.0603C38.5988 41 39.0369 40.562 39.0369 40.0234V38.112H39.633C40.3868 38.112 41.0002 37.4987 41.0002 36.7448V28.7303C41.0002 28.4067 40.7378 28.1444 40.4142 28.1444C40.0906 28.1444 39.8283 28.4067 39.8283 28.7303V36.7448C39.8283 36.8525 39.7406 36.9402 39.633 36.9402H37.3961V26.5321C37.3961 25.9936 36.958 25.5555 36.4195 25.5555H24.9947C24.4562 25.5555 24.0181 25.9936 24.0181 26.5321V36.9402H21.5859V22.6038L39.6328 22.6031C39.7405 22.6031 39.8281 22.6908 39.8281 22.7984V25.9145C39.8281 26.238 40.0905 26.5004 40.4141 26.5004ZM25.4077 39.8281H23.5491V38.112H25.4077V39.8281ZM36.2241 31.2342H25.19V29.5148H36.2241V31.2342ZM36.2241 32.4061V34.1255H25.19V32.4061H36.2241ZM29.4367 35.2973H31.9773V36.9402H29.4367V35.2973ZM37.8648 39.8281H36.0063V38.112H37.8648V39.8281ZM33.1492 36.9402V35.2973H36.2241V36.9402H33.1492ZM36.2241 26.7274V28.343H25.19V26.7274H36.2241ZM25.19 35.2973H28.2648V36.9402H25.19V35.2973ZM32.9813 12.5831V21.4312H21.5859V12.3878H25.3102V14.7858C25.3102 15.3243 25.7482 15.7623 26.2867 15.7623H28.2805C28.819 15.7623 29.257 15.3243 29.257 14.7858V12.3878H32.7859C32.8936 12.3878 32.9813 12.4755 32.9813 12.5831ZM26.482 12.3878H28.0852V14.5905H26.482V12.3878ZM20.1984 2.17188H21.8016V4.37453H20.1984V2.17188ZM15.3023 2.36719C15.3023 2.25953 15.39 2.17188 15.4977 2.17188H19.0266V4.56984C19.0266 5.10836 19.4646 5.54641 20.0031 5.54641H21.9969C22.5354 5.54641 22.9734 5.10836 22.9734 4.56984V2.17188H26.5023C26.61 2.17188 26.6977 2.25953 26.6977 2.36719V11.2159H15.3023V2.36719ZM13.9148 12.3878H15.518V14.5905H13.9148V12.3878ZM9.01875 12.5831C9.01875 12.4755 9.10641 12.3878 9.21406 12.3878H12.743V14.7858C12.743 15.3243 13.181 15.7623 13.7195 15.7623H15.7133C16.2518 15.7623 16.6898 15.3243 16.6898 14.7858V12.3878H20.4141V21.4312H9.01875V12.5831ZM10.0227 36.9402V35.2973H12.5633V36.9402H10.0227ZM16.81 31.2342H5.77594V29.5148H16.81V31.2342ZM16.81 32.4061V34.1255H5.77594V32.4061H16.81ZM13.7352 35.2973H16.81V36.9402H13.7352V35.2973ZM16.81 26.7274V28.343H5.77594V26.7274H16.81ZM5.77594 35.2973H8.85078V36.9402H5.77594V35.2973ZM5.99367 39.8281H4.13516V38.112H5.99375V39.8281H5.99367ZM18.4508 39.8281H16.5922V38.112H18.4508V39.8281Z" fill="#27AE60"/>
<path d="M40.4141 26.5004C40.7377 26.5004 41 26.238 41 25.9145V22.7984C41 22.0446 40.3866 21.4312 39.6328 21.4312H34.1531V12.5831C34.1531 11.8293 33.5398 11.2159 32.7859 11.2159H27.8695V2.36719C27.8695 1.61336 27.2562 1 26.5023 1H15.4977C14.7438 1 14.1305 1.61336 14.1305 2.36719V11.2159H9.21406C8.46024 11.2159 7.84688 11.8293 7.84688 12.5831V21.4312H2.36719C1.61336 21.4312 1 22.0446 1 22.7984V29.5022C1 29.8258 1.26234 30.0881 1.58594 30.0881C1.90953 30.0881 2.17188 29.8258 2.17188 29.5022V22.7984C2.17188 22.6908 2.25953 22.6031 2.36719 22.6031L20.4141 22.6038V36.9401H17.9819V26.5321C17.9819 25.9936 17.5438 25.5555 17.0053 25.5555H5.58063C5.04211 25.5555 4.60406 25.9936 4.60406 26.5321V36.9402H2.36719C2.25953 36.9402 2.17188 36.8525 2.17188 36.7448V32.3147C2.17188 31.9911 1.90953 31.7288 1.58594 31.7288C1.26234 31.7288 1 31.9911 1 32.3147V36.7448C1 37.4987 1.61336 38.112 2.36719 38.112H2.96328V40.0234C2.96328 40.562 3.40133 41 3.93984 41H6.18906C6.72758 41 7.16563 40.562 7.16563 40.0234V38.112H15.4204V40.0234C15.4204 40.562 15.8584 41 16.397 41H18.6462C19.1847 41 19.6227 40.562 19.6227 40.0234V38.112H22.3774V40.0234C22.3774 40.562 22.8155 41 23.354 41H25.6032C26.1417 41 26.5798 40.562 26.5798 40.0234V38.112H34.8345V40.0234C34.8345 40.562 35.2726 41 35.8111 41H38.0603C38.5988 41 39.0369 40.562 39.0369 40.0234V38.112H39.633C40.3868 38.112 41.0002 37.4987 41.0002 36.7448V28.7303C41.0002 28.4067 40.7378 28.1444 40.4142 28.1444C40.0906 28.1444 39.8283 28.4067 39.8283 28.7303V36.7448C39.8283 36.8525 39.7406 36.9402 39.633 36.9402H37.3961V26.5321C37.3961 25.9936 36.958 25.5555 36.4195 25.5555H24.9947C24.4562 25.5555 24.0181 25.9936 24.0181 26.5321V36.9402H21.5859V22.6038L39.6328 22.6031C39.7405 22.6031 39.8281 22.6908 39.8281 22.7984V25.9145C39.8281 26.238 40.0905 26.5004 40.4141 26.5004ZM25.4077 39.8281H23.5491V38.112H25.4077V39.8281ZM36.2241 31.2342H25.19V29.5148H36.2241V31.2342ZM36.2241 32.4061V34.1255H25.19V32.4061H36.2241ZM29.4367 35.2973H31.9773V36.9402H29.4367V35.2973ZM37.8648 39.8281H36.0063V38.112H37.8648V39.8281ZM33.1492 36.9402V35.2973H36.2241V36.9402H33.1492ZM36.2241 26.7274V28.343H25.19V26.7274H36.2241ZM25.19 35.2973H28.2648V36.9402H25.19V35.2973ZM32.9813 12.5831V21.4312H21.5859V12.3878H25.3102V14.7858C25.3102 15.3243 25.7482 15.7623 26.2867 15.7623H28.2805C28.819 15.7623 29.257 15.3243 29.257 14.7858V12.3878H32.7859C32.8936 12.3878 32.9813 12.4755 32.9813 12.5831ZM26.482 12.3878H28.0852V14.5905H26.482V12.3878ZM20.1984 2.17188H21.8016V4.37453H20.1984V2.17188ZM15.3023 2.36719C15.3023 2.25953 15.39 2.17188 15.4977 2.17188H19.0266V4.56984C19.0266 5.10836 19.4646 5.54641 20.0031 5.54641H21.9969C22.5354 5.54641 22.9734 5.10836 22.9734 4.56984V2.17188H26.5023C26.61 2.17188 26.6977 2.25953 26.6977 2.36719V11.2159H15.3023V2.36719ZM13.9148 12.3878H15.518V14.5905H13.9148V12.3878ZM9.01875 12.5831C9.01875 12.4755 9.10641 12.3878 9.21406 12.3878H12.743V14.7858C12.743 15.3243 13.181 15.7623 13.7195 15.7623H15.7133C16.2518 15.7623 16.6898 15.3243 16.6898 14.7858V12.3878H20.4141V21.4312H9.01875V12.5831ZM10.0227 36.9402V35.2973H12.5633V36.9402H10.0227ZM16.81 31.2342H5.77594V29.5148H16.81V31.2342ZM16.81 32.4061V34.1255H5.77594V32.4061H16.81ZM13.7352 35.2973H16.81V36.9402H13.7352V35.2973ZM16.81 26.7274V28.343H5.77594V26.7274H16.81ZM5.77594 35.2973H8.85078V36.9402H5.77594V35.2973ZM5.99367 39.8281H4.13516V38.112H5.99375V39.8281H5.99367ZM18.4508 39.8281H16.5922V38.112H18.4508V39.8281Z" stroke="#27AE60" stroke-width="0.4" mask="url(#path-1-outside-1_2:259)"/>
</svg>
