<svg width="34" height="37" viewBox="0 0 34 37" fill="none" xmlns="http://www.w3.org/2000/svg">
<path d="M4.16917 28.8291L4.16923 28.8291C4.41662 29.0175 4.68003 29.2221 4.95778 29.4379C7.02948 31.0472 9.84383 33.2315 12.8205 33.92C15.2111 34.4719 17.896 34.3347 19.9955 34.0554C22.0857 33.7774 23.5872 33.3598 23.6255 33.3491C23.6257 33.3491 23.6258 33.3491 23.6259 33.349L23.6528 33.4453C23.7949 33.4046 23.9464 33.4251 24.0746 33.5009L4.16917 28.8291ZM4.16917 28.8291C3.82032 28.5638 3.27311 28.346 2.80629 28.1601L2.79856 28.1571L2.79852 28.157M4.16917 28.8291L2.79852 28.157M2.79852 28.157C2.69213 28.1148 2.56704 28.065 2.46082 28.0208C2.40768 27.9987 2.35995 27.9782 2.32202 27.9609C2.28727 27.9451 2.26532 27.934 2.25471 27.9279C2.22814 27.9043 2.21204 27.87 2.21204 27.826V26.4865C2.21368 26.4289 2.23034 26.311 2.26327 26.1327C2.29594 25.9559 2.34331 25.7263 2.4036 25.4508C2.52415 24.8998 2.69578 24.1678 2.90323 23.3119C3.3181 21.6004 3.87574 19.3958 4.45335 17.1591C5.60165 12.7126 6.82733 8.14524 7.16707 7.07172C7.17302 7.0663 7.181 7.0597 7.19048 7.05256C7.21063 7.03737 7.23267 7.02341 7.24903 7.01525C7.24924 7.01515 7.24944 7.01504 7.24965 7.01494L15.6367 3.03025L18.3223 6.6673C18.3225 6.6676 18.3227 6.66791 18.3229 6.66821C18.431 6.8231 18.4202 7.04025 18.2984 7.18207L18.2984 7.18213M2.79852 28.157L18.2984 7.18213M18.2984 7.18213L15.5949 10.335L15.5948 10.3351M18.2984 7.18213L15.5948 10.3351M15.5948 10.3351C15.452 10.5019 15.2188 10.5147 15.0785 10.3946L13.9873 9.34817C13.8324 9.19942 13.6158 9.15349 13.4181 9.1912L13.4369 9.28943L13.4186 9.19111C13.2125 9.22945 13.0347 9.37969 12.9437 9.56576L15.5948 10.3351ZM10.4184 10.993L10.4184 10.9929C10.2593 10.7785 10.2382 10.4873 10.3643 10.2515L10.4525 10.2987L10.3643 10.2516C10.4898 10.0162 10.7426 9.87231 11.006 9.90462L11.2747 9.93281C11.6871 9.92916 12.0949 9.87132 12.4096 9.79202C12.568 9.75214 12.7 9.70752 12.7961 9.66306C12.8443 9.6408 12.8811 9.61965 12.907 9.60065L10.4184 10.993ZM10.4184 10.993C10.6405 11.2917 10.8161 11.5347 10.9219 11.6827L11.4605 21.2073C11.1501 22.4591 10.8681 22.8584 10.7855 22.9529C10.5318 23.0484 10.3533 23.2992 10.3533 23.5908C10.3533 23.9618 10.6434 24.2693 11.0094 24.2693C11.3764 24.2693 11.6945 24.0176 11.9678 23.5809C12.2389 23.1479 12.4807 22.5113 12.6946 21.6822C14.8684 20.0028 16.8957 19.9597 18.4185 20.3663C19.9425 20.7731 20.9659 21.632 21.1228 21.77C22.4863 23.1948 22.5829 24.1384 22.5869 24.1869C22.5961 24.5498 22.8827 24.8479 23.2429 24.8479C23.609 24.8479 23.8991 24.5403 23.8991 24.1693C23.8991 24.0139 23.8454 22.8763 22.4432 21.2428C23.7767 19.5609 25.2834 18.6021 26.9311 18.3913C28.372 18.2066 29.7026 18.6182 30.6798 19.0824C31.1678 19.3142 31.566 19.5583 31.8434 19.7456C31.9821 19.8392 32.0905 19.9185 32.1647 19.9748C32.2018 20.003 32.2303 20.0254 32.2499 20.041L32.2723 20.0591L32.2783 20.064L32.28 20.0654L32.2803 20.0657L32.2805 20.0658L32.2806 20.0659C32.5626 20.3047 32.9773 20.2599 33.2058 19.9683C33.4322 19.6794 33.3921 19.2548 33.1133 19.0174L33.1132 19.0173M10.4184 10.993L33.1132 19.0173M33.1132 19.0173C33.0519 18.9652 32.3332 18.3637 31.1994 17.8291C30.0659 17.2946 28.5113 16.8241 26.7816 17.043M33.1132 19.0173L26.7816 17.043M26.7816 17.043C24.7822 17.2954 22.9916 18.4093 21.4505 20.3411C20.1393 19.4355 16.6358 17.5679 12.7081 20.0321L12.22 11.4036C12.22 11.4036 12.22 11.4035 12.22 11.4035L12.22 11.4032L12.1202 11.4088M26.7816 17.043L12.1857 11.2218C12.1516 11.2268 12.1179 11.2314 12.0846 11.2357C12.1049 11.2909 12.1171 11.3493 12.1202 11.4088M12.1202 11.4088L12.6115 20.0935L12.1202 11.4088ZM32.6231 35.065C27.9108 35.6084 24.1696 33.4407 24.1255 33.4149L2.32752 29.4236L2.33248 29.4256C2.5154 29.4986 2.72884 29.5837 2.92363 29.671C3.12247 29.76 3.29295 29.8473 3.39154 29.9222C3.63457 30.1071 3.89336 30.3081 4.16683 30.5206L4.16972 30.5228L4.16973 30.5228L4.17549 30.5273C6.31982 32.1934 9.27675 34.491 12.5347 35.2442C17.1176 36.3037 22.4804 35.048 23.7157 34.7272C24.5438 35.1675 27.3718 36.5112 31.0586 36.5112C31.6109 36.5112 32.1826 36.4811 32.7694 36.4132C33.1329 36.3713 33.3878 36.033 33.3487 35.6645L33.3487 35.6645C33.3093 35.2958 32.9871 35.02 32.6231 35.065ZM16.3609 1.77523C16.1759 1.5245 15.8463 1.43784 15.5656 1.57042L15.5654 1.57052L6.70849 5.77899C6.70827 5.77909 6.70805 5.77919 6.70783 5.77929C6.61038 5.82396 6.10603 6.07579 5.93787 6.60179C5.77929 7.09699 4.5202 11.7221 3.30171 16.3899C2.6922 18.7248 2.09241 21.0721 1.64495 22.9211C1.42124 23.8455 1.23545 24.646 1.10553 25.2584C1.04058 25.5646 0.989438 25.8244 0.954484 26.0297C0.919926 26.2326 0.9 26.3886 0.9 26.4833V27.8263C0.9 28.2862 1.09869 28.7137 1.44678 28.9972C1.62367 29.1415 1.88325 29.2471 2.32739 29.4236L16.3609 1.77523Z" fill="#232323" stroke="#232323" stroke-width="0.2"/>
<path d="M32.5878 30.6456L32.5885 30.6457C32.6244 30.6516 32.6611 30.6548 32.697 30.6548C33.0151 30.6548 33.2908 30.4166 33.3436 30.0874L33.3436 30.0873C33.402 29.7216 33.1649 29.3699 32.8049 29.3073L32.8049 29.3073C30.487 28.9054 30.0613 28.2464 30.0102 28.149C29.9671 27.8208 29.6954 27.5624 29.3601 27.5624C28.9941 27.5624 28.704 27.8699 28.704 28.2409C28.704 28.4607 28.7833 28.9123 29.3155 29.3844C29.8443 29.8533 30.8149 30.3382 32.5878 30.6456Z" fill="#232323" stroke="#232323" stroke-width="0.2"/>
<path d="M23.7732 8.19034H25.3676V9.72939C25.3676 10.1004 25.6577 10.4079 26.0237 10.4079H30.4721C30.8382 10.4079 31.1283 10.1004 31.1283 9.72939V8.19034H32.6967C32.9501 8.19034 33.1792 8.03982 33.2878 7.80626C33.3961 7.57339 33.3677 7.29666 33.213 7.09272L33.213 7.09272L28.7511 1.21194L28.7511 1.21192C28.4999 0.880986 27.9698 0.880986 27.7186 1.21192L27.7186 1.21194L23.257 7.09293C23.1022 7.29663 23.0738 7.57369 23.1821 7.80631C23.2907 8.03981 23.5195 8.19034 23.7732 8.19034ZM25.1216 6.83324L28.2348 2.73012L31.348 6.83324H30.4721C30.1061 6.83324 29.816 7.14082 29.816 7.51179V9.05111H26.6796V7.51179C26.6796 7.14082 26.3895 6.83324 26.0235 6.83324H25.1216Z" fill="#232323" stroke="#232323" stroke-width="0.2"/>
<path d="M30.4721 12.4071H26.0237C25.6576 12.4071 25.3675 12.7147 25.3675 13.0856C25.3675 13.4566 25.6576 13.7642 26.0237 13.7642H30.4721C30.8382 13.7642 31.1283 13.4566 31.1283 13.0856C31.1283 12.7147 30.8382 12.4071 30.4721 12.4071Z" fill="#232323" stroke="#232323" stroke-width="0.2"/>
<path d="M7.66561 28.0106L7.66557 28.0105C7.48146 27.6916 7.57952 27.2761 7.88979 27.0821L7.66561 28.0106ZM7.66561 28.0106C7.70643 28.0812 8.60039 29.6064 10.5099 30.9052C11.8267 31.801 13.834 32.7124 16.5468 32.7124C17.4498 32.7124 18.4306 32.6115 19.4889 32.3757L19.4889 32.3757M7.66561 28.0106L19.4889 32.3757M19.4889 32.3757C19.8455 32.2962 20.067 31.9336 19.9923 31.5709L19.9923 31.5709M19.4889 32.3757L19.9923 31.5709M19.9923 31.5709C19.9175 31.2076 19.5695 30.9681 19.2121 31.0491L19.2342 31.1466L19.2125 31.049C11.9968 32.6565 8.91573 27.5261 8.79161 27.3138M19.9923 31.5709L8.79161 27.3138M8.79161 27.3138C8.60543 26.9934 8.20157 26.8871 7.88982 27.0821L8.79161 27.3138Z" fill="#232323" stroke="#232323" stroke-width="0.2"/>
</svg>
