<svg width="36" height="35" viewBox="0 0 36 35" fill="none" xmlns="http://www.w3.org/2000/svg">
<path d="M12.5282 1.04167L12.5282 1.04167C18.5514 -0.140278 25.4339 0.526037 31.1118 3.49017C34.3522 5.18186 36.157 8.7414 35.6025 12.3478L33.1651 28.1968C32.5825 31.985 29.3206 34.7887 25.4819 34.7887H11.0699C7.23704 34.7887 3.97015 31.9909 3.38669 28.1968L0.949309 12.3478L1.09754 12.325L0.949309 12.3478C0.39473 8.7414 2.19961 5.18186 5.43998 3.49024C7.03065 2.65976 8.76356 1.98789 10.5905 1.49285C10.9405 1.39778 11.3006 1.60493 11.3954 1.95449C11.4902 2.30427 11.2835 2.66463 10.9337 2.75938M12.5282 1.04167L10.8945 2.61459M12.5282 1.04167C12.1727 1.11148 11.9409 1.45623 12.0106 1.81185L12.0106 1.81189M12.5282 1.04167L12.0106 1.81189M10.9337 2.75938L10.8945 2.61459M10.9337 2.75938C10.9337 2.75938 10.9337 2.75937 10.9337 2.75937L10.8945 2.61459M10.9337 2.75938C9.19694 3.22997 7.55296 3.86736 6.04729 4.65344L5.97787 4.52047M10.8945 2.61459C9.14786 3.08786 7.49369 3.72909 5.97787 4.52047M5.97787 4.52047L6.04729 4.65344C3.30444 6.0854 1.77713 9.09745 2.24634 12.1483L4.68372 27.9973C5.16788 31.1456 7.87891 33.4764 11.0699 33.4764H25.4819C28.6672 33.4764 31.383 31.1511 31.868 27.9973L34.3053 12.1483C34.7745 9.09738 33.2472 6.0854 30.5044 4.65345C25.1187 1.84185 18.5478 1.19774 12.7809 2.32942M5.97787 4.52047L12.7809 2.32942M12.0106 1.81189C12.0805 2.16749 12.4252 2.39914 12.7808 2.32942L12.7809 2.32942M12.0106 1.81189L12.7809 2.32942" fill="#232323" stroke="#232323" stroke-width="0.3"/>
<path d="M5.94912 21.3592L5.94912 21.3592L6.91718 27.654L6.91718 27.654C7.23468 29.7179 8.98177 31.2168 11.07 31.2168H25.4817C27.5699 31.2168 29.317 29.7179 29.6345 27.654L30.6026 21.3592L30.4543 21.3364L30.6026 21.3592C30.9249 19.2633 29.3016 17.3747 27.184 17.3747H22.8625C22.5002 17.3747 22.2064 17.6685 22.2064 18.0308C22.2064 18.3932 22.5002 18.687 22.8625 18.687H27.184C28.4999 18.687 29.5053 19.8608 29.3056 21.1597L28.3375 27.4546C28.1191 28.8747 26.9187 29.9045 25.4817 29.9045H11.0701C9.63313 29.9045 8.43267 28.8747 8.21421 27.4546L7.24615 21.1598L7.09815 21.1825L7.24615 21.1597C7.04615 19.859 8.05353 18.687 9.36772 18.687H20.838C21.2004 18.687 21.4942 18.3932 21.4942 18.0308C21.4942 17.6685 21.2004 17.3747 20.838 17.3747H9.36772C7.2472 17.3747 5.6273 19.2663 5.94912 21.3592Z" fill="#232323" stroke="#232323" stroke-width="0.3"/>
<path d="M12.2398 22.5027V23.5365C12.2398 23.8989 12.5336 24.1926 12.8959 24.1926C13.2583 24.1926 13.5521 23.8989 13.5521 23.5365V22.5027C13.5521 22.1404 13.2583 21.8466 12.8959 21.8466C12.5336 21.8466 12.2398 22.1404 12.2398 22.5027Z" fill="#232323" stroke="#232323" stroke-width="0.3"/>
<path d="M24.3119 23.5366V22.5028C24.3119 22.1404 24.0181 21.8466 23.6558 21.8466C23.2934 21.8466 22.9997 22.1404 22.9997 22.5028V23.5366C22.9997 23.8989 23.2934 24.1927 23.6558 24.1927C24.0181 24.1927 24.3119 23.8989 24.3119 23.5366Z" fill="#232323" stroke="#232323" stroke-width="0.3"/>
<path d="M19.3127 23.1732L19.1996 23.0747C19.4377 22.8015 19.8522 22.773 20.1253 23.0112C20.3984 23.2493 20.427 23.6637 20.1888 23.937L20.0757 23.8384L20.1888 23.937C19.7064 24.4905 19.0091 24.8081 18.2758 24.8081C17.5425 24.8081 16.8453 24.4905 16.3628 23.9369L16.3628 23.9369C16.1248 23.6637 16.1532 23.2492 16.4264 23.0111C16.6996 22.7731 17.114 22.8014 17.3521 23.0747L19.3127 23.1732ZM19.3127 23.1732L19.1996 23.0747C18.9663 23.3425 18.6295 23.4958 18.2759 23.4958M19.3127 23.1732L18.2759 23.4958M18.2759 23.4958C17.9222 23.4958 17.5855 23.3425 17.3522 23.0748L18.2759 23.4958Z" fill="#232323" stroke="#232323" stroke-width="0.3"/>
<path d="M19.6062 9.58685L19.6062 9.58687L20.768 14.0655H23.9478C24.6545 14.0655 25.2776 13.6147 25.4987 12.9434L26.9199 8.62751C27.2005 7.77558 26.7357 6.85074 25.8837 6.56661C25.4116 6.40927 24.9317 6.2682 24.445 6.14184L24.0663 7.44903L24.0663 7.44904C23.9649 7.79863 23.5999 7.99701 23.2534 7.8966L23.2952 7.75253L23.2534 7.8966C22.9054 7.79574 22.705 7.43189 22.8059 7.08379L23.164 5.84776C21.7975 5.57471 20.3832 5.41829 18.932 5.38229V6.78933C18.932 7.15169 18.6382 7.44546 18.2759 7.44546C17.9135 7.44546 17.6197 7.15169 17.6197 6.78933V5.38215C16.1686 5.41815 14.7543 5.57452 13.3877 5.84762L13.7459 7.08364C13.7459 7.08365 13.7459 7.08365 13.7459 7.08366C13.8467 7.43166 13.6464 7.79558 13.2983 7.89646L19.6062 9.58685ZM19.6062 9.58685C19.4489 8.98092 18.9019 8.5577 18.2759 8.5577C17.6498 8.5577 17.1029 8.98092 16.9456 9.58685L16.9456 9.58687M19.6062 9.58685L16.9456 9.58687M16.9456 9.58687L15.7837 14.0654H12.6039C11.8971 14.0654 11.2742 13.6147 11.0531 12.9434L9.63174 8.62737L9.48927 8.67429M16.9456 9.58687L9.48927 8.67429M9.48927 8.67429L9.63174 8.62737C9.35119 7.77552 9.81606 6.85067 10.6681 6.56654L10.6681 6.56654M9.48927 8.67429L10.6681 6.56654M10.6681 6.56654C11.14 6.40914 11.62 6.26812 12.1068 6.14172M10.6681 6.56654L12.1068 6.14172M12.1068 6.14172L12.4855 7.44887C12.4855 7.44888 12.4855 7.44888 12.4855 7.44889C12.5867 7.7982 12.9515 7.99703 13.2983 7.89647L12.1068 6.14172ZM8.38535 9.03791L8.38535 9.03791L9.8067 13.3538C10.2052 14.5642 11.3296 15.3777 12.6039 15.3777H23.9478C25.2222 15.3777 26.3465 14.5642 26.7451 13.3538L28.1663 9.03791C28.6726 7.50076 27.8349 5.83398 26.2988 5.32179C21.2559 3.64021 15.3003 3.63865 10.253 5.32179C8.71689 5.83398 7.87913 7.50069 8.38535 9.03791ZM18.336 9.91654L19.4124 14.0655H17.1394L18.2159 9.91648C18.2207 9.89776 18.2293 9.88797 18.2376 9.882C18.2471 9.87517 18.2605 9.87055 18.2759 9.87055C18.2912 9.87054 18.3046 9.87516 18.3142 9.88199C18.3225 9.88795 18.3311 9.89776 18.336 9.91654Z" fill="#232323" stroke="#232323" stroke-width="0.3"/>
</svg>
