<svg width="36" height="36" viewBox="0 0 36 36" fill="none" xmlns="http://www.w3.org/2000/svg">
<path d="M34.1886 15.3746C34.5776 15.2989 34.8308 14.9107 34.7588 14.5105C34.4742 12.9291 33.9841 11.3995 33.3002 9.95725C34.2818 8.76897 35.0303 7.32642 35.0303 5.68982C35.0303 3.09707 33.175 1.05741 30.7979 1.05741C29.8572 1.05741 29.0016 1.3709 28.2902 1.97035C27.7103 1.48254 26.8876 1.05741 25.7828 1.05741C25.2746 1.05741 24.7898 1.15079 24.3418 1.32314C22.325 0.481476 20.1919 0.0546994 17.9986 0.0544922H17.9969C13.4428 0.0544922 9.16152 1.8994 5.9421 5.24843C2.72234 8.59794 0.949601 13.0513 0.95 17.7877C0.9504 22.524 2.72394 26.9777 5.94422 30.3277C9.16457 33.6778 13.4468 35.5235 18.0015 35.5239H18.0031C26.216 35.5239 33.2637 29.4368 34.7623 21.0538C34.8339 20.6535 34.5802 20.2657 34.1911 20.1904L34.1816 20.2395L34.1911 20.1904C33.8019 20.1152 33.4298 20.3827 33.3582 20.7836C31.9845 28.4679 25.5259 34.0423 18.0031 34.0423H18.0017C9.38954 34.0415 2.37892 26.7515 2.37813 17.7876C2.37773 13.4455 4.00273 9.36416 6.95331 6.29467C9.90362 3.22559 13.8251 1.53611 17.997 1.53611H17.9985C19.6604 1.53625 21.2839 1.80347 22.8402 2.33166C22.0405 3.17023 21.5504 4.35654 21.5504 5.68982C21.5504 8.04041 23.1002 9.99096 24.6718 11.3657C26.245 12.7417 27.8506 13.55 27.983 13.6156L27.983 13.6156C28.0791 13.6631 28.1841 13.6878 28.2905 13.6878C28.2921 13.6878 28.2936 13.6878 28.2952 13.6878C28.3007 13.6878 28.3064 13.6877 28.3121 13.6875L28.3389 13.6867L28.339 13.6867C28.4385 13.6835 28.5363 13.6588 28.6259 13.6143L28.6037 13.5695L28.6259 13.6142C28.7664 13.5445 30.5747 12.6301 32.2335 11.0834C32.7487 12.2646 33.1251 13.5051 33.3549 14.7825C33.4187 15.1374 33.7176 15.3875 34.056 15.3875C34.0997 15.3875 34.1441 15.3833 34.1886 15.3746ZM34.1886 15.3746L34.179 15.3255L34.1886 15.3746C34.1886 15.3746 34.1886 15.3746 34.1886 15.3746ZM27.7907 3.45236L27.7524 3.48455C27.2237 2.85598 26.5618 2.5391 25.7828 2.5391C24.2151 2.5391 22.9785 3.91711 22.9785 5.68989C22.9785 7.32117 24.0264 8.77486 25.2255 9.90305C26.4064 11.014 27.7249 11.8008 28.302 12.1205C28.8756 11.8006 30.1882 11.0123 31.364 9.90065C32.5582 8.77171 33.6021 7.31809 33.6021 5.68989C33.6021 3.91711 32.3655 2.5391 30.7978 2.5391C30.0294 2.5391 29.3752 2.84749 28.8507 3.4589C28.8507 3.45891 28.8507 3.45892 28.8507 3.45894L27.7907 3.45236ZM27.7907 3.45236L27.7524 3.48455C27.8893 3.64723 28.0901 3.73836 28.2981 3.73558M27.7907 3.45236L28.2981 3.73558M28.2981 3.73558C28.2981 3.73558 28.298 3.73558 28.298 3.73558L28.2976 3.68558L28.2981 3.73558ZM28.2981 3.73558C28.5037 3.73397 28.6998 3.63796 28.8337 3.47808M28.2981 3.73558L28.8337 3.47808M28.8337 3.47808C28.8334 3.47841 28.8331 3.47873 28.8328 3.47906L28.7961 3.44504L28.8345 3.47706C28.8342 3.4774 28.834 3.47774 28.8337 3.47808Z" fill="#232323" stroke="#232323" stroke-width="0.1"/>
<path d="M34.8599 17.5915L34.86 17.5918C34.9863 17.9125 34.8796 18.296 34.5974 18.49L34.5974 18.49C34.351 18.6594 34.0253 18.6544 33.7842 18.4762C33.5415 18.2969 33.4322 17.9672 33.5143 17.6717C33.5961 17.3769 33.8509 17.158 34.1491 17.1356L34.8599 17.5915ZM34.8599 17.5915C34.7435 17.3009 34.4546 17.1126 34.1491 17.1356L34.8599 17.5915Z" fill="#232323" stroke="#232323" stroke-width="0.1"/>
<path d="M22.1813 15.7137L22.1813 15.7137L23.2974 14.5526L24.4134 15.7137C24.6924 16.004 25.1455 16.004 25.4247 15.7137L25.4247 15.7137C25.7026 15.4246 25.7026 14.9566 25.4247 14.6675L23.8031 12.9804C23.6694 12.8412 23.4875 12.7627 23.2975 12.7627C23.1074 12.7627 22.9257 12.8413 22.7919 12.9804L22.7919 12.9804L21.1702 14.6675C20.8922 14.9566 20.8922 15.4246 21.1702 15.7138L21.1702 15.7138C21.3094 15.8587 21.4925 15.9315 21.6758 15.9315H21.6758C21.859 15.9313 22.0419 15.8585 22.1813 15.7137Z" fill="#232323" stroke="#232323" stroke-width="0.1"/>
<path d="M14.7904 14.6674L14.7905 14.6674C15.0684 14.9566 15.0684 15.4246 14.7905 15.7137C14.7905 15.7137 14.7904 15.7137 14.7904 15.7138L14.7544 15.6791C14.6248 15.814 14.4548 15.8814 14.2848 15.8814C14.1149 15.8814 13.945 15.814 13.8153 15.6791L14.7904 14.6674ZM14.7904 14.6674L13.1687 12.9804C12.8897 12.6902 12.4365 12.6902 12.1575 12.9804L10.5358 14.6674C10.2579 14.9566 10.2579 15.4246 10.5358 15.7137L10.5358 15.7138C10.8148 16.004 11.268 16.004 11.547 15.7138L12.6631 14.5527L14.7904 14.6674Z" fill="#232323" stroke="#232323" stroke-width="0.1"/>
<path d="M27.5244 22.6309L27.5243 22.631L27.519 22.6485C26.9084 24.7246 25.6501 26.5901 23.9738 27.9031L23.943 27.8637L23.9738 27.9031C23.6035 28.1931 23.2112 28.4579 22.8074 28.6904C22.8072 28.6906 22.807 28.6907 22.8068 28.6908L22.8049 28.6919L22.8041 28.6924L22.8034 28.6928L22.8031 28.6929L22.78 28.6486C21.3199 29.4898 19.6601 29.9345 17.9802 29.9345C16.3003 29.9345 14.6405 29.4899 13.1804 28.6486L27.5244 22.6309ZM27.5244 22.6309C27.8094 21.6556 27.9539 20.6395 27.9539 19.6109V18.7841C27.9539 18.3768 27.636 18.0433 27.2398 18.0433L8.72058 18.0433L8.72056 18.0433M27.5244 22.6309L8.72056 18.0433M8.72056 18.0433C8.32436 18.0434 8.00652 18.3769 8.00652 18.7842V19.611M8.72056 18.0433L8.00652 19.611M8.00652 19.611C8.00652 20.6395 8.15094 21.6555 8.43597 22.6309L8.00652 19.611ZM14.5863 27.7737C15.6512 28.2526 16.8098 28.503 17.9802 28.503C19.1502 28.503 20.3086 28.2527 21.3734 27.7741L14.5863 27.7737ZM14.5863 27.7737C15.444 26.777 16.665 26.2015 17.9802 26.2015C19.1984 26.2015 20.3444 26.6951 21.2074 27.5921L14.5863 27.7737ZM8.4414 22.6487C9.20077 25.2313 10.8733 27.3768 13.1532 28.6906L8.44125 22.6482C8.4413 22.6484 8.44135 22.6485 8.4414 22.6487ZM22.2184 26.5457L22.2184 26.5457C21.0861 25.3686 19.5808 24.7199 17.9801 24.7199C16.1365 24.7199 14.4345 25.5808 13.3036 27.0539C11.9148 26.104 10.8068 24.7356 10.1426 23.1573H25.8179C25.2299 24.5559 24.292 25.7976 23.1134 26.7206C22.965 26.8369 22.8125 26.9483 22.6567 27.0545C22.5201 26.8773 22.3738 26.7073 22.2184 26.5457ZM9.43464 19.525H26.5258V19.611C26.5258 20.3103 26.448 21.0024 26.2944 21.6753H9.66601C9.51236 21.0023 9.43464 20.3102 9.43464 19.611V19.525Z" fill="#232323" stroke="#232323" stroke-width="0.1"/>
</svg>
