<svg width="30" height="36" viewBox="0 0 30 36" fill="none" xmlns="http://www.w3.org/2000/svg">
<path d="M29.1336 30.4451L29.1336 30.4451C29.2535 30.5994 29.3072 30.7949 29.2829 30.9886C29.2322 31.3921 28.8641 31.6781 28.4607 31.6275L24.3969 31.1199L23.3976 34.6162C23.3976 34.6162 23.3976 34.6162 23.3976 34.6162C23.3214 34.8827 23.1021 35.0839 22.83 35.1367L22.8293 35.1368C22.7836 35.1455 22.737 35.15 22.69 35.15H22.6898C22.462 35.1496 22.2473 35.0439 22.1082 34.8636L18.4663 30.181C17.536 31.0339 16.342 31.5467 15.0795 31.6324L15.0693 31.6331L15.0592 31.6324C13.7966 31.5467 12.6026 31.0339 11.6723 30.1811L8.03015 34.8658L8.03012 34.8658C7.89053 35.0453 7.67584 35.1502 7.4485 35.15M29.1336 30.4451L7.44862 35M29.1336 30.4451L25.6982 26.0285M29.1336 30.4451L25.6982 26.0285M7.4485 35.15L7.44862 35M7.4485 35.15C7.44854 35.15 7.44858 35.15 7.44862 35.15V35M7.4485 35.15C7.40157 35.15 7.35496 35.1455 7.3093 35.1368L7.30866 35.1367C7.03657 35.0839 6.81717 34.8827 6.74105 34.6162L6.88528 34.575M7.44862 35C7.41125 35 7.37395 34.9964 7.33724 34.9894C7.12057 34.9474 6.94588 34.7872 6.88528 34.575M6.88528 34.575L5.85062 30.9546L6.88528 34.575ZM25.6982 26.0285C26.7996 25.6497 27.7482 24.9185 28.395 23.9451L28.3953 23.9453L28.3999 23.9372C28.839 23.1782 28.9558 22.3409 28.9191 21.4851C28.8826 20.633 28.6932 19.7507 28.5102 18.8986L28.5094 18.8947L28.5095 18.8947L28.5082 18.8895C28.2889 18.0221 28.1575 17.1349 28.116 16.2414C28.1574 15.347 28.2887 14.459 28.5082 13.591L28.5083 13.591L28.5094 13.5855L28.5151 13.5587C28.6954 12.7133 28.8818 11.8392 28.9182 10.9952C28.9552 10.14 28.8391 9.30341 28.3999 8.54555C27.9461 7.76148 27.2648 7.22947 26.4905 6.82716C25.7192 6.42637 24.8458 6.14953 24.0019 5.88206L23.9998 5.88139L23.9998 5.88129L23.9943 5.87977C23.1634 5.65084 22.3586 5.33595 21.5931 4.9402C20.8994 4.48962 20.2552 3.96714 19.6712 3.38137L19.6712 3.38129L19.667 3.37733L19.6666 3.37699C19.04 2.79542 18.3601 2.16433 17.6071 1.68002C16.8521 1.19444 16.0143 0.85 15.0693 0.85C14.1243 0.85 13.2865 1.19444 12.5315 1.67994C11.7795 2.16344 11.1004 2.79322 10.4743 3.37374L10.4711 3.3767L10.471 3.37661L10.4668 3.38081C9.88304 3.96671 9.23904 4.48939 8.54558 4.94018C7.78012 5.33511 6.9756 5.64919 6.14502 5.87739L6.14499 5.87729L6.13944 5.87905L6.13733 5.87971C5.29343 6.14719 4.41999 6.42403 3.64869 6.82481C2.87444 7.22712 2.19309 7.75914 1.73928 8.54321L1.73927 8.54323C1.3002 9.30218 1.18344 10.1395 1.22009 10.9953C1.25658 11.8474 1.44602 12.7297 1.62898 13.5818L1.62983 13.5857L1.62973 13.5857L1.63105 13.5909C1.85026 14.459 1.98145 15.347 2.0226 16.2414C1.98123 17.1358 1.8499 18.0238 1.63047 18.8918L1.63037 18.8918L1.6292 18.8973L1.62348 18.9241C1.44322 19.7694 1.25684 20.6436 1.22038 21.4875C1.18344 22.3428 1.29958 23.1794 1.73873 23.9373L1.73848 23.9374L1.74363 23.9451C2.39133 24.9188 3.34091 25.6498 4.44318 26.028L1.00509 30.4445L1.00503 30.4445C0.755458 30.7655 0.813341 31.2281 1.13441 31.4776C1.28863 31.5975 1.48407 31.6512 1.67783 31.6269C1.67786 31.6269 1.67788 31.6269 1.6779 31.6269L5.7417 31.1194L6.74104 34.6162L25.6982 26.0285ZM9.28847 26.2706L9.28816 26.2711C10.0776 26.7769 10.8104 27.366 11.4738 28.0286C12.0784 28.5891 12.6551 29.1229 13.2474 29.5182C13.8387 29.9128 14.4329 30.1603 15.0693 30.1603C15.7057 30.1603 16.2999 29.9128 16.8913 29.5182C17.4837 29.1229 18.0605 28.5891 18.6654 28.0286C19.3286 27.3661 20.0612 26.7769 20.8504 26.2711L20.8615 26.264L20.8618 26.2645C21.7202 25.8152 22.6235 25.4578 23.557 25.1984C24.3335 24.952 25.0736 24.7165 25.7003 24.4065C26.3265 24.0968 26.8238 23.7201 27.1255 23.2008L9.28847 26.2706ZM9.28847 26.2706L9.27681 26.2645M9.28847 26.2706L9.27681 26.2645M9.27681 26.2645C8.41832 25.8151 7.51464 25.4578 6.58101 25.1984C5.80454 24.952 5.06387 24.7165 4.43685 24.4065C3.81024 24.0968 3.31295 23.72 3.01249 23.2007C2.727 22.707 2.6525 22.1066 2.69609 21.423C2.73968 20.7393 2.8997 19.9909 3.06804 19.2065C3.3119 18.2374 3.45503 17.2458 3.49505 16.2474L3.49553 16.2474M9.27681 26.2645L3.49553 16.2474M3.49553 16.2474L3.49505 16.2354M3.49553 16.2474L3.49505 16.2354M3.49505 16.2354C3.45526 15.2369 3.31235 14.2454 3.06863 13.2763C2.90029 12.4922 2.74026 11.7439 2.69668 11.0602C2.65309 10.3766 2.72757 9.77616 3.01302 9.28211C3.3147 8.76275 3.8121 8.38596 4.43834 8.07624C5.06506 7.76629 5.80516 7.53079 6.5816 7.28432C7.51509 7.02493 8.41847 6.66758 9.27681 6.21824L9.27708 6.21875M3.49505 16.2354L9.27708 6.21875M9.27708 6.21875L9.28818 6.21164M9.27708 6.21875L9.28818 6.21164M9.28818 6.21164C10.0774 5.70586 10.81 5.11664 11.4732 4.45417C12.0781 3.89363 12.6549 3.35984 13.2473 2.96459C13.8387 2.56997 14.4329 2.32241 15.0693 2.32241C15.7057 2.32241 16.2999 2.56997 16.8912 2.96458C17.4835 3.35984 18.0602 3.89364 18.6648 4.45418C19.3283 5.11673 20.061 5.70588 20.8505 6.21165L20.8502 6.21213M9.28818 6.21164L20.8502 6.21213M20.8502 6.21213L20.8618 6.21824M20.8502 6.21213L20.8618 6.21824M20.8618 6.21824C21.7203 6.66765 22.624 7.025 23.5576 7.28431C24.3341 7.5308 25.0748 7.7663 25.7018 8.07626C26.3284 8.38601 26.8257 8.76279 27.1261 9.28203C27.4116 9.77578 27.4861 10.3761 27.4425 11.0598C27.3989 11.7435 27.2389 12.4919 27.0706 13.2763C26.8267 14.2453 26.6836 15.2369 26.6436 16.2354L26.6431 16.2354M20.8618 6.21824L26.6431 16.2354M26.6431 16.2354L26.6436 16.2474M26.6431 16.2354L26.6436 16.2474M26.6436 16.2474C26.6834 17.2458 26.8263 18.2374 27.07 19.2065M26.6436 16.2474L27.07 19.2065M27.07 19.2065C27.2383 19.9906 27.3984 20.7388 27.4419 21.4225C27.4855 22.1061 27.4111 22.7065 27.1257 23.2005L27.07 19.2065ZM7.75786 32.817L6.98378 30.1079L6.98376 30.1078C6.8839 29.7591 6.54488 29.5352 6.18498 29.58L6.18491 29.58L3.26153 29.9454L5.917 26.5318L6.14138 26.6036L6.14134 26.6037L6.14731 26.6053C6.9771 26.8337 7.78083 27.1478 8.54558 27.5426C9.23927 27.9932 9.88343 28.5156 10.4675 29.1014L10.4674 29.1015L10.4719 29.1056L10.5724 29.1985L7.75786 32.817ZM23.9566 29.58L23.9566 29.58C23.5967 29.5352 23.2577 29.7591 23.1578 30.1078L22.381 32.8172L19.5668 29.1991L19.6673 29.1062L19.6674 29.1063L19.6718 29.1019C20.2556 28.516 20.8996 27.9934 21.593 27.5426C22.3585 27.1476 23.163 26.8336 23.9936 26.6054L23.9936 26.6055L23.9996 26.6036L24.224 26.5318L26.88 29.9454L23.9566 29.58Z" fill="#27AE60" stroke="#27AE60" stroke-width="0.3"/>
<path d="M15.0695 5.5397H15.0693C9.1589 5.5397 4.36758 10.331 4.36758 16.2414C4.36758 22.1518 9.1589 26.9431 15.0693 26.9431C20.9797 26.9431 25.771 22.1518 25.771 16.2414V16.2412C25.7642 10.3338 20.977 5.54661 15.0695 5.5397ZM15.0691 25.4707C9.97203 25.4706 5.83999 21.3385 5.83999 16.2414C5.83999 11.1442 9.97213 7.01211 15.0693 7.01211C20.1664 7.01211 24.2985 11.1441 24.2986 16.2412C24.2926 21.3361 20.1639 25.4647 15.0691 25.4707Z" fill="#27AE60" stroke="#27AE60" stroke-width="0.3"/>
<path d="M20.8856 13.1604H20.8857C21.3084 13.1605 21.7055 13.3628 21.9542 13.7045C22.3841 14.295 22.2538 15.1222 21.6633 15.552L21.6632 15.552L18.8461 17.5983L19.9216 20.9095C19.9217 20.9098 19.9218 20.9101 19.9219 20.9104C20.1051 21.4553 19.9102 22.056 19.442 22.3896C18.98 22.732 18.3483 22.7318 17.8864 22.3891C17.8861 22.3889 17.8859 22.3888 17.8857 22.3886L15.0693 20.3432L12.2505 22.3889C11.9079 22.6379 11.4669 22.7078 11.0641 22.5769C11.0641 22.5769 11.0641 22.5769 11.0641 22.5769L11.1105 22.4342C10.4948 22.2341 10.1578 21.5727 10.358 20.9568L20.8856 13.1604ZM20.8856 13.1604H17.4057L16.3257 9.84803L16.3256 9.8477M20.8856 13.1604L16.3256 9.8477M10.2153 20.9105L11.2913 17.5983L8.47425 15.552L8.47412 15.5519C8.13205 15.3029 7.92971 14.9053 7.92996 14.4821L10.2153 20.9105ZM10.2153 20.9105C10.2153 20.9105 10.2153 20.9105 10.2153 20.9105L10.2153 20.9105ZM16.3256 9.8477C16.0976 9.15383 15.3502 8.77629 14.6564 9.00432C14.2573 9.13549 13.9442 9.44857 13.813 9.8477L13.8129 9.84814M16.3256 9.8477L13.8129 9.84814M13.8129 9.84814L12.7357 13.1604M13.8129 9.84814L12.7357 13.1604M12.7357 13.1604H9.25302C9.253 13.1604 9.25298 13.1604 9.25296 13.1604C8.52263 13.1601 7.9303 13.7517 7.92996 14.4821L12.7357 13.1604ZM17.5476 16.7221L17.5475 16.7221C17.2893 16.9097 17.1814 17.2424 17.2803 17.5459L18.3792 20.9276L15.5021 18.8377L15.5021 18.8377C15.2442 18.6504 14.895 18.6504 14.6371 18.8377L14.637 18.8377L11.7599 20.9277L12.8583 17.5457C12.8583 17.5457 12.8583 17.5457 12.8583 17.5457C12.9569 17.2424 12.849 16.9102 12.5911 16.7227L12.5911 16.7227L9.7146 14.6328H13.2702C13.5892 14.6328 13.8718 14.4274 13.9704 14.1241L15.0693 10.7421L16.1682 14.1235C16.1682 14.1235 16.1682 14.1235 16.1682 14.1235C16.2668 14.4268 16.5494 14.6322 16.8683 14.6322C16.8684 14.6322 16.8684 14.6322 16.8684 14.6322L20.424 14.6327L17.5476 16.7221Z" fill="#27AE60" stroke="#27AE60" stroke-width="0.3"/>
</svg>
