<svg width="35" height="36" viewBox="0 0 35 36" fill="none" xmlns="http://www.w3.org/2000/svg">
<path d="M24.6871 7.20221V7.16004L24.5554 7.20391C24.5071 7.22001 23.9728 7.40474 23.4489 7.85308C22.923 8.30315 22.4045 9.02216 22.4045 10.1C22.4045 10.4678 22.7027 10.7659 23.0704 10.7659C23.4369 10.7659 23.7342 10.4699 23.7363 10.1039C23.7926 9.36763 24.2823 8.73551 24.9814 8.497C25.3305 8.37928 25.5182 8.00086 25.4005 7.65168C25.2976 7.34613 24.995 7.16418 24.6871 7.20221Z" fill="#27AE60" stroke="#27AE60" stroke-width="0.2"/>
<path d="M34.4886 4.15898L34.4886 4.15811C34.4898 3.05658 33.8071 2.07001 32.7759 1.68284C31.7447 1.29567 30.5814 1.58924 29.8574 2.41938C29.1512 3.22909 29.0075 4.38337 29.4868 5.33894L28.6155 6.08157C26.7978 4.59663 24.2078 4.51618 22.3013 5.88584L21.6541 5.31003C22.3969 4.0429 22.0863 2.41422 20.9169 1.51106C19.7251 0.590601 18.0297 0.723553 16.9959 1.81853C15.9622 2.9135 15.927 4.61381 16.9145 5.75067C17.8844 6.86733 19.5307 7.08309 20.7534 6.26564L21.3245 6.77686C18.1325 10.6591 21.8278 16.4491 26.7375 15.0709L27.3779 15.9483C26.5799 17.4615 26.8998 19.3265 28.1639 20.487C29.4438 21.6619 31.3606 21.8109 32.8066 20.8478C34.2526 19.8848 34.854 18.0587 34.2632 16.4249C33.6791 14.8093 32.0786 13.7947 30.3726 13.9506L29.6495 12.9557C30.8505 11.149 30.8009 8.78554 29.5273 7.03116L30.3542 6.32176C31.1474 6.86122 32.1733 6.93002 33.0336 6.49626C33.9176 6.05058 34.4789 5.14886 34.4886 4.15898ZM31.8431 2.84323L31.8439 2.84322C32.3848 2.83316 32.8766 3.15547 33.0833 3.65543C33.29 4.1554 33.1694 4.73094 32.7793 5.10579C32.4285 5.44289 31.9241 5.55579 31.4688 5.4104L32.0085 4.953L32.0089 4.9527C32.2884 4.71365 32.3212 4.29328 32.0821 4.01378C31.8433 3.7345 31.4234 3.70153 31.1439 3.93996C31.1436 3.94015 31.1434 3.94034 31.1432 3.94053L30.5801 4.40589C30.5084 4.053 30.5857 3.68342 30.7982 3.38713C31.04 3.0498 31.4281 2.84781 31.8431 2.84323ZM19.2342 4.91671L19.6867 5.32849C19.2279 5.5066 18.709 5.46399 18.283 5.20677C17.8144 4.92392 17.5233 4.42093 17.5113 3.8738C17.5092 3.222 17.9032 2.6342 18.507 2.38855C19.111 2.1428 19.8038 2.28884 20.2573 2.75752C20.6777 3.19198 20.8141 3.82282 20.6203 4.38708L20.1164 3.92051L20.1166 3.92034L20.1112 3.91601C19.8336 3.6924 19.4291 3.72708 19.1936 3.9947C18.9581 4.26232 18.9751 4.66793 19.2322 4.91487L19.2322 4.9149L19.2342 4.91671ZM21.4727 10.1001L21.4727 10.0999C21.47 8.48648 22.4707 7.0415 23.982 6.47657C25.4933 5.91164 27.1964 6.34586 28.2528 7.56539C29.2778 8.74884 29.484 10.4297 28.7873 11.8214C28.1698 11.1823 27.1662 11.0867 26.4361 11.6192C25.7062 12.1516 25.4904 13.1361 25.9099 13.9192C24.8247 14.083 23.7182 13.7771 22.8698 13.0739C21.9846 12.3401 21.4724 11.2499 21.4727 10.1001ZM29.0301 14.3726C28.7443 14.5108 28.4777 14.6855 28.2368 14.8922L27.113 13.3296L27.1125 13.329C27.0133 13.1931 26.9941 13.0145 27.0622 12.8606C27.1303 12.7068 27.2754 12.6009 27.4427 12.5829C27.6099 12.5649 27.7741 12.6375 27.8733 12.7733C27.8734 12.7734 27.8734 12.7734 27.8734 12.7735L29.0301 14.3726ZM33.1568 17.74C33.1567 19.0911 32.0613 20.1864 30.7102 20.1864C29.359 20.1864 28.2636 19.091 28.2636 17.7398C28.2636 16.3886 29.359 15.2932 30.7102 15.2932C32.0602 15.2963 33.1538 16.39 33.1568 17.74Z" fill="#27AE60" stroke="#27AE60" stroke-width="0.2"/>
<mask id="path-3-outside-1_2:166" maskUnits="userSpaceOnUse" x="0" y="0.0474854" width="26" height="36" fill="black">
<rect fill="white" y="0.0474854" width="26" height="36"/>
<path d="M23.6363 21.4182H22.3064C22.7024 20.5882 22.473 19.5948 21.7533 19.0223C21.0336 18.4498 20.014 18.4498 19.2943 19.0223C18.5746 19.5948 18.3453 20.5882 18.7412 21.4182H17.4113C16.4737 21.3495 15.6579 22.0538 15.5891 22.9915C15.5204 23.9291 16.2247 24.7449 17.1623 24.8137C15.5857 26.5445 13.1712 27.2442 10.9134 26.6248C8.65563 26.0053 6.93634 24.1714 6.46367 21.8784C5.99101 19.5853 6.84493 17.221 8.67372 15.7592C8.75664 15.764 8.83979 15.764 8.92271 15.7592C9.53494 15.7592 10.1307 15.5606 10.6204 15.1933L11.3165 15.8837C11.2133 16.2714 11.3231 16.6848 11.6051 16.9702L12.403 17.7738C12.6153 17.9863 12.9034 18.1057 13.2038 18.1057C13.5042 18.1057 13.7923 17.9863 14.0046 17.7738L14.4064 17.372L15.5778 18.5887C15.7901 18.8012 16.0782 18.9206 16.3786 18.9206C16.6789 18.9206 16.967 18.8012 17.1793 18.5887L18.7752 16.9872C18.9877 16.7749 19.1071 16.4868 19.1071 16.1864C19.1071 15.886 18.9877 15.598 18.7752 15.3857L17.5755 14.1859L17.9772 13.7898C18.1898 13.5775 18.3092 13.2894 18.3092 12.989C18.3092 12.6886 18.1898 12.4006 17.9772 12.1883L17.1793 11.3847C16.8927 11.1007 16.4766 10.9907 16.0871 11.0961L7.97199 2.96963C7.7597 2.7571 7.47162 2.63769 7.17123 2.63769C6.87083 2.63769 6.58276 2.7571 6.37047 2.96963L4.77461 1.37943C4.56231 1.1669 4.27424 1.04749 3.97385 1.04749C3.67345 1.04749 3.38538 1.1669 3.17309 1.37943L1.56591 2.97529C1.35338 3.18759 1.23396 3.47566 1.23396 3.77605C1.23396 4.07645 1.35338 4.36452 1.56591 4.57681L3.17309 6.17833C2.96056 6.39063 2.84114 6.6787 2.84114 6.97909C2.84114 7.27949 2.96056 7.56756 3.17309 7.77985L6.65908 11.2602C6.34088 11.6733 6.14483 12.1674 6.09317 12.6863C3.59261 14.924 2.35457 18.2498 2.78317 21.578C3.21178 24.9062 5.25203 27.8097 8.23797 29.341H5.52727C3.65201 29.341 2.13182 30.8612 2.13182 32.7364V33.8682H1.56591C1.25337 33.8682 1 34.1216 1 34.4341C1 34.7467 1.25337 35 1.56591 35H24.2022C24.5148 35 24.7681 34.7467 24.7681 34.4341C24.7681 34.1216 24.5148 33.8682 24.2022 33.8682H23.6363V32.7364C23.6363 30.8612 22.1161 29.341 20.2409 29.341H17.5302C19.4672 28.3502 21.0346 26.7631 22.0009 24.8137H23.6363C24.574 24.8137 25.3341 24.0536 25.3341 23.116C25.3341 22.1783 24.574 21.4182 23.6363 21.4182ZM19.675 20.5694C19.675 20.1006 20.055 19.7205 20.5238 19.7205C20.9926 19.7205 21.3727 20.1006 21.3727 20.5694C21.3727 21.0382 20.9926 21.4182 20.5238 21.4182C20.055 21.4182 19.675 21.0382 19.675 20.5694ZM8.92271 11.2319C9.86034 11.2319 10.6204 11.992 10.6204 12.9296C10.6204 13.8672 9.86034 14.6273 8.92271 14.6273C7.98509 14.6273 7.22499 13.8672 7.22499 12.9296C7.22499 11.992 7.98509 11.2319 8.92271 11.2319ZM17.9772 16.1836L16.3757 17.7851L15.176 16.5854L16.7775 14.9839L17.9772 16.1836ZM17.1793 12.9805L13.1727 16.9815L12.3748 16.1836L16.3757 12.1826L17.1793 12.9805ZM2.3695 3.77888L3.97102 2.17736L5.57254 3.77888L3.97102 5.3804L2.3695 3.77888ZM7.17406 3.77888L15.176 11.7978L11.973 15.0008L11.3505 14.3783C11.9819 13.2708 11.7946 11.8777 10.8931 10.9762C9.99159 10.0747 8.59854 9.88745 7.49097 10.5188L3.97102 6.98192C9.21699 1.74161 6.09317 4.84279 7.17406 3.77888ZM20.2409 30.4728C21.491 30.4728 22.5045 31.4862 22.5045 32.7364V33.8682H3.26363V32.7364C3.26363 31.4862 4.2771 30.4728 5.52727 30.4728H20.2409ZM12.8841 29.341C9.26987 29.3344 6.00572 27.1792 4.58009 23.858C3.15445 20.5369 3.84042 16.686 6.3252 14.0614C6.56076 14.5962 6.95614 15.045 7.45701 15.346C5.50176 17.3101 4.81619 20.2064 5.68345 22.8386C6.55071 25.4708 8.82362 27.3922 11.5634 27.8094C14.3033 28.2265 17.045 27.0685 18.6563 24.8137H20.7162C19.1005 27.6123 16.1156 29.3376 12.8841 29.341ZM23.6363 23.6819H17.4113C17.0988 23.6819 16.8454 23.4285 16.8454 23.116C16.8454 22.8034 17.0988 22.5501 17.4113 22.5501H23.6363C23.9489 22.5501 24.2022 22.8034 24.2022 23.116C24.2022 23.4285 23.9489 23.6819 23.6363 23.6819Z"/>
</mask>
<path d="M23.6363 21.4182H22.3064C22.7024 20.5882 22.473 19.5948 21.7533 19.0223C21.0336 18.4498 20.014 18.4498 19.2943 19.0223C18.5746 19.5948 18.3453 20.5882 18.7412 21.4182H17.4113C16.4737 21.3495 15.6579 22.0538 15.5891 22.9915C15.5204 23.9291 16.2247 24.7449 17.1623 24.8137C15.5857 26.5445 13.1712 27.2442 10.9134 26.6248C8.65563 26.0053 6.93634 24.1714 6.46367 21.8784C5.99101 19.5853 6.84493 17.221 8.67372 15.7592C8.75664 15.764 8.83979 15.764 8.92271 15.7592C9.53494 15.7592 10.1307 15.5606 10.6204 15.1933L11.3165 15.8837C11.2133 16.2714 11.3231 16.6848 11.6051 16.9702L12.403 17.7738C12.6153 17.9863 12.9034 18.1057 13.2038 18.1057C13.5042 18.1057 13.7923 17.9863 14.0046 17.7738L14.4064 17.372L15.5778 18.5887C15.7901 18.8012 16.0782 18.9206 16.3786 18.9206C16.6789 18.9206 16.967 18.8012 17.1793 18.5887L18.7752 16.9872C18.9877 16.7749 19.1071 16.4868 19.1071 16.1864C19.1071 15.886 18.9877 15.598 18.7752 15.3857L17.5755 14.1859L17.9772 13.7898C18.1898 13.5775 18.3092 13.2894 18.3092 12.989C18.3092 12.6886 18.1898 12.4006 17.9772 12.1883L17.1793 11.3847C16.8927 11.1007 16.4766 10.9907 16.0871 11.0961L7.97199 2.96963C7.7597 2.7571 7.47162 2.63769 7.17123 2.63769C6.87083 2.63769 6.58276 2.7571 6.37047 2.96963L4.77461 1.37943C4.56231 1.1669 4.27424 1.04749 3.97385 1.04749C3.67345 1.04749 3.38538 1.1669 3.17309 1.37943L1.56591 2.97529C1.35338 3.18759 1.23396 3.47566 1.23396 3.77605C1.23396 4.07645 1.35338 4.36452 1.56591 4.57681L3.17309 6.17833C2.96056 6.39063 2.84114 6.6787 2.84114 6.97909C2.84114 7.27949 2.96056 7.56756 3.17309 7.77985L6.65908 11.2602C6.34088 11.6733 6.14483 12.1674 6.09317 12.6863C3.59261 14.924 2.35457 18.2498 2.78317 21.578C3.21178 24.9062 5.25203 27.8097 8.23797 29.341H5.52727C3.65201 29.341 2.13182 30.8612 2.13182 32.7364V33.8682H1.56591C1.25337 33.8682 1 34.1216 1 34.4341C1 34.7467 1.25337 35 1.56591 35H24.2022C24.5148 35 24.7681 34.7467 24.7681 34.4341C24.7681 34.1216 24.5148 33.8682 24.2022 33.8682H23.6363V32.7364C23.6363 30.8612 22.1161 29.341 20.2409 29.341H17.5302C19.4672 28.3502 21.0346 26.7631 22.0009 24.8137H23.6363C24.574 24.8137 25.3341 24.0536 25.3341 23.116C25.3341 22.1783 24.574 21.4182 23.6363 21.4182ZM19.675 20.5694C19.675 20.1006 20.055 19.7205 20.5238 19.7205C20.9926 19.7205 21.3727 20.1006 21.3727 20.5694C21.3727 21.0382 20.9926 21.4182 20.5238 21.4182C20.055 21.4182 19.675 21.0382 19.675 20.5694ZM8.92271 11.2319C9.86034 11.2319 10.6204 11.992 10.6204 12.9296C10.6204 13.8672 9.86034 14.6273 8.92271 14.6273C7.98509 14.6273 7.22499 13.8672 7.22499 12.9296C7.22499 11.992 7.98509 11.2319 8.92271 11.2319ZM17.9772 16.1836L16.3757 17.7851L15.176 16.5854L16.7775 14.9839L17.9772 16.1836ZM17.1793 12.9805L13.1727 16.9815L12.3748 16.1836L16.3757 12.1826L17.1793 12.9805ZM2.3695 3.77888L3.97102 2.17736L5.57254 3.77888L3.97102 5.3804L2.3695 3.77888ZM7.17406 3.77888L15.176 11.7978L11.973 15.0008L11.3505 14.3783C11.9819 13.2708 11.7946 11.8777 10.8931 10.9762C9.99159 10.0747 8.59854 9.88745 7.49097 10.5188L3.97102 6.98192C9.21699 1.74161 6.09317 4.84279 7.17406 3.77888ZM20.2409 30.4728C21.491 30.4728 22.5045 31.4862 22.5045 32.7364V33.8682H3.26363V32.7364C3.26363 31.4862 4.2771 30.4728 5.52727 30.4728H20.2409ZM12.8841 29.341C9.26987 29.3344 6.00572 27.1792 4.58009 23.858C3.15445 20.5369 3.84042 16.686 6.3252 14.0614C6.56076 14.5962 6.95614 15.045 7.45701 15.346C5.50176 17.3101 4.81619 20.2064 5.68345 22.8386C6.55071 25.4708 8.82362 27.3922 11.5634 27.8094C14.3033 28.2265 17.045 27.0685 18.6563 24.8137H20.7162C19.1005 27.6123 16.1156 29.3376 12.8841 29.341ZM23.6363 23.6819H17.4113C17.0988 23.6819 16.8454 23.4285 16.8454 23.116C16.8454 22.8034 17.0988 22.5501 17.4113 22.5501H23.6363C23.9489 22.5501 24.2022 22.8034 24.2022 23.116C24.2022 23.4285 23.9489 23.6819 23.6363 23.6819Z" fill="#27AE60"/>
<path d="M23.6363 21.4182H22.3064C22.7024 20.5882 22.473 19.5948 21.7533 19.0223C21.0336 18.4498 20.014 18.4498 19.2943 19.0223C18.5746 19.5948 18.3453 20.5882 18.7412 21.4182H17.4113C16.4737 21.3495 15.6579 22.0538 15.5891 22.9915C15.5204 23.9291 16.2247 24.7449 17.1623 24.8137C15.5857 26.5445 13.1712 27.2442 10.9134 26.6248C8.65563 26.0053 6.93634 24.1714 6.46367 21.8784C5.99101 19.5853 6.84493 17.221 8.67372 15.7592C8.75664 15.764 8.83979 15.764 8.92271 15.7592C9.53494 15.7592 10.1307 15.5606 10.6204 15.1933L11.3165 15.8837C11.2133 16.2714 11.3231 16.6848 11.6051 16.9702L12.403 17.7738C12.6153 17.9863 12.9034 18.1057 13.2038 18.1057C13.5042 18.1057 13.7923 17.9863 14.0046 17.7738L14.4064 17.372L15.5778 18.5887C15.7901 18.8012 16.0782 18.9206 16.3786 18.9206C16.6789 18.9206 16.967 18.8012 17.1793 18.5887L18.7752 16.9872C18.9877 16.7749 19.1071 16.4868 19.1071 16.1864C19.1071 15.886 18.9877 15.598 18.7752 15.3857L17.5755 14.1859L17.9772 13.7898C18.1898 13.5775 18.3092 13.2894 18.3092 12.989C18.3092 12.6886 18.1898 12.4006 17.9772 12.1883L17.1793 11.3847C16.8927 11.1007 16.4766 10.9907 16.0871 11.0961L7.97199 2.96963C7.7597 2.7571 7.47162 2.63769 7.17123 2.63769C6.87083 2.63769 6.58276 2.7571 6.37047 2.96963L4.77461 1.37943C4.56231 1.1669 4.27424 1.04749 3.97385 1.04749C3.67345 1.04749 3.38538 1.1669 3.17309 1.37943L1.56591 2.97529C1.35338 3.18759 1.23396 3.47566 1.23396 3.77605C1.23396 4.07645 1.35338 4.36452 1.56591 4.57681L3.17309 6.17833C2.96056 6.39063 2.84114 6.6787 2.84114 6.97909C2.84114 7.27949 2.96056 7.56756 3.17309 7.77985L6.65908 11.2602C6.34088 11.6733 6.14483 12.1674 6.09317 12.6863C3.59261 14.924 2.35457 18.2498 2.78317 21.578C3.21178 24.9062 5.25203 27.8097 8.23797 29.341H5.52727C3.65201 29.341 2.13182 30.8612 2.13182 32.7364V33.8682H1.56591C1.25337 33.8682 1 34.1216 1 34.4341C1 34.7467 1.25337 35 1.56591 35H24.2022C24.5148 35 24.7681 34.7467 24.7681 34.4341C24.7681 34.1216 24.5148 33.8682 24.2022 33.8682H23.6363V32.7364C23.6363 30.8612 22.1161 29.341 20.2409 29.341H17.5302C19.4672 28.3502 21.0346 26.7631 22.0009 24.8137H23.6363C24.574 24.8137 25.3341 24.0536 25.3341 23.116C25.3341 22.1783 24.574 21.4182 23.6363 21.4182ZM19.675 20.5694C19.675 20.1006 20.055 19.7205 20.5238 19.7205C20.9926 19.7205 21.3727 20.1006 21.3727 20.5694C21.3727 21.0382 20.9926 21.4182 20.5238 21.4182C20.055 21.4182 19.675 21.0382 19.675 20.5694ZM8.92271 11.2319C9.86034 11.2319 10.6204 11.992 10.6204 12.9296C10.6204 13.8672 9.86034 14.6273 8.92271 14.6273C7.98509 14.6273 7.22499 13.8672 7.22499 12.9296C7.22499 11.992 7.98509 11.2319 8.92271 11.2319ZM17.9772 16.1836L16.3757 17.7851L15.176 16.5854L16.7775 14.9839L17.9772 16.1836ZM17.1793 12.9805L13.1727 16.9815L12.3748 16.1836L16.3757 12.1826L17.1793 12.9805ZM2.3695 3.77888L3.97102 2.17736L5.57254 3.77888L3.97102 5.3804L2.3695 3.77888ZM7.17406 3.77888L15.176 11.7978L11.973 15.0008L11.3505 14.3783C11.9819 13.2708 11.7946 11.8777 10.8931 10.9762C9.99159 10.0747 8.59854 9.88745 7.49097 10.5188L3.97102 6.98192C9.21699 1.74161 6.09317 4.84279 7.17406 3.77888ZM20.2409 30.4728C21.491 30.4728 22.5045 31.4862 22.5045 32.7364V33.8682H3.26363V32.7364C3.26363 31.4862 4.2771 30.4728 5.52727 30.4728H20.2409ZM12.8841 29.341C9.26987 29.3344 6.00572 27.1792 4.58009 23.858C3.15445 20.5369 3.84042 16.686 6.3252 14.0614C6.56076 14.5962 6.95614 15.045 7.45701 15.346C5.50176 17.3101 4.81619 20.2064 5.68345 22.8386C6.55071 25.4708 8.82362 27.3922 11.5634 27.8094C14.3033 28.2265 17.045 27.0685 18.6563 24.8137H20.7162C19.1005 27.6123 16.1156 29.3376 12.8841 29.341ZM23.6363 23.6819H17.4113C17.0988 23.6819 16.8454 23.4285 16.8454 23.116C16.8454 22.8034 17.0988 22.5501 17.4113 22.5501H23.6363C23.9489 22.5501 24.2022 22.8034 24.2022 23.116C24.2022 23.4285 23.9489 23.6819 23.6363 23.6819Z" stroke="#27AE60" stroke-width="0.4" mask="url(#path-3-outside-1_2:166)"/>
</svg>
