<svg width="36" height="36" viewBox="0 0 36 36" fill="none" xmlns="http://www.w3.org/2000/svg">
<mask id="path-1-outside-1_2:134" maskUnits="userSpaceOnUse" x="0" y="0" width="36" height="36" fill="black">
<rect fill="white" width="36" height="36"/>
<path d="M34.4618 4.96258C33.9706 3.4178 33.3049 2.31172 33.2766 2.26524C33.1675 2.08532 32.9427 1.99173 32.7392 2.03842C32.6865 2.05046 31.4293 2.34389 29.9792 3.06813C28.0214 4.04555 26.6539 5.35043 26.0238 6.84104C25.4994 8.08243 25.4241 9.60002 25.7962 11.2766C25.0037 10.3915 24.1122 9.61724 23.1404 8.96542C22.8436 8.37918 22.059 6.93588 20.8323 5.42742C20.4283 4.93083 19.6511 5.55401 20.0593 6.05558C20.8859 7.07222 21.508 8.07205 21.8971 8.75894L17.3601 7.87449L13.0495 1.99484C13.4681 2.00065 13.8881 2.04112 14.306 2.12309C15.631 2.38249 16.9399 3.05734 18.1968 4.12856C18.6893 4.54837 19.3288 3.78428 18.8428 3.37028C17.4543 2.187 15.9923 1.43827 14.4974 1.14546C12.2153 0.69888 9.55363 1.28512 6.79943 2.84152C4.74665 4.00155 3.3739 5.27572 3.31663 5.32927C3.13297 5.50088 3.10371 5.81258 3.25748 6.01304C3.45878 6.42601 4.22162 7.91579 5.49143 9.51971C6.23996 10.4654 7.02936 11.2747 7.84595 11.9398C7.61394 12.1342 7.38816 12.3376 7.16964 12.5516C6.00255 13.6931 5.10897 15.0397 4.52232 16.5119C4.00373 17.8126 3.72482 19.2119 3.70925 20.6542C3.68352 23.0126 4.36688 25.2873 5.68588 27.2325C6.97437 29.1326 8.77564 30.5915 10.8948 31.4512C11.4879 31.6913 11.8629 30.7689 11.2694 30.5282C10.5016 30.2167 9.78024 29.8176 9.11493 29.343C9.20002 28.8711 9.39737 27.1728 8.26929 25.4147C8.11137 25.1688 8.58348 24.203 8.86529 23.6261C9.15623 23.0315 9.45651 22.4168 9.59679 21.8381C9.74579 21.2232 9.57812 20.7071 9.11224 20.345C8.77024 20.0791 8.32262 19.9416 7.92813 19.8202C7.67184 19.7413 7.38131 19.6521 7.27755 19.5655C7.06381 19.3864 6.71476 18.7247 6.4342 18.1932C6.12292 17.6036 5.82658 17.0425 5.52401 16.697C6.20489 15.08 7.29851 13.6491 8.66814 12.5545C9.91928 13.4068 11.3472 13.9949 12.865 14.114C11.1048 15.4778 10.5354 17.2195 11.3493 18.8925C12.2997 20.8461 14.256 20.534 15.982 20.2591C16.2806 20.2113 16.5896 20.1621 16.8855 20.1252C16.9965 20.1113 17.0299 20.1416 17.0523 20.1613C17.4302 20.4975 17.419 22.1031 17.4109 23.2756C17.3999 24.8973 17.3896 26.4292 17.9937 27.2157C18.3018 27.6167 18.7357 27.8217 19.2444 27.8217C19.5492 27.8217 19.8804 27.7482 20.2278 27.5992C21.73 26.9559 23.2916 25.0198 23.0534 23.4879C22.8453 22.1485 22.7075 21.2637 23.0322 20.5504C23.3325 19.8903 24.0584 19.2791 25.488 18.4993C25.6592 19.2702 25.7456 20.0723 25.7366 20.8951C25.7061 23.7037 24.5834 26.3323 22.5757 28.2965C20.3318 30.4916 17.1781 31.5757 14.0585 31.2319C13.4228 31.163 13.3131 32.152 13.9495 32.2221C17.3643 32.5982 20.8168 31.4112 23.2721 29.0087C25.4704 26.8582 26.6993 23.9807 26.7327 20.9057C26.7771 16.8285 24.6851 13.2165 21.5005 11.1357C22.1586 10.6665 22.6487 10.2608 22.9206 10.0252C24.0817 10.8582 25.1116 11.8844 25.9684 13.0799C28.0254 15.9505 28.8411 19.4499 28.2659 22.9342C27.0778 30.1266 20.2602 35.0122 13.0665 33.8238C9.58206 33.2483 6.53048 31.3508 4.47355 28.4802C2.41641 25.6097 1.60065 22.1099 2.1761 18.6259C2.27944 17.999 1.29725 17.8344 1.19349 18.4636C0.574464 22.2104 1.45206 25.9737 3.6636 29.0606C5.87555 32.147 9.15747 34.1878 12.9042 34.8068C13.6878 34.9361 14.4723 35 15.2513 35C18.196 35 21.0606 34.0857 23.5016 32.3365C26.5889 30.1245 28.6299 26.8432 29.2485 23.0965C29.7019 20.351 29.351 17.5966 28.2611 15.1059C28.7641 14.9576 29.6202 14.6695 30.5577 14.2014C32.5151 13.2239 33.8828 11.919 34.5126 10.4284C35.1431 8.93741 35.1254 7.04732 34.4618 4.96258ZM5.55307 18.658C5.9237 19.3607 6.2742 20.0248 6.63839 20.3294C6.89634 20.545 7.25535 20.6554 7.63532 20.7723C8.60879 21.0715 8.72189 21.2184 8.62851 21.6034C8.51396 22.0767 8.23754 22.642 7.97046 23.1884C7.45602 24.2409 6.97022 25.2345 7.4307 25.9526C8.08377 26.9702 8.19562 27.9721 8.18442 28.5953C5.21771 25.9202 4.00974 21.6949 5.11479 17.8545C5.26129 18.1056 5.41527 18.3974 5.55307 18.658ZM29.6513 8.86996L28.2358 5.43967C28.9245 4.79552 29.7237 4.31076 30.4044 3.96939C30.9842 3.67845 31.5358 3.46097 31.9782 3.30678L29.6513 8.86996ZM32.8965 3.69297C33.0942 4.11797 33.3235 4.66603 33.5194 5.28548C33.7342 5.96531 33.9314 6.80784 33.9706 7.68669L30.6534 9.05528L32.8965 3.69297ZM26.9413 7.2289C27.0882 6.88151 27.2781 6.55944 27.4974 6.26207L29.1088 10.1665L27.6628 13.6242C27.4597 13.1932 27.2204 12.6271 27.0174 11.984C26.6101 10.6963 26.2664 8.82576 26.9413 7.2289ZM30.1323 13.3001C29.5743 13.5802 29.0418 13.7923 28.6081 13.9453L30.1087 10.3579L33.9283 8.78177C33.8729 9.20967 33.7672 9.63384 33.5952 10.0406C32.9205 11.6374 31.3397 12.6948 30.1323 13.3001ZM12.1721 13.0166C11.9961 12.9822 11.8224 12.94 11.6512 12.8921L17.1638 8.85129L21.7029 9.73594C20.0493 11.0388 16.0253 13.7716 12.1721 13.0166ZM7.13416 9.9003C5.95524 8.62966 5.09113 7.27103 4.59495 6.4011L10.3713 7.52731L7.13416 9.9003ZM8.15433 3.2549L10.5711 6.55135L4.75744 5.41808C5.48936 4.84014 6.69754 3.9725 8.15433 3.2549ZM12.0121 6.83233L9.08214 2.83571C9.95933 2.47525 10.9008 2.19157 11.866 2.0654L15.9193 7.59372L12.0121 6.83233ZM11.7021 7.78671L15.8332 8.59189L10.5313 12.4781C9.53142 12.0164 8.63162 11.3525 7.84429 10.6146L11.7021 7.78671ZM25.2174 17.5132C23.4217 18.4698 22.5425 19.2213 22.1254 20.1379C21.6773 21.1221 21.8415 22.1786 22.0687 23.6408C22.203 24.503 21.1783 26.1086 19.8356 26.6837C19.3388 26.8964 18.985 26.8713 18.7835 26.6087C18.3877 26.0937 18.3985 24.5348 18.407 23.2824C18.4189 21.5496 18.4292 20.0532 17.7143 19.4171C17.4572 19.1885 17.1283 19.0918 16.7629 19.1366C16.4497 19.1756 16.132 19.2262 15.8251 19.2752C13.9941 19.567 12.842 19.6838 12.2452 18.4567C11.2781 16.4693 13.2357 14.9972 14.1222 14.4566C14.3027 14.3466 14.4702 14.2169 14.6258 14.0725C16.7685 13.8164 18.793 12.8971 20.5972 11.7456C22.7604 13.038 24.421 15.0833 25.2174 17.5132Z"/>
</mask>
<path d="M34.4618 4.96258C33.9706 3.4178 33.3049 2.31172 33.2766 2.26524C33.1675 2.08532 32.9427 1.99173 32.7392 2.03842C32.6865 2.05046 31.4293 2.34389 29.9792 3.06813C28.0214 4.04555 26.6539 5.35043 26.0238 6.84104C25.4994 8.08243 25.4241 9.60002 25.7962 11.2766C25.0037 10.3915 24.1122 9.61724 23.1404 8.96542C22.8436 8.37918 22.059 6.93588 20.8323 5.42742C20.4283 4.93083 19.6511 5.55401 20.0593 6.05558C20.8859 7.07222 21.508 8.07205 21.8971 8.75894L17.3601 7.87449L13.0495 1.99484C13.4681 2.00065 13.8881 2.04112 14.306 2.12309C15.631 2.38249 16.9399 3.05734 18.1968 4.12856C18.6893 4.54837 19.3288 3.78428 18.8428 3.37028C17.4543 2.187 15.9923 1.43827 14.4974 1.14546C12.2153 0.69888 9.55363 1.28512 6.79943 2.84152C4.74665 4.00155 3.3739 5.27572 3.31663 5.32927C3.13297 5.50088 3.10371 5.81258 3.25748 6.01304C3.45878 6.42601 4.22162 7.91579 5.49143 9.51971C6.23996 10.4654 7.02936 11.2747 7.84595 11.9398C7.61394 12.1342 7.38816 12.3376 7.16964 12.5516C6.00255 13.6931 5.10897 15.0397 4.52232 16.5119C4.00373 17.8126 3.72482 19.2119 3.70925 20.6542C3.68352 23.0126 4.36688 25.2873 5.68588 27.2325C6.97437 29.1326 8.77564 30.5915 10.8948 31.4512C11.4879 31.6913 11.8629 30.7689 11.2694 30.5282C10.5016 30.2167 9.78024 29.8176 9.11493 29.343C9.20002 28.8711 9.39737 27.1728 8.26929 25.4147C8.11137 25.1688 8.58348 24.203 8.86529 23.6261C9.15623 23.0315 9.45651 22.4168 9.59679 21.8381C9.74579 21.2232 9.57812 20.7071 9.11224 20.345C8.77024 20.0791 8.32262 19.9416 7.92813 19.8202C7.67184 19.7413 7.38131 19.6521 7.27755 19.5655C7.06381 19.3864 6.71476 18.7247 6.4342 18.1932C6.12292 17.6036 5.82658 17.0425 5.52401 16.697C6.20489 15.08 7.29851 13.6491 8.66814 12.5545C9.91928 13.4068 11.3472 13.9949 12.865 14.114C11.1048 15.4778 10.5354 17.2195 11.3493 18.8925C12.2997 20.8461 14.256 20.534 15.982 20.2591C16.2806 20.2113 16.5896 20.1621 16.8855 20.1252C16.9965 20.1113 17.0299 20.1416 17.0523 20.1613C17.4302 20.4975 17.419 22.1031 17.4109 23.2756C17.3999 24.8973 17.3896 26.4292 17.9937 27.2157C18.3018 27.6167 18.7357 27.8217 19.2444 27.8217C19.5492 27.8217 19.8804 27.7482 20.2278 27.5992C21.73 26.9559 23.2916 25.0198 23.0534 23.4879C22.8453 22.1485 22.7075 21.2637 23.0322 20.5504C23.3325 19.8903 24.0584 19.2791 25.488 18.4993C25.6592 19.2702 25.7456 20.0723 25.7366 20.8951C25.7061 23.7037 24.5834 26.3323 22.5757 28.2965C20.3318 30.4916 17.1781 31.5757 14.0585 31.2319C13.4228 31.163 13.3131 32.152 13.9495 32.2221C17.3643 32.5982 20.8168 31.4112 23.2721 29.0087C25.4704 26.8582 26.6993 23.9807 26.7327 20.9057C26.7771 16.8285 24.6851 13.2165 21.5005 11.1357C22.1586 10.6665 22.6487 10.2608 22.9206 10.0252C24.0817 10.8582 25.1116 11.8844 25.9684 13.0799C28.0254 15.9505 28.8411 19.4499 28.2659 22.9342C27.0778 30.1266 20.2602 35.0122 13.0665 33.8238C9.58206 33.2483 6.53048 31.3508 4.47355 28.4802C2.41641 25.6097 1.60065 22.1099 2.1761 18.6259C2.27944 17.999 1.29725 17.8344 1.19349 18.4636C0.574464 22.2104 1.45206 25.9737 3.6636 29.0606C5.87555 32.147 9.15747 34.1878 12.9042 34.8068C13.6878 34.9361 14.4723 35 15.2513 35C18.196 35 21.0606 34.0857 23.5016 32.3365C26.5889 30.1245 28.6299 26.8432 29.2485 23.0965C29.7019 20.351 29.351 17.5966 28.2611 15.1059C28.7641 14.9576 29.6202 14.6695 30.5577 14.2014C32.5151 13.2239 33.8828 11.919 34.5126 10.4284C35.1431 8.93741 35.1254 7.04732 34.4618 4.96258ZM5.55307 18.658C5.9237 19.3607 6.2742 20.0248 6.63839 20.3294C6.89634 20.545 7.25535 20.6554 7.63532 20.7723C8.60879 21.0715 8.72189 21.2184 8.62851 21.6034C8.51396 22.0767 8.23754 22.642 7.97046 23.1884C7.45602 24.2409 6.97022 25.2345 7.4307 25.9526C8.08377 26.9702 8.19562 27.9721 8.18442 28.5953C5.21771 25.9202 4.00974 21.6949 5.11479 17.8545C5.26129 18.1056 5.41527 18.3974 5.55307 18.658ZM29.6513 8.86996L28.2358 5.43967C28.9245 4.79552 29.7237 4.31076 30.4044 3.96939C30.9842 3.67845 31.5358 3.46097 31.9782 3.30678L29.6513 8.86996ZM32.8965 3.69297C33.0942 4.11797 33.3235 4.66603 33.5194 5.28548C33.7342 5.96531 33.9314 6.80784 33.9706 7.68669L30.6534 9.05528L32.8965 3.69297ZM26.9413 7.2289C27.0882 6.88151 27.2781 6.55944 27.4974 6.26207L29.1088 10.1665L27.6628 13.6242C27.4597 13.1932 27.2204 12.6271 27.0174 11.984C26.6101 10.6963 26.2664 8.82576 26.9413 7.2289ZM30.1323 13.3001C29.5743 13.5802 29.0418 13.7923 28.6081 13.9453L30.1087 10.3579L33.9283 8.78177C33.8729 9.20967 33.7672 9.63384 33.5952 10.0406C32.9205 11.6374 31.3397 12.6948 30.1323 13.3001ZM12.1721 13.0166C11.9961 12.9822 11.8224 12.94 11.6512 12.8921L17.1638 8.85129L21.7029 9.73594C20.0493 11.0388 16.0253 13.7716 12.1721 13.0166ZM7.13416 9.9003C5.95524 8.62966 5.09113 7.27103 4.59495 6.4011L10.3713 7.52731L7.13416 9.9003ZM8.15433 3.2549L10.5711 6.55135L4.75744 5.41808C5.48936 4.84014 6.69754 3.9725 8.15433 3.2549ZM12.0121 6.83233L9.08214 2.83571C9.95933 2.47525 10.9008 2.19157 11.866 2.0654L15.9193 7.59372L12.0121 6.83233ZM11.7021 7.78671L15.8332 8.59189L10.5313 12.4781C9.53142 12.0164 8.63162 11.3525 7.84429 10.6146L11.7021 7.78671ZM25.2174 17.5132C23.4217 18.4698 22.5425 19.2213 22.1254 20.1379C21.6773 21.1221 21.8415 22.1786 22.0687 23.6408C22.203 24.503 21.1783 26.1086 19.8356 26.6837C19.3388 26.8964 18.985 26.8713 18.7835 26.6087C18.3877 26.0937 18.3985 24.5348 18.407 23.2824C18.4189 21.5496 18.4292 20.0532 17.7143 19.4171C17.4572 19.1885 17.1283 19.0918 16.7629 19.1366C16.4497 19.1756 16.132 19.2262 15.8251 19.2752C13.9941 19.567 12.842 19.6838 12.2452 18.4567C11.2781 16.4693 13.2357 14.9972 14.1222 14.4566C14.3027 14.3466 14.4702 14.2169 14.6258 14.0725C16.7685 13.8164 18.793 12.8971 20.5972 11.7456C22.7604 13.038 24.421 15.0833 25.2174 17.5132Z" fill="#27AE60"/>
<path d="M34.4618 4.96258C33.9706 3.4178 33.3049 2.31172 33.2766 2.26524C33.1675 2.08532 32.9427 1.99173 32.7392 2.03842C32.6865 2.05046 31.4293 2.34389 29.9792 3.06813C28.0214 4.04555 26.6539 5.35043 26.0238 6.84104C25.4994 8.08243 25.4241 9.60002 25.7962 11.2766C25.0037 10.3915 24.1122 9.61724 23.1404 8.96542C22.8436 8.37918 22.059 6.93588 20.8323 5.42742C20.4283 4.93083 19.6511 5.55401 20.0593 6.05558C20.8859 7.07222 21.508 8.07205 21.8971 8.75894L17.3601 7.87449L13.0495 1.99484C13.4681 2.00065 13.8881 2.04112 14.306 2.12309C15.631 2.38249 16.9399 3.05734 18.1968 4.12856C18.6893 4.54837 19.3288 3.78428 18.8428 3.37028C17.4543 2.187 15.9923 1.43827 14.4974 1.14546C12.2153 0.69888 9.55363 1.28512 6.79943 2.84152C4.74665 4.00155 3.3739 5.27572 3.31663 5.32927C3.13297 5.50088 3.10371 5.81258 3.25748 6.01304C3.45878 6.42601 4.22162 7.91579 5.49143 9.51971C6.23996 10.4654 7.02936 11.2747 7.84595 11.9398C7.61394 12.1342 7.38816 12.3376 7.16964 12.5516C6.00255 13.6931 5.10897 15.0397 4.52232 16.5119C4.00373 17.8126 3.72482 19.2119 3.70925 20.6542C3.68352 23.0126 4.36688 25.2873 5.68588 27.2325C6.97437 29.1326 8.77564 30.5915 10.8948 31.4512C11.4879 31.6913 11.8629 30.7689 11.2694 30.5282C10.5016 30.2167 9.78024 29.8176 9.11493 29.343C9.20002 28.8711 9.39737 27.1728 8.26929 25.4147C8.11137 25.1688 8.58348 24.203 8.86529 23.6261C9.15623 23.0315 9.45651 22.4168 9.59679 21.8381C9.74579 21.2232 9.57812 20.7071 9.11224 20.345C8.77024 20.0791 8.32262 19.9416 7.92813 19.8202C7.67184 19.7413 7.38131 19.6521 7.27755 19.5655C7.06381 19.3864 6.71476 18.7247 6.4342 18.1932C6.12292 17.6036 5.82658 17.0425 5.52401 16.697C6.20489 15.08 7.29851 13.6491 8.66814 12.5545C9.91928 13.4068 11.3472 13.9949 12.865 14.114C11.1048 15.4778 10.5354 17.2195 11.3493 18.8925C12.2997 20.8461 14.256 20.534 15.982 20.2591C16.2806 20.2113 16.5896 20.1621 16.8855 20.1252C16.9965 20.1113 17.0299 20.1416 17.0523 20.1613C17.4302 20.4975 17.419 22.1031 17.4109 23.2756C17.3999 24.8973 17.3896 26.4292 17.9937 27.2157C18.3018 27.6167 18.7357 27.8217 19.2444 27.8217C19.5492 27.8217 19.8804 27.7482 20.2278 27.5992C21.73 26.9559 23.2916 25.0198 23.0534 23.4879C22.8453 22.1485 22.7075 21.2637 23.0322 20.5504C23.3325 19.8903 24.0584 19.2791 25.488 18.4993C25.6592 19.2702 25.7456 20.0723 25.7366 20.8951C25.7061 23.7037 24.5834 26.3323 22.5757 28.2965C20.3318 30.4916 17.1781 31.5757 14.0585 31.2319C13.4228 31.163 13.3131 32.152 13.9495 32.2221C17.3643 32.5982 20.8168 31.4112 23.2721 29.0087C25.4704 26.8582 26.6993 23.9807 26.7327 20.9057C26.7771 16.8285 24.6851 13.2165 21.5005 11.1357C22.1586 10.6665 22.6487 10.2608 22.9206 10.0252C24.0817 10.8582 25.1116 11.8844 25.9684 13.0799C28.0254 15.9505 28.8411 19.4499 28.2659 22.9342C27.0778 30.1266 20.2602 35.0122 13.0665 33.8238C9.58206 33.2483 6.53048 31.3508 4.47355 28.4802C2.41641 25.6097 1.60065 22.1099 2.1761 18.6259C2.27944 17.999 1.29725 17.8344 1.19349 18.4636C0.574464 22.2104 1.45206 25.9737 3.6636 29.0606C5.87555 32.147 9.15747 34.1878 12.9042 34.8068C13.6878 34.9361 14.4723 35 15.2513 35C18.196 35 21.0606 34.0857 23.5016 32.3365C26.5889 30.1245 28.6299 26.8432 29.2485 23.0965C29.7019 20.351 29.351 17.5966 28.2611 15.1059C28.7641 14.9576 29.6202 14.6695 30.5577 14.2014C32.5151 13.2239 33.8828 11.919 34.5126 10.4284C35.1431 8.93741 35.1254 7.04732 34.4618 4.96258ZM5.55307 18.658C5.9237 19.3607 6.2742 20.0248 6.63839 20.3294C6.89634 20.545 7.25535 20.6554 7.63532 20.7723C8.60879 21.0715 8.72189 21.2184 8.62851 21.6034C8.51396 22.0767 8.23754 22.642 7.97046 23.1884C7.45602 24.2409 6.97022 25.2345 7.4307 25.9526C8.08377 26.9702 8.19562 27.9721 8.18442 28.5953C5.21771 25.9202 4.00974 21.6949 5.11479 17.8545C5.26129 18.1056 5.41527 18.3974 5.55307 18.658ZM29.6513 8.86996L28.2358 5.43967C28.9245 4.79552 29.7237 4.31076 30.4044 3.96939C30.9842 3.67845 31.5358 3.46097 31.9782 3.30678L29.6513 8.86996ZM32.8965 3.69297C33.0942 4.11797 33.3235 4.66603 33.5194 5.28548C33.7342 5.96531 33.9314 6.80784 33.9706 7.68669L30.6534 9.05528L32.8965 3.69297ZM26.9413 7.2289C27.0882 6.88151 27.2781 6.55944 27.4974 6.26207L29.1088 10.1665L27.6628 13.6242C27.4597 13.1932 27.2204 12.6271 27.0174 11.984C26.6101 10.6963 26.2664 8.82576 26.9413 7.2289ZM30.1323 13.3001C29.5743 13.5802 29.0418 13.7923 28.6081 13.9453L30.1087 10.3579L33.9283 8.78177C33.8729 9.20967 33.7672 9.63384 33.5952 10.0406C32.9205 11.6374 31.3397 12.6948 30.1323 13.3001ZM12.1721 13.0166C11.9961 12.9822 11.8224 12.94 11.6512 12.8921L17.1638 8.85129L21.7029 9.73594C20.0493 11.0388 16.0253 13.7716 12.1721 13.0166ZM7.13416 9.9003C5.95524 8.62966 5.09113 7.27103 4.59495 6.4011L10.3713 7.52731L7.13416 9.9003ZM8.15433 3.2549L10.5711 6.55135L4.75744 5.41808C5.48936 4.84014 6.69754 3.9725 8.15433 3.2549ZM12.0121 6.83233L9.08214 2.83571C9.95933 2.47525 10.9008 2.19157 11.866 2.0654L15.9193 7.59372L12.0121 6.83233ZM11.7021 7.78671L15.8332 8.59189L10.5313 12.4781C9.53142 12.0164 8.63162 11.3525 7.84429 10.6146L11.7021 7.78671ZM25.2174 17.5132C23.4217 18.4698 22.5425 19.2213 22.1254 20.1379C21.6773 21.1221 21.8415 22.1786 22.0687 23.6408C22.203 24.503 21.1783 26.1086 19.8356 26.6837C19.3388 26.8964 18.985 26.8713 18.7835 26.6087C18.3877 26.0937 18.3985 24.5348 18.407 23.2824C18.4189 21.5496 18.4292 20.0532 17.7143 19.4171C17.4572 19.1885 17.1283 19.0918 16.7629 19.1366C16.4497 19.1756 16.132 19.2262 15.8251 19.2752C13.9941 19.567 12.842 19.6838 12.2452 18.4567C11.2781 16.4693 13.2357 14.9972 14.1222 14.4566C14.3027 14.3466 14.4702 14.2169 14.6258 14.0725C16.7685 13.8164 18.793 12.8971 20.5972 11.7456C22.7604 13.038 24.421 15.0833 25.2174 17.5132Z" stroke="#27AE60" stroke-width="0.6" mask="url(#path-1-outside-1_2:134)"/>
</svg>
