<svg width="40" height="36" viewBox="0 0 40 36" fill="none" xmlns="http://www.w3.org/2000/svg">
<path d="M5 12H26.8019C26.9484 12 27.093 12.0322 27.2257 12.0942C27.3584 12.1563 27.4758 12.2468 27.5696 12.3592C27.6635 12.4717 27.7315 12.6033 27.7688 12.745C27.8062 12.8866 27.812 13.0347 27.7858 13.1788L25.6052 25.1788C25.5634 25.4092 25.4419 25.6176 25.2621 25.7677C25.0823 25.9178 24.8555 26 24.6213 26H8.38982C8.15572 26 7.92904 25.9179 7.74927 25.7679C7.5695 25.618 7.44804 25.4097 7.40604 25.1794L4.24055 7.8206C4.19855 7.5903 4.07709 7.38203 3.89732 7.23208C3.71755 7.08213 3.49087 7 3.25677 7H1" stroke="#232323" stroke-width="2" stroke-linecap="round" stroke-linejoin="round"/>
<path d="M10.9375 31C10.9375 32.0701 10.0701 32.9375 9 32.9375C7.92995 32.9375 7.0625 32.0701 7.0625 31C7.0625 29.9299 7.92995 29.0625 9 29.0625C10.0701 29.0625 10.9375 29.9299 10.9375 31Z" fill="black" stroke="#232323" stroke-width="0.125"/>
<path d="M25.9375 31C25.9375 32.0701 25.0701 32.9375 24 32.9375C22.9299 32.9375 22.0625 32.0701 22.0625 31C22.0625 29.9299 22.9299 29.0625 24 29.0625C25.0701 29.0625 25.9375 29.9299 25.9375 31Z" fill="black" stroke="#232323" stroke-width="0.125"/>
<circle cx="31" cy="9" r="9" fill="#27AE60"/>
<path d="M31.7408 8.3632C32.3083 8.4976 32.7675 8.76267 33.1184 9.1584C33.4768 9.54667 33.656 10.0357 33.656 10.6256C33.656 11.4096 33.3909 12.0256 32.8608 12.4736C32.3307 12.9216 31.6811 13.1456 30.912 13.1456C30.3147 13.1456 29.7771 13.0075 29.2992 12.7312C28.8288 12.4549 28.4891 12.0517 28.28 11.5216L29.3776 10.8832C29.6091 11.5552 30.1205 11.8912 30.912 11.8912C31.36 11.8912 31.7147 11.7792 31.976 11.5552C32.2373 11.3237 32.368 11.0139 32.368 10.6256C32.368 10.2373 32.2373 9.9312 31.976 9.7072C31.7147 9.4832 31.36 9.3712 30.912 9.3712H30.6208L30.1056 8.5984L31.7968 6.3696H28.5152V5.16H33.3312V6.2576L31.7408 8.3632Z" fill="white"/>
</svg>
