<svg width="24" height="28" viewBox="0 0 24 28" fill="none" xmlns="http://www.w3.org/2000/svg">
<mask id="path-1-outside-1_21_741" maskUnits="userSpaceOnUse" x="0" y="0" width="24" height="28" fill="black">
<rect fill="white" width="24" height="28"/>
<path d="M22.6267 16.6273L15.4387 9.43961C15.0607 9.06172 14.4951 8.9433 13.9976 9.13789C11.1493 10.2525 8.80365 10.1283 6.82675 8.75822C6.29593 8.39026 5.57646 8.4575 5.11606 8.91791L1.56177 12.4722C1.19955 12.8346 1 13.316 1 13.8282C1 14.3406 1.19955 14.822 1.56177 15.1842L12.8158 26.4382C13.178 26.8006 13.6596 27 14.1718 27C14.684 27 15.1656 26.8004 15.5278 26.4384L16.5438 25.4222C16.6926 25.2734 16.6926 25.0324 16.5438 24.8837C16.3951 24.7349 16.154 24.7349 16.0053 24.8837L14.989 25.8999C14.7708 26.1181 14.4804 26.2383 14.1718 26.2383C13.8629 26.2383 13.5727 26.1181 13.3543 25.8997L2.10033 14.6457C1.88193 14.4273 1.76172 14.1371 1.76172 13.8282C1.76172 13.5196 1.88193 13.2292 2.10033 13.011L5.65482 9.45647C5.85457 9.25671 6.16501 9.22636 6.39273 9.38426C6.59586 9.5249 6.80235 9.65384 7.01202 9.77127C7.03246 10.0654 7.15762 10.3467 7.36928 10.5586L9.14841 12.3377C9.38882 12.5781 9.70482 12.6983 10.0208 12.6983C10.3368 12.6983 10.653 12.5781 10.8934 12.3377L12.6723 10.5586C12.7457 10.4854 12.8084 10.4041 12.8606 10.3158C13.3198 10.1928 13.7911 10.0367 14.2753 9.84724C14.491 9.76274 14.7361 9.81412 14.9002 9.97816L22.0879 17.1661C22.3063 17.3843 22.4265 17.6747 22.4265 17.9836C22.4265 18.2922 22.3063 18.5826 22.0879 18.8008L17.2726 23.6163C17.1238 23.7651 17.1238 24.0061 17.2726 24.1549C17.4214 24.3036 17.6624 24.3036 17.8112 24.1549L22.6267 19.3396C22.9889 18.9774 23.1882 18.4957 23.1882 17.9836C23.1882 17.4712 22.9887 16.9897 22.6267 16.6273ZM10.3549 11.799C10.1708 11.9832 9.87105 11.9832 9.68697 11.799L8.1794 10.2916C9.22914 10.6472 10.3578 10.7419 11.5776 10.5762L10.3549 11.799ZM8.52594 14.7052C9.00697 14.224 9.00697 13.4412 8.52594 12.96L6.74701 11.1812C6.51393 10.948 6.20409 10.8196 5.8744 10.8196C5.54472 10.8196 5.23488 10.948 5.0018 11.181L3.22287 12.9602C2.74164 13.4412 2.74164 14.2242 3.22287 14.7052L5.0018 16.4843C5.24242 16.7247 5.55841 16.8449 5.8744 16.8449C6.1904 16.8449 6.50639 16.7247 6.74701 16.4843L8.52594 14.7052C8.52574 14.7052 8.52574 14.7052 8.52594 14.7052ZM7.98718 14.1666H7.98738L6.20825 15.9456C6.02417 16.1296 5.72464 16.1296 5.54036 15.9456L3.76143 14.1666C3.57735 13.9823 3.57735 13.6828 3.76143 13.4987L5.54036 11.7198C5.62962 11.6305 5.74825 11.5813 5.8744 11.5813C6.00056 11.5813 6.11919 11.6305 6.20825 11.7198L7.98718 13.4987C8.17146 13.6828 8.17146 13.9823 7.98718 14.1666ZM16.9338 6.39571L15.9823 5.92439C15.7438 5.80637 15.4663 5.81966 15.2404 5.9601C15.0142 6.10034 14.8792 6.34314 14.8792 6.60915V7.64005C14.8792 7.91756 15.023 8.16551 15.264 8.30338C15.383 8.37141 15.5133 8.40533 15.6434 8.40533C15.7766 8.40533 15.9097 8.36983 16.0307 8.29861L16.982 7.73903C17.2242 7.5966 17.3684 7.33377 17.3583 7.05309C17.3482 6.7722 17.1855 6.52048 16.9338 6.39571ZM16.596 7.08244L15.6411 7.64262C15.6411 7.64262 15.6409 7.64163 15.6409 7.64005L15.6444 6.60696L16.5968 7.07768C16.5972 7.07887 16.5972 7.08185 16.596 7.08244ZM15.3009 17.9792C15.3009 18.3087 15.4294 18.6187 15.6625 18.8518L17.4414 20.6307C17.6745 20.8638 17.9843 20.9921 18.3138 20.9921C18.6435 20.9921 18.9536 20.8638 19.1864 20.6307L20.9654 18.8518C21.1986 18.6187 21.327 18.3089 21.327 17.9792C21.327 17.6495 21.1986 17.3397 20.9654 17.1066L19.1864 15.3277C18.7054 14.8464 17.9225 14.8466 17.4414 15.3277L15.6623 17.1066C15.4294 17.3397 15.3009 17.6495 15.3009 17.9792ZM16.201 17.6451L17.98 15.8662C18.072 15.7742 18.193 15.7281 18.314 15.7281C18.4348 15.7281 18.5558 15.7742 18.6479 15.8662L20.4268 17.6451C20.5161 17.7344 20.5653 17.853 20.5653 17.9792C20.5653 18.1053 20.5161 18.224 20.4268 18.313L18.6479 20.0922C18.5586 20.1812 18.44 20.2304 18.3138 20.2304C18.1879 20.2304 18.0692 20.1812 17.98 20.092L16.201 18.313C16.1118 18.224 16.0626 18.1053 16.0626 17.9792C16.0626 17.853 16.1118 17.7344 16.201 17.6451ZM16.9612 3.89949L17.3194 4.82288C17.4214 5.08551 17.6479 5.27118 17.9254 5.31978C17.9722 5.32791 18.0189 5.33208 18.0653 5.33208C18.2934 5.33208 18.51 5.23448 18.6637 5.05794L19.412 4.19823C19.6131 3.96713 19.6643 3.64816 19.5453 3.36569C19.4265 3.08322 19.1624 2.89676 18.8566 2.8793L17.7501 2.81563C17.4783 2.79976 17.2202 2.92195 17.06 3.14233C16.8997 3.36252 16.8628 3.64558 16.9612 3.89949ZM17.6759 3.59044C17.6872 3.57477 17.7005 3.57576 17.7064 3.57596L18.8129 3.63963C18.821 3.64023 18.8349 3.64102 18.8435 3.66125C18.852 3.68149 18.8429 3.692 18.8375 3.69815L18.0893 4.55786C18.0853 4.56242 18.0762 4.57314 18.0565 4.56956C18.0369 4.56619 18.0318 4.5531 18.0296 4.54735L17.6715 3.62416C17.6693 3.61861 17.6644 3.60611 17.6759 3.59044ZM9.14821 20.6307C9.38129 20.8638 9.69113 20.9921 10.0208 20.9921C10.3505 20.9921 10.6603 20.8638 10.8934 20.6307L12.6723 18.8518C12.9054 18.6187 13.0338 18.3089 13.0338 17.9792C13.0338 17.6495 12.9054 17.3397 12.6723 17.1066L10.8934 15.3277C10.4122 14.8464 9.62944 14.8466 9.14821 15.3277L7.36928 17.1066C6.88805 17.5876 6.88805 18.3706 7.36928 18.8516L9.14821 20.6307ZM7.90784 17.6451L9.68697 15.8662C9.77901 15.7742 9.89981 15.7281 10.0208 15.7281C10.1418 15.7281 10.2628 15.7742 10.3549 15.8662L12.1338 17.6451C12.2231 17.7344 12.272 17.853 12.272 17.9792C12.272 18.1053 12.2231 18.224 12.1338 18.313L10.3549 20.0922C10.2656 20.1812 10.147 20.2304 10.0208 20.2304C9.89465 20.2304 9.77623 20.1812 9.68697 20.092L7.90804 18.313C7.81877 18.224 7.76958 18.1053 7.76958 17.9792C7.76958 17.853 7.81877 17.7344 7.90784 17.6451ZM15.04 11.181C14.8069 10.948 14.4971 10.8196 14.1674 10.8196C13.8377 10.8196 13.5279 10.948 13.2948 11.181L11.5159 12.96C11.0347 13.4412 11.0347 14.224 11.5159 14.7052L13.2948 16.4841C13.5354 16.7247 13.8514 16.8449 14.1674 16.8449C14.4834 16.8449 14.7994 16.7247 15.04 16.4841L16.819 14.7052C17.3 14.224 17.3 13.4412 16.819 12.96L15.04 11.181ZM16.2804 14.1666L14.5013 15.9456C14.3172 16.1296 14.0177 16.1296 13.8334 15.9456L12.0544 14.1666C11.8704 13.9823 11.8704 13.6828 12.0544 13.4987L13.8336 11.7198C13.9226 11.6305 14.0413 11.5813 14.1674 11.5813C14.2936 11.5813 14.4122 11.6305 14.5015 11.7198L16.2804 13.4987C16.4645 13.6828 16.4645 13.9823 16.2804 14.1666ZM13.2948 24.7773C13.5354 25.0177 13.8514 25.1382 14.1674 25.1382C14.4834 25.1382 14.7994 25.0177 15.04 24.7773L16.819 22.9982C17.052 22.7651 17.1804 22.4553 17.1804 22.1258C17.1804 21.7961 17.052 21.4863 16.819 21.253L15.04 19.4743C14.8069 19.2412 14.4971 19.1128 14.1674 19.1128C13.8377 19.1128 13.5279 19.2412 13.2948 19.4743L11.5159 21.2532C11.2828 21.4863 11.1545 21.7961 11.1545 22.1258C11.1545 22.4553 11.2828 22.7653 11.5159 22.9984L13.2948 24.7773ZM12.0544 21.7917L13.8334 20.0128C13.9226 19.9236 14.0413 19.8746 14.1674 19.8746C14.2936 19.8746 14.4122 19.9236 14.5013 20.0128L16.2804 21.7917C16.3695 21.881 16.4187 21.9996 16.4187 22.1258C16.4187 22.2518 16.3695 22.3706 16.2804 22.4596L14.5013 24.2386C14.3172 24.4227 14.0177 24.4229 13.8334 24.2386L12.0544 22.4596C11.9652 22.3706 11.9162 22.2518 11.9162 22.1258C11.9162 21.9996 11.9652 21.881 12.0544 21.7917ZM9.39597 7.15504C9.57449 7.3058 9.79805 7.38654 10.0278 7.38654C10.0825 7.38654 10.1375 7.38197 10.1924 7.37265C10.5471 7.31255 10.8887 7.22923 11.2181 7.1245C11.2221 7.1235 11.2257 7.12212 11.2294 7.12093C13.3081 6.4566 14.893 4.90182 16.0535 2.39529C16.1955 2.08862 16.1719 1.73593 15.9902 1.45187C15.8095 1.16881 15.501 1 15.165 1H10.9654C9.90814 1 9.04784 1.86031 9.04784 2.91779V4.26646C9.04784 4.47673 9.21843 4.64732 9.4287 4.64732C9.63896 4.64732 9.80956 4.47673 9.80956 4.26646V2.91779C9.80956 2.28024 10.3281 1.76172 10.9654 1.76172H15.165C15.2687 1.76172 15.3245 1.8244 15.3483 1.86189C15.3679 1.89264 15.4086 1.97496 15.3622 2.07513C15.2552 2.30623 15.1442 2.528 15.0295 2.74164C14.825 2.59644 14.5774 2.51332 14.3172 2.51332H11.8013C11.1209 2.51332 10.5673 3.06696 10.5673 3.74734V6.2632C10.5673 6.34691 10.5766 6.42923 10.5929 6.50996C10.4203 6.55341 10.2446 6.59129 10.0648 6.62164C9.97797 6.63672 9.91628 6.59764 9.88731 6.57324C9.85835 6.54865 9.80956 6.49429 9.80956 6.40582V6.03845C9.80956 5.82799 9.63896 5.65759 9.4287 5.65759C9.21843 5.65759 9.04784 5.82799 9.04784 6.03845V6.40582C9.04784 6.69524 9.17479 6.96819 9.39597 7.15504ZM11.329 3.74734C11.329 3.48689 11.5409 3.27504 11.8013 3.27504H14.3172C14.4404 3.27504 14.5558 3.32443 14.6421 3.40675C13.7509 4.81534 12.6549 5.7653 11.3294 6.27689C11.3294 6.27232 11.329 6.26776 11.329 6.2632V3.74734Z"/>
</mask>
<path d="M22.6267 16.6273L15.4387 9.43961C15.0607 9.06172 14.4951 8.9433 13.9976 9.13789C11.1493 10.2525 8.80365 10.1283 6.82675 8.75822C6.29593 8.39026 5.57646 8.4575 5.11606 8.91791L1.56177 12.4722C1.19955 12.8346 1 13.316 1 13.8282C1 14.3406 1.19955 14.822 1.56177 15.1842L12.8158 26.4382C13.178 26.8006 13.6596 27 14.1718 27C14.684 27 15.1656 26.8004 15.5278 26.4384L16.5438 25.4222C16.6926 25.2734 16.6926 25.0324 16.5438 24.8837C16.3951 24.7349 16.154 24.7349 16.0053 24.8837L14.989 25.8999C14.7708 26.1181 14.4804 26.2383 14.1718 26.2383C13.8629 26.2383 13.5727 26.1181 13.3543 25.8997L2.10033 14.6457C1.88193 14.4273 1.76172 14.1371 1.76172 13.8282C1.76172 13.5196 1.88193 13.2292 2.10033 13.011L5.65482 9.45647C5.85457 9.25671 6.16501 9.22636 6.39273 9.38426C6.59586 9.5249 6.80235 9.65384 7.01202 9.77127C7.03246 10.0654 7.15762 10.3467 7.36928 10.5586L9.14841 12.3377C9.38882 12.5781 9.70482 12.6983 10.0208 12.6983C10.3368 12.6983 10.653 12.5781 10.8934 12.3377L12.6723 10.5586C12.7457 10.4854 12.8084 10.4041 12.8606 10.3158C13.3198 10.1928 13.7911 10.0367 14.2753 9.84724C14.491 9.76274 14.7361 9.81412 14.9002 9.97816L22.0879 17.1661C22.3063 17.3843 22.4265 17.6747 22.4265 17.9836C22.4265 18.2922 22.3063 18.5826 22.0879 18.8008L17.2726 23.6163C17.1238 23.7651 17.1238 24.0061 17.2726 24.1549C17.4214 24.3036 17.6624 24.3036 17.8112 24.1549L22.6267 19.3396C22.9889 18.9774 23.1882 18.4957 23.1882 17.9836C23.1882 17.4712 22.9887 16.9897 22.6267 16.6273ZM10.3549 11.799C10.1708 11.9832 9.87105 11.9832 9.68697 11.799L8.1794 10.2916C9.22914 10.6472 10.3578 10.7419 11.5776 10.5762L10.3549 11.799ZM8.52594 14.7052C9.00697 14.224 9.00697 13.4412 8.52594 12.96L6.74701 11.1812C6.51393 10.948 6.20409 10.8196 5.8744 10.8196C5.54472 10.8196 5.23488 10.948 5.0018 11.181L3.22287 12.9602C2.74164 13.4412 2.74164 14.2242 3.22287 14.7052L5.0018 16.4843C5.24242 16.7247 5.55841 16.8449 5.8744 16.8449C6.1904 16.8449 6.50639 16.7247 6.74701 16.4843L8.52594 14.7052C8.52574 14.7052 8.52574 14.7052 8.52594 14.7052ZM7.98718 14.1666H7.98738L6.20825 15.9456C6.02417 16.1296 5.72464 16.1296 5.54036 15.9456L3.76143 14.1666C3.57735 13.9823 3.57735 13.6828 3.76143 13.4987L5.54036 11.7198C5.62962 11.6305 5.74825 11.5813 5.8744 11.5813C6.00056 11.5813 6.11919 11.6305 6.20825 11.7198L7.98718 13.4987C8.17146 13.6828 8.17146 13.9823 7.98718 14.1666ZM16.9338 6.39571L15.9823 5.92439C15.7438 5.80637 15.4663 5.81966 15.2404 5.9601C15.0142 6.10034 14.8792 6.34314 14.8792 6.60915V7.64005C14.8792 7.91756 15.023 8.16551 15.264 8.30338C15.383 8.37141 15.5133 8.40533 15.6434 8.40533C15.7766 8.40533 15.9097 8.36983 16.0307 8.29861L16.982 7.73903C17.2242 7.5966 17.3684 7.33377 17.3583 7.05309C17.3482 6.7722 17.1855 6.52048 16.9338 6.39571ZM16.596 7.08244L15.6411 7.64262C15.6411 7.64262 15.6409 7.64163 15.6409 7.64005L15.6444 6.60696L16.5968 7.07768C16.5972 7.07887 16.5972 7.08185 16.596 7.08244ZM15.3009 17.9792C15.3009 18.3087 15.4294 18.6187 15.6625 18.8518L17.4414 20.6307C17.6745 20.8638 17.9843 20.9921 18.3138 20.9921C18.6435 20.9921 18.9536 20.8638 19.1864 20.6307L20.9654 18.8518C21.1986 18.6187 21.327 18.3089 21.327 17.9792C21.327 17.6495 21.1986 17.3397 20.9654 17.1066L19.1864 15.3277C18.7054 14.8464 17.9225 14.8466 17.4414 15.3277L15.6623 17.1066C15.4294 17.3397 15.3009 17.6495 15.3009 17.9792ZM16.201 17.6451L17.98 15.8662C18.072 15.7742 18.193 15.7281 18.314 15.7281C18.4348 15.7281 18.5558 15.7742 18.6479 15.8662L20.4268 17.6451C20.5161 17.7344 20.5653 17.853 20.5653 17.9792C20.5653 18.1053 20.5161 18.224 20.4268 18.313L18.6479 20.0922C18.5586 20.1812 18.44 20.2304 18.3138 20.2304C18.1879 20.2304 18.0692 20.1812 17.98 20.092L16.201 18.313C16.1118 18.224 16.0626 18.1053 16.0626 17.9792C16.0626 17.853 16.1118 17.7344 16.201 17.6451ZM16.9612 3.89949L17.3194 4.82288C17.4214 5.08551 17.6479 5.27118 17.9254 5.31978C17.9722 5.32791 18.0189 5.33208 18.0653 5.33208C18.2934 5.33208 18.51 5.23448 18.6637 5.05794L19.412 4.19823C19.6131 3.96713 19.6643 3.64816 19.5453 3.36569C19.4265 3.08322 19.1624 2.89676 18.8566 2.8793L17.7501 2.81563C17.4783 2.79976 17.2202 2.92195 17.06 3.14233C16.8997 3.36252 16.8628 3.64558 16.9612 3.89949ZM17.6759 3.59044C17.6872 3.57477 17.7005 3.57576 17.7064 3.57596L18.8129 3.63963C18.821 3.64023 18.8349 3.64102 18.8435 3.66125C18.852 3.68149 18.8429 3.692 18.8375 3.69815L18.0893 4.55786C18.0853 4.56242 18.0762 4.57314 18.0565 4.56956C18.0369 4.56619 18.0318 4.5531 18.0296 4.54735L17.6715 3.62416C17.6693 3.61861 17.6644 3.60611 17.6759 3.59044ZM9.14821 20.6307C9.38129 20.8638 9.69113 20.9921 10.0208 20.9921C10.3505 20.9921 10.6603 20.8638 10.8934 20.6307L12.6723 18.8518C12.9054 18.6187 13.0338 18.3089 13.0338 17.9792C13.0338 17.6495 12.9054 17.3397 12.6723 17.1066L10.8934 15.3277C10.4122 14.8464 9.62944 14.8466 9.14821 15.3277L7.36928 17.1066C6.88805 17.5876 6.88805 18.3706 7.36928 18.8516L9.14821 20.6307ZM7.90784 17.6451L9.68697 15.8662C9.77901 15.7742 9.89981 15.7281 10.0208 15.7281C10.1418 15.7281 10.2628 15.7742 10.3549 15.8662L12.1338 17.6451C12.2231 17.7344 12.272 17.853 12.272 17.9792C12.272 18.1053 12.2231 18.224 12.1338 18.313L10.3549 20.0922C10.2656 20.1812 10.147 20.2304 10.0208 20.2304C9.89465 20.2304 9.77623 20.1812 9.68697 20.092L7.90804 18.313C7.81877 18.224 7.76958 18.1053 7.76958 17.9792C7.76958 17.853 7.81877 17.7344 7.90784 17.6451ZM15.04 11.181C14.8069 10.948 14.4971 10.8196 14.1674 10.8196C13.8377 10.8196 13.5279 10.948 13.2948 11.181L11.5159 12.96C11.0347 13.4412 11.0347 14.224 11.5159 14.7052L13.2948 16.4841C13.5354 16.7247 13.8514 16.8449 14.1674 16.8449C14.4834 16.8449 14.7994 16.7247 15.04 16.4841L16.819 14.7052C17.3 14.224 17.3 13.4412 16.819 12.96L15.04 11.181ZM16.2804 14.1666L14.5013 15.9456C14.3172 16.1296 14.0177 16.1296 13.8334 15.9456L12.0544 14.1666C11.8704 13.9823 11.8704 13.6828 12.0544 13.4987L13.8336 11.7198C13.9226 11.6305 14.0413 11.5813 14.1674 11.5813C14.2936 11.5813 14.4122 11.6305 14.5015 11.7198L16.2804 13.4987C16.4645 13.6828 16.4645 13.9823 16.2804 14.1666ZM13.2948 24.7773C13.5354 25.0177 13.8514 25.1382 14.1674 25.1382C14.4834 25.1382 14.7994 25.0177 15.04 24.7773L16.819 22.9982C17.052 22.7651 17.1804 22.4553 17.1804 22.1258C17.1804 21.7961 17.052 21.4863 16.819 21.253L15.04 19.4743C14.8069 19.2412 14.4971 19.1128 14.1674 19.1128C13.8377 19.1128 13.5279 19.2412 13.2948 19.4743L11.5159 21.2532C11.2828 21.4863 11.1545 21.7961 11.1545 22.1258C11.1545 22.4553 11.2828 22.7653 11.5159 22.9984L13.2948 24.7773ZM12.0544 21.7917L13.8334 20.0128C13.9226 19.9236 14.0413 19.8746 14.1674 19.8746C14.2936 19.8746 14.4122 19.9236 14.5013 20.0128L16.2804 21.7917C16.3695 21.881 16.4187 21.9996 16.4187 22.1258C16.4187 22.2518 16.3695 22.3706 16.2804 22.4596L14.5013 24.2386C14.3172 24.4227 14.0177 24.4229 13.8334 24.2386L12.0544 22.4596C11.9652 22.3706 11.9162 22.2518 11.9162 22.1258C11.9162 21.9996 11.9652 21.881 12.0544 21.7917ZM9.39597 7.15504C9.57449 7.3058 9.79805 7.38654 10.0278 7.38654C10.0825 7.38654 10.1375 7.38197 10.1924 7.37265C10.5471 7.31255 10.8887 7.22923 11.2181 7.1245C11.2221 7.1235 11.2257 7.12212 11.2294 7.12093C13.3081 6.4566 14.893 4.90182 16.0535 2.39529C16.1955 2.08862 16.1719 1.73593 15.9902 1.45187C15.8095 1.16881 15.501 1 15.165 1H10.9654C9.90814 1 9.04784 1.86031 9.04784 2.91779V4.26646C9.04784 4.47673 9.21843 4.64732 9.4287 4.64732C9.63896 4.64732 9.80956 4.47673 9.80956 4.26646V2.91779C9.80956 2.28024 10.3281 1.76172 10.9654 1.76172H15.165C15.2687 1.76172 15.3245 1.8244 15.3483 1.86189C15.3679 1.89264 15.4086 1.97496 15.3622 2.07513C15.2552 2.30623 15.1442 2.528 15.0295 2.74164C14.825 2.59644 14.5774 2.51332 14.3172 2.51332H11.8013C11.1209 2.51332 10.5673 3.06696 10.5673 3.74734V6.2632C10.5673 6.34691 10.5766 6.42923 10.5929 6.50996C10.4203 6.55341 10.2446 6.59129 10.0648 6.62164C9.97797 6.63672 9.91628 6.59764 9.88731 6.57324C9.85835 6.54865 9.80956 6.49429 9.80956 6.40582V6.03845C9.80956 5.82799 9.63896 5.65759 9.4287 5.65759C9.21843 5.65759 9.04784 5.82799 9.04784 6.03845V6.40582C9.04784 6.69524 9.17479 6.96819 9.39597 7.15504ZM11.329 3.74734C11.329 3.48689 11.5409 3.27504 11.8013 3.27504H14.3172C14.4404 3.27504 14.5558 3.32443 14.6421 3.40675C13.7509 4.81534 12.6549 5.7653 11.3294 6.27689C11.3294 6.27232 11.329 6.26776 11.329 6.2632V3.74734Z" fill="#232323"/>
<path d="M15.4387 9.43961L15.5094 9.36889L15.5094 9.36888L15.4387 9.43961ZM13.9976 9.13789L13.9612 9.04476L13.9612 9.04477L13.9976 9.13789ZM6.82675 8.75822L6.76978 8.84041L6.76979 8.84042L6.82675 8.75822ZM1.56177 12.4722L1.49106 12.4015L1.49104 12.4015L1.56177 12.4722ZM12.8158 26.4382L12.8865 26.3675L12.8865 26.3675L12.8158 26.4382ZM15.5278 26.4384L15.5985 26.5092L15.5985 26.5091L15.5278 26.4384ZM16.5438 25.4222L16.4731 25.3515L16.4731 25.3515L16.5438 25.4222ZM16.5438 24.8837L16.4731 24.9544L16.5438 24.8837ZM13.3543 25.8997L13.2836 25.9704L13.3543 25.8997ZM2.10033 14.6457L2.02962 14.7164L2.10033 14.6457ZM2.10033 13.011L2.17101 13.0817L2.17104 13.0817L2.10033 13.011ZM6.39273 9.38426L6.33575 9.46644L6.33581 9.46648L6.39273 9.38426ZM7.01202 9.77127L7.11178 9.76434L7.10804 9.71043L7.06089 9.68402L7.01202 9.77127ZM7.36928 10.5586L7.29853 10.6293L7.29857 10.6293L7.36928 10.5586ZM9.14841 12.3377L9.21912 12.267L9.14841 12.3377ZM10.8934 12.3377L10.9641 12.4084L10.9641 12.4084L10.8934 12.3377ZM12.6723 10.5586L12.6017 10.4878L12.6016 10.4879L12.6723 10.5586ZM12.8606 10.3158L12.8347 10.2192L12.7953 10.2297L12.7745 10.2649L12.8606 10.3158ZM14.2753 9.84724L14.3118 9.94037L14.3118 9.94035L14.2753 9.84724ZM14.9002 9.97816L14.9709 9.90746L14.9709 9.90745L14.9002 9.97816ZM22.0879 17.1661L22.0172 17.2368L22.0172 17.2368L22.0879 17.1661ZM22.0879 18.8008L22.0172 18.7301L22.0172 18.7301L22.0879 18.8008ZM17.2726 23.6163L17.3433 23.687L17.3433 23.687L17.2726 23.6163ZM17.8112 24.1549L17.7405 24.0841L17.7405 24.0842L17.8112 24.1549ZM22.6267 19.3396L22.6974 19.4103L22.6974 19.4103L22.6267 19.3396ZM10.3549 11.799L10.2841 11.7282L10.2841 11.7283L10.3549 11.799ZM9.68697 11.799L9.75771 11.7283L9.75767 11.7282L9.68697 11.799ZM8.1794 10.2916L8.21149 10.1969L8.10869 10.3623L8.1794 10.2916ZM11.5776 10.5762L11.6483 10.6469L11.858 10.4372L11.5641 10.4771L11.5776 10.5762ZM8.52594 14.7052L8.59665 14.7759L8.59667 14.7759L8.52594 14.7052ZM8.52594 12.96L8.59667 12.8893L8.59665 12.8893L8.52594 12.96ZM6.74701 11.1812L6.67627 11.2519L6.6763 11.252L6.74701 11.1812ZM5.0018 11.181L4.93109 11.1103L4.93109 11.1103L5.0018 11.181ZM3.22287 12.9602L3.29357 13.0309L3.29358 13.0309L3.22287 12.9602ZM3.22287 14.7052L3.29358 14.6345L3.29357 14.6345L3.22287 14.7052ZM5.0018 16.4843L4.93109 16.555L4.93112 16.5551L5.0018 16.4843ZM6.74701 16.4843L6.81769 16.5551L6.81772 16.555L6.74701 16.4843ZM7.98718 14.1666L7.91647 14.0959L7.74576 14.2666H7.98718V14.1666ZM7.98738 14.1666L8.05809 14.2373L8.22882 14.0666H7.98738V14.1666ZM6.20825 15.9456L6.13755 15.8748L6.13754 15.8748L6.20825 15.9456ZM5.54036 15.9456L5.46965 16.0163L5.46969 16.0163L5.54036 15.9456ZM3.76143 14.1666L3.69068 14.2373L3.69072 14.2373L3.76143 14.1666ZM5.54036 11.7198L5.46965 11.6491L5.54036 11.7198ZM6.20825 11.7198L6.13746 11.7904L6.13754 11.7905L6.20825 11.7198ZM7.98718 13.4987L7.91647 13.5694L7.91651 13.5695L7.98718 13.4987ZM15.9823 5.92439L16.0266 5.83478L16.0266 5.83477L15.9823 5.92439ZM15.2404 5.9601L15.2931 6.04508L15.2932 6.04503L15.2404 5.9601ZM15.264 8.30338L15.2143 8.39018L15.2143 8.39019L15.264 8.30338ZM16.0307 8.29861L15.98 8.21242L15.9799 8.21243L16.0307 8.29861ZM16.982 7.73903L16.9313 7.65283L16.9313 7.65283L16.982 7.73903ZM17.3583 7.05309L17.2584 7.05668V7.05669L17.3583 7.05309ZM15.6411 7.64262L15.543 7.66224L15.5705 7.79993L15.6917 7.72888L15.6411 7.64262ZM15.6409 7.64005L15.5409 7.6397V7.64005H15.6409ZM15.6444 6.60696L15.6887 6.51732L15.545 6.44626L15.5444 6.60662L15.6444 6.60696ZM16.5968 7.07768L16.6917 7.04606L16.6785 7.00651L16.6411 6.98804L16.5968 7.07768ZM15.6625 18.8518L15.5918 18.9225L15.6625 18.8518ZM17.4414 20.6307L17.3707 20.7014L17.4414 20.6307ZM19.1864 20.6307L19.1157 20.56L19.1157 20.56L19.1864 20.6307ZM20.9654 18.8518L20.8947 18.781L20.8947 18.7811L20.9654 18.8518ZM20.9654 17.1066L20.8947 17.1773L20.8947 17.1773L20.9654 17.1066ZM19.1864 15.3277L19.1157 15.3983L19.1157 15.3984L19.1864 15.3277ZM17.4414 15.3277L17.5121 15.3984L17.5121 15.3984L17.4414 15.3277ZM15.6623 17.1066L15.5916 17.0359L15.5916 17.0359L15.6623 17.1066ZM20.4268 18.313L20.3562 18.2422L20.3561 18.2423L20.4268 18.313ZM18.6479 20.0922L18.7185 20.163L18.7186 20.1629L18.6479 20.0922ZM16.201 18.313L16.2718 18.2423L16.2717 18.2422L16.201 18.313ZM16.9612 3.89949L16.8679 3.93562L16.868 3.93566L16.9612 3.89949ZM17.3194 4.82288L17.2262 4.85905L17.2262 4.85907L17.3194 4.82288ZM17.9254 5.31978L17.9082 5.41828L17.9083 5.4183L17.9254 5.31978ZM18.6637 5.05794L18.7392 5.12361L18.7392 5.12359L18.6637 5.05794ZM19.412 4.19823L19.3365 4.13257L19.3365 4.13258L19.412 4.19823ZM19.5453 3.36569L19.4531 3.40447L19.4531 3.40452L19.5453 3.36569ZM18.8566 2.8793L18.8508 2.97914L18.8509 2.97914L18.8566 2.8793ZM17.7501 2.81563L17.7442 2.91546L17.7443 2.91546L17.7501 2.81563ZM17.06 3.14233L17.1408 3.20119L17.1408 3.20115L17.06 3.14233ZM17.6759 3.59044L17.7565 3.64962L17.757 3.64895L17.6759 3.59044ZM17.7064 3.57596L17.7122 3.47609L17.7098 3.47601L17.7064 3.57596ZM18.8129 3.63963L18.8202 3.53989L18.8187 3.5398L18.8129 3.63963ZM18.8435 3.66125L18.7513 3.7001V3.7001L18.8435 3.66125ZM18.8375 3.69815L18.7621 3.63247L18.7621 3.6325L18.8375 3.69815ZM18.0893 4.55786L18.0138 4.49221L18.0138 4.49224L18.0893 4.55786ZM18.0565 4.56956L18.0744 4.47117L18.0735 4.47101L18.0565 4.56956ZM18.0296 4.54735L18.1231 4.51188L18.1228 4.51119L18.0296 4.54735ZM17.6715 3.62416L17.7648 3.588L17.7646 3.5876L17.6715 3.62416ZM9.14821 20.6307L9.07749 20.7014L9.0775 20.7014L9.14821 20.6307ZM10.8934 20.6307L10.9641 20.7014L10.8934 20.6307ZM12.6723 18.8518L12.7431 18.9225L12.6723 18.8518ZM12.6723 17.1066L12.7431 17.0359L12.6723 17.1066ZM10.8934 15.3277L10.9641 15.2569L10.8934 15.3277ZM9.14821 15.3277L9.07751 15.2569L9.0775 15.2569L9.14821 15.3277ZM7.36928 17.1066L7.43997 17.1773L7.43999 17.1773L7.36928 17.1066ZM7.36928 18.8516L7.43999 18.7809L7.43997 18.7809L7.36928 18.8516ZM9.68697 15.8662L9.75767 15.9369L9.75768 15.9369L9.68697 15.8662ZM12.1338 18.313L12.0632 18.2422L12.0631 18.2423L12.1338 18.313ZM10.3549 20.0922L10.4255 20.163L10.4256 20.1629L10.3549 20.0922ZM9.68697 20.092L9.61625 20.1627L9.68697 20.092ZM7.90804 18.313L7.97875 18.2423L7.97867 18.2422L7.90804 18.313ZM15.04 11.181L15.1107 11.1103L15.04 11.181ZM13.2948 11.181L13.2241 11.1103L13.2948 11.181ZM11.5159 12.96L11.4452 12.8893L11.5159 12.96ZM11.5159 14.7052L11.4452 14.7759L11.5159 14.7052ZM16.819 14.7052L16.8897 14.7759L16.8897 14.7759L16.819 14.7052ZM16.819 12.96L16.8897 12.8893L16.8897 12.8893L16.819 12.96ZM16.2804 14.1666L16.3511 14.2373L16.3511 14.2373L16.2804 14.1666ZM14.5013 15.9456L14.4306 15.8748L14.4306 15.8748L14.5013 15.9456ZM13.8334 15.9456L13.7627 16.0163L13.7627 16.0163L13.8334 15.9456ZM12.0544 14.1666L11.9837 14.2373L11.9837 14.2373L12.0544 14.1666ZM12.0544 13.4987L11.9837 13.428L11.9837 13.428L12.0544 13.4987ZM13.8336 11.7198L13.9043 11.7905L13.9044 11.7904L13.8336 11.7198ZM13.2948 24.7773L13.2241 24.848L13.2241 24.8481L13.2948 24.7773ZM15.04 24.7773L15.1107 24.8481L15.1107 24.848L15.04 24.7773ZM16.819 22.9982L16.7482 22.9275L16.7482 22.9275L16.819 22.9982ZM16.819 21.253L16.8897 21.1823L16.8897 21.1823L16.819 21.253ZM15.04 19.4743L14.9693 19.545L14.9693 19.545L15.04 19.4743ZM13.2948 19.4743L13.2241 19.4035L13.2948 19.4743ZM11.5159 21.2532L11.4452 21.1825L11.5159 21.2532ZM11.5159 22.9984L11.4452 23.0691L11.5159 22.9984ZM14.5013 20.0128L14.4305 20.0835L14.4306 20.0835L14.5013 20.0128ZM16.2804 21.7917L16.3512 21.7211L16.3511 21.721L16.2804 21.7917ZM16.2804 22.4596L16.3511 22.5304L16.3511 22.5304L16.2804 22.4596ZM14.5013 24.2386L14.4306 24.1679L14.4306 24.1679L14.5013 24.2386ZM12.0544 22.4596L12.1252 22.3889L12.1251 22.3889L12.0544 22.4596ZM10.1924 7.37265L10.1757 7.27406L10.1757 7.27406L10.1924 7.37265ZM11.2181 7.1245L11.1938 7.02729L11.1878 7.0292L11.2181 7.1245ZM11.2294 7.12093L11.2596 7.21628L11.2599 7.21618L11.2294 7.12093ZM16.0535 2.39529L15.9627 2.35327L15.9627 2.35328L16.0535 2.39529ZM15.9902 1.45187L15.9059 1.50568L15.9059 1.50576L15.9902 1.45187ZM15.3483 1.86189L15.2639 1.91549L15.264 1.91572L15.3483 1.86189ZM15.3622 2.07513L15.2714 2.03309L15.2714 2.03314L15.3622 2.07513ZM15.0295 2.74164L14.9716 2.82318L15.064 2.88879L15.1176 2.78893L15.0295 2.74164ZM10.5929 6.50996L10.6173 6.60694L10.7098 6.58367L10.6909 6.49021L10.5929 6.50996ZM10.0648 6.62164L10.0482 6.52304L10.0478 6.52312L10.0648 6.62164ZM9.88731 6.57324L9.82258 6.64946L9.82288 6.64972L9.88731 6.57324ZM14.6421 3.40675L14.7266 3.46022L14.7704 3.39097L14.7111 3.3344L14.6421 3.40675ZM11.3294 6.27689H11.2294V6.42267L11.3654 6.37018L11.3294 6.27689ZM22.6974 16.5566L15.5094 9.36889L15.368 9.51032L22.556 16.698L22.6974 16.5566ZM15.5094 9.36888C15.1033 8.96294 14.4957 8.83569 13.9612 9.04476L14.034 9.23102C14.4945 9.05091 15.018 9.1605 15.368 9.51033L15.5094 9.36888ZM13.9612 9.04477C11.1344 10.151 8.82582 10.022 6.88371 8.67603L6.76979 8.84042C8.78148 10.2346 11.1642 10.3541 14.0341 9.23102L13.9612 9.04477ZM6.88372 8.67604C6.31267 8.28018 5.53951 8.35303 5.04535 8.8472L5.18677 8.98862C5.61341 8.56198 6.27919 8.50033 6.76978 8.84041L6.88372 8.67604ZM5.04535 8.8472L1.49106 12.4015L1.63248 12.5429L5.18677 8.98862L5.04535 8.8472ZM1.49104 12.4015C1.11011 12.7826 0.9 13.2895 0.9 13.8282H1.1C1.1 13.3426 1.289 12.8866 1.6325 12.5429L1.49104 12.4015ZM0.9 13.8282C0.9 14.3671 1.1101 14.874 1.49106 15.2549L1.63248 15.1135C1.28901 14.7701 1.1 14.3141 1.1 13.8282H0.9ZM1.49106 15.2549L12.7451 26.5089L12.8865 26.3675L1.63248 15.1135L1.49106 15.2549ZM12.745 26.5089C13.126 26.8901 13.6331 27.1 14.1718 27.1V26.9C13.6861 26.9 13.2299 26.7112 12.8865 26.3675L12.745 26.5089ZM14.1718 27.1C14.7105 27.1 15.2175 26.8899 15.5985 26.5092L15.4571 26.3677C15.1136 26.711 14.6574 26.9 14.1718 26.9V27.1ZM15.5985 26.5091L16.6145 25.4929L16.4731 25.3515L15.4571 26.3677L15.5985 26.5091ZM16.6145 25.4929C16.8024 25.3051 16.8024 25.0008 16.6145 24.8129L16.4731 24.9544C16.5828 25.0641 16.5828 25.2418 16.4731 25.3515L16.6145 25.4929ZM16.6145 24.8129C16.4267 24.6251 16.1224 24.6251 15.9346 24.8129L16.076 24.9544C16.1857 24.8446 16.3634 24.8446 16.4731 24.9544L16.6145 24.8129ZM15.9346 24.8129L14.9183 25.8292L15.0598 25.9706L16.076 24.9544L15.9346 24.8129ZM14.9183 25.8292C14.7189 26.0286 14.4539 26.1383 14.1718 26.1383V26.3383C14.5069 26.3383 14.8228 26.2076 15.0598 25.9706L14.9183 25.8292ZM14.1718 26.1383C13.8895 26.1383 13.6247 26.0286 13.425 25.829L13.2836 25.9704C13.5208 26.2075 13.8364 26.3383 14.1718 26.3383V26.1383ZM13.425 25.829L2.17104 14.575L2.02962 14.7164L13.2836 25.9704L13.425 25.829ZM2.17104 14.575C1.97139 14.3753 1.86172 14.1105 1.86172 13.8282H1.66172C1.66172 14.1636 1.79246 14.4792 2.02962 14.7164L2.17104 14.575ZM1.86172 13.8282C1.86172 13.5461 1.9714 13.2811 2.17101 13.0817L2.02965 12.9402C1.79245 13.1772 1.66172 13.4931 1.66172 13.8282H1.86172ZM2.17104 13.0817L5.72553 9.52718L5.58411 9.38576L2.02962 12.9402L2.17104 13.0817ZM5.72553 9.52718C5.89207 9.36064 6.1489 9.33688 6.33575 9.46644L6.44971 9.30208C6.18112 9.11585 5.81707 9.15279 5.58411 9.38576L5.72553 9.52718ZM6.33581 9.46648C6.54149 9.60889 6.75068 9.73951 6.96316 9.85852L7.06089 9.68402C6.85403 9.56816 6.65022 9.44091 6.44966 9.30205L6.33581 9.46648ZM6.91226 9.7782C6.93434 10.096 7.06953 10.4 7.29853 10.6293L7.44002 10.4879C7.24572 10.2934 7.13058 10.0349 7.11178 9.76434L6.91226 9.7782ZM7.29857 10.6293L9.0777 12.4084L9.21912 12.267L7.43999 10.4879L7.29857 10.6293ZM9.0777 12.4084C9.3377 12.6684 9.6795 12.7983 10.0208 12.7983V12.5983C9.73014 12.5983 9.43995 12.4878 9.21912 12.267L9.0777 12.4084ZM10.0208 12.7983C10.3621 12.7983 10.7041 12.6684 10.9641 12.4084L10.8227 12.267C10.6019 12.4878 10.3115 12.5983 10.0208 12.5983V12.7983ZM10.9641 12.4084L12.7431 10.6293L12.6016 10.4879L10.8227 12.267L10.9641 12.4084ZM12.743 10.6294C12.8225 10.5501 12.8903 10.462 12.9467 10.3667L12.7745 10.2649C12.7265 10.3461 12.669 10.4207 12.6017 10.4878L12.743 10.6294ZM12.8865 10.4124C13.3496 10.2883 13.8244 10.131 14.3118 9.94037L14.2389 9.75412C13.7578 9.94233 13.29 10.0972 12.8347 10.2192L12.8865 10.4124ZM14.3118 9.94035C14.4903 9.87039 14.6935 9.91287 14.8295 10.0489L14.9709 9.90745C14.7788 9.71537 14.4916 9.6551 14.2388 9.75414L14.3118 9.94035ZM14.8295 10.0489L22.0172 17.2368L22.1586 17.0954L14.9709 9.90746L14.8295 10.0489ZM22.0172 17.2368C22.2168 17.4363 22.3265 17.7012 22.3265 17.9836H22.5265C22.5265 17.6482 22.3958 17.3323 22.1586 17.0953L22.0172 17.2368ZM22.3265 17.9836C22.3265 18.2657 22.2168 18.5306 22.0172 18.7301L22.1586 18.8716C22.3958 18.6346 22.5265 18.3187 22.5265 17.9836H22.3265ZM22.0172 18.7301L17.2019 23.5456L17.3433 23.687L22.1586 18.8715L22.0172 18.7301ZM17.2019 23.5456C17.0141 23.7334 17.0141 24.0377 17.2019 24.2256L17.3433 24.0842C17.2336 23.9744 17.2336 23.7967 17.3433 23.687L17.2019 23.5456ZM17.2019 24.2256C17.3897 24.4134 17.6941 24.4134 17.8819 24.2256L17.7405 24.0842C17.6307 24.1939 17.453 24.1939 17.3433 24.0842L17.2019 24.2256ZM17.8819 24.2256L22.6974 19.4103L22.556 19.2689L17.7405 24.0841L17.8819 24.2256ZM22.6974 19.4103C23.0784 19.0293 23.2882 18.5222 23.2882 17.9836H23.0882C23.0882 18.4692 22.8994 18.9254 22.556 19.2689L22.6974 19.4103ZM23.2882 17.9836C23.2882 17.4446 23.0781 16.9378 22.6974 16.5567L22.5559 16.698C22.8992 17.0417 23.0882 17.4977 23.0882 17.9836H23.2882ZM10.2841 11.7283C10.1391 11.8735 9.90274 11.8735 9.75771 11.7283L9.61622 11.8696C9.83936 12.093 10.2025 12.093 10.4256 11.8696L10.2841 11.7283ZM9.75767 11.7282L8.2501 10.2209L8.10869 10.3623L9.61626 11.8697L9.75767 11.7282ZM8.14731 10.3863C9.21324 10.7474 10.3577 10.8428 11.591 10.6753L11.5641 10.4771C10.358 10.6409 9.24504 10.5471 8.21149 10.1969L8.14731 10.3863ZM11.5069 10.5055L10.2841 11.7282L10.4256 11.8697L11.6483 10.6469L11.5069 10.5055ZM8.59667 14.7759C9.11673 14.2556 9.11673 13.4096 8.59667 12.8893L8.45521 13.0307C8.89721 13.4729 8.89721 14.1923 8.45521 14.6345L8.59667 14.7759ZM8.59665 12.8893L6.81772 11.1105L6.6763 11.252L8.45523 13.0307L8.59665 12.8893ZM6.81775 11.1106C6.56591 10.8585 6.23061 10.7196 5.8744 10.7196V10.9196C6.17756 10.9196 6.46196 11.0374 6.67627 11.2519L6.81775 11.1106ZM5.8744 10.7196C5.5182 10.7196 5.18292 10.8585 4.93109 11.1103L5.07251 11.2518C5.28683 11.0374 5.57124 10.9196 5.8744 10.9196V10.7196ZM4.93109 11.1103L3.15216 12.8895L3.29358 13.0309L5.07252 11.2518L4.93109 11.1103ZM3.15217 12.8894C2.63187 13.4095 2.63187 14.2558 3.15217 14.7759L3.29357 14.6345C2.85141 14.1925 2.85141 13.4729 3.29357 13.0309L3.15217 12.8894ZM3.15216 14.7759L4.93109 16.555L5.07252 16.4136L3.29358 14.6345L3.15216 14.7759ZM4.93112 16.5551C5.1913 16.815 5.53308 16.9449 5.8744 16.9449V16.7449C5.58374 16.7449 5.29353 16.6344 5.07248 16.4136L4.93112 16.5551ZM5.8744 16.9449C6.21573 16.9449 6.55751 16.815 6.81769 16.5551L6.67633 16.4136C6.45528 16.6344 6.16507 16.7449 5.8744 16.7449V16.9449ZM6.81772 16.555L8.59665 14.7759L8.45523 14.6345L6.67629 16.4136L6.81772 16.555ZM8.52594 14.6052C8.52594 14.6052 8.52594 14.6052 8.52594 14.6052C8.52594 14.6052 8.52594 14.6052 8.52594 14.6052C8.52594 14.6052 8.52594 14.6052 8.52594 14.6052C8.52594 14.6052 8.52594 14.6052 8.52594 14.6052C8.52594 14.6052 8.52593 14.6052 8.52593 14.6052C8.52593 14.6052 8.52593 14.6052 8.52593 14.6052C8.52593 14.6052 8.52593 14.6052 8.52593 14.6052C8.52593 14.6052 8.52593 14.6052 8.52593 14.6052C8.52593 14.6052 8.52593 14.6052 8.52593 14.6052C8.52593 14.6052 8.52593 14.6052 8.52593 14.6052C8.52593 14.6052 8.52593 14.6052 8.52593 14.6052C8.52593 14.6052 8.52593 14.6052 8.52593 14.6052C8.52593 14.6052 8.52593 14.6052 8.52593 14.6052C8.52592 14.6052 8.52592 14.6052 8.52592 14.6052C8.52592 14.6052 8.52592 14.6052 8.52592 14.6052C8.52592 14.6052 8.52592 14.6052 8.52592 14.6052C8.52592 14.6052 8.52592 14.6052 8.52592 14.6052C8.52592 14.6052 8.52592 14.6052 8.52592 14.6052C8.52592 14.6052 8.52592 14.6052 8.52592 14.6052C8.52592 14.6052 8.52592 14.6052 8.52592 14.6052C8.52592 14.6052 8.52592 14.6052 8.52592 14.6052C8.52592 14.6052 8.52592 14.6052 8.52592 14.6052C8.52592 14.6052 8.52591 14.6052 8.52591 14.6052C8.52591 14.6052 8.52591 14.6052 8.52591 14.6052C8.52591 14.6052 8.52591 14.6052 8.52591 14.6052C8.52591 14.6052 8.52591 14.6052 8.52591 14.6052C8.52591 14.6052 8.52591 14.6052 8.52591 14.6052C8.52591 14.6052 8.52591 14.6052 8.52591 14.6052C8.52591 14.6052 8.52591 14.6052 8.52591 14.6052C8.52591 14.6052 8.52591 14.6052 8.52591 14.6052C8.52591 14.6052 8.52591 14.6052 8.52591 14.6052C8.52591 14.6052 8.52591 14.6052 8.52591 14.6052C8.5259 14.6052 8.5259 14.6052 8.5259 14.6052C8.5259 14.6052 8.5259 14.6052 8.5259 14.6052C8.5259 14.6052 8.5259 14.6052 8.5259 14.6052C8.5259 14.6052 8.5259 14.6052 8.5259 14.6052C8.5259 14.6052 8.5259 14.6052 8.5259 14.6052C8.5259 14.6052 8.5259 14.6052 8.5259 14.6052C8.5259 14.6052 8.5259 14.6052 8.5259 14.6052C8.5259 14.6052 8.5259 14.6052 8.5259 14.6052C8.5259 14.6052 8.5259 14.6052 8.5259 14.6052C8.5259 14.6052 8.5259 14.6052 8.5259 14.6052C8.52589 14.6052 8.52589 14.6052 8.52589 14.6052C8.52589 14.6052 8.52589 14.6052 8.52589 14.6052C8.52589 14.6052 8.52589 14.6052 8.52589 14.6052C8.52589 14.6052 8.52589 14.6052 8.52589 14.6052C8.52589 14.6052 8.52589 14.6052 8.52589 14.6052C8.52589 14.6052 8.52589 14.6052 8.52589 14.6052C8.52589 14.6052 8.52589 14.6052 8.52589 14.6052C8.52589 14.6052 8.52589 14.6052 8.52589 14.6052C8.52589 14.6052 8.52589 14.6052 8.52589 14.6052C8.52589 14.6052 8.52589 14.6052 8.52589 14.6052C8.52589 14.6052 8.52589 14.6052 8.52588 14.6052C8.52588 14.6052 8.52588 14.6052 8.52588 14.6052C8.52588 14.6052 8.52588 14.6052 8.52588 14.6052C8.52588 14.6052 8.52588 14.6052 8.52588 14.6052H8.52588C8.52588 14.6052 8.52588 14.6052 8.52588 14.6052C8.52588 14.6052 8.52588 14.6052 8.52588 14.6052C8.52588 14.6052 8.52588 14.6052 8.52588 14.6052C8.52588 14.6052 8.52588 14.6052 8.52588 14.6052C8.52588 14.6052 8.52588 14.6052 8.52588 14.6052C8.52588 14.6052 8.52588 14.6052 8.52588 14.6052H8.52588C8.52587 14.6052 8.52587 14.6052 8.52587 14.6052C8.52587 14.6052 8.52587 14.6052 8.52587 14.6052C8.52587 14.6052 8.52587 14.6052 8.52587 14.6052C8.52587 14.6052 8.52587 14.6052 8.52587 14.6052C8.52587 14.6052 8.52587 14.6052 8.52587 14.6052H8.52587C8.52587 14.6052 8.52587 14.6052 8.52587 14.6052C8.52587 14.6052 8.52587 14.6052 8.52587 14.6052C8.52587 14.6052 8.52587 14.6052 8.52587 14.6052H8.52587C8.52587 14.6052 8.52587 14.6052 8.52587 14.6052C8.52587 14.6052 8.52587 14.6052 8.52586 14.6052H8.52586C8.52586 14.6052 8.52586 14.6052 8.52586 14.6052C8.52586 14.6052 8.52586 14.6052 8.52586 14.6052C8.52586 14.6052 8.52586 14.6052 8.52586 14.6052H8.52586C8.52586 14.6052 8.52586 14.6052 8.52586 14.6052C8.52586 14.6052 8.52586 14.6052 8.52586 14.6052H8.52586C8.52586 14.6052 8.52586 14.6052 8.52586 14.6052H8.52586C8.52586 14.6052 8.52586 14.6052 8.52586 14.6052C8.52586 14.6052 8.52586 14.6052 8.52586 14.6052H8.52585C8.52585 14.6052 8.52585 14.6052 8.52585 14.6052H8.52585C8.52585 14.6052 8.52585 14.6052 8.52585 14.6052H8.52585C8.52585 14.6052 8.52585 14.6052 8.52585 14.6052C8.52585 14.6052 8.52585 14.6052 8.52585 14.6052H8.52585C8.52585 14.6052 8.52585 14.6052 8.52585 14.6052H8.52585C8.52585 14.6052 8.52585 14.6052 8.52585 14.6052H8.52585C8.52585 14.6052 8.52585 14.6052 8.52585 14.6052H8.52585C8.52584 14.6052 8.52584 14.6052 8.52584 14.6052H8.52584H8.52584C8.52584 14.6052 8.52584 14.6052 8.52584 14.6052H8.52584C8.52584 14.6052 8.52584 14.6052 8.52584 14.6052H8.52584C8.52584 14.6052 8.52584 14.6052 8.52584 14.6052C8.52584 14.6052 8.52584 14.6052 8.52584 14.6052H8.52584C8.52584 14.6052 8.52584 14.6052 8.52584 14.6052H8.52584H8.52584C8.52584 14.6052 8.52584 14.6052 8.52584 14.6052H8.52584H8.52583C8.52583 14.6052 8.52583 14.6052 8.52583 14.6052C8.52583 14.6052 8.52583 14.6052 8.52583 14.6052H8.52583C8.52583 14.6052 8.52583 14.6052 8.52583 14.6052C8.52583 14.6052 8.52583 14.6052 8.52583 14.6052H8.52583H8.52583C8.52583 14.6052 8.52583 14.6052 8.52583 14.6052C8.52583 14.6052 8.52583 14.6052 8.52583 14.6052H8.52583H8.52583C8.52583 14.6052 8.52583 14.6052 8.52583 14.6052C8.52583 14.6052 8.52583 14.6052 8.52583 14.6052C8.52583 14.6052 8.52583 14.6052 8.52583 14.6052H8.52583H8.52583C8.52582 14.6052 8.52582 14.6052 8.52582 14.6052C8.52582 14.6052 8.52582 14.6052 8.52582 14.6052C8.52582 14.6052 8.52582 14.6052 8.52582 14.6052C8.52582 14.6052 8.52582 14.6052 8.52582 14.6052C8.52582 14.6052 8.52582 14.6052 8.52582 14.6052H8.52582H8.52582H8.52582H8.52582C8.52582 14.6052 8.52582 14.6052 8.52582 14.6052C8.52582 14.6052 8.52582 14.6052 8.52582 14.6052C8.52582 14.6052 8.52582 14.6052 8.52582 14.6052C8.52582 14.6052 8.52582 14.6052 8.52582 14.6052C8.52582 14.6052 8.52582 14.6052 8.52582 14.6052C8.52582 14.6052 8.52582 14.6052 8.52582 14.6052C8.52582 14.6052 8.52582 14.6052 8.52582 14.6052C8.52582 14.6052 8.52582 14.6052 8.52582 14.6052C8.52582 14.6052 8.52582 14.6052 8.52582 14.6052C8.52582 14.6052 8.52582 14.6052 8.52582 14.6052C8.52582 14.6052 8.52582 14.6052 8.52582 14.6052C8.52581 14.6052 8.52581 14.6052 8.52581 14.6052C8.52581 14.6052 8.52581 14.6052 8.52581 14.6052C8.52581 14.6052 8.52581 14.6052 8.52581 14.6052C8.52581 14.6052 8.52581 14.6052 8.52581 14.6052C8.52581 14.6052 8.52581 14.6052 8.52581 14.6052H8.52581H8.52581H8.52581H8.52581C8.52581 14.6052 8.52581 14.6052 8.52581 14.6052C8.52581 14.6052 8.52581 14.6052 8.52581 14.6052C8.52581 14.6052 8.52581 14.6052 8.52581 14.6052C8.52581 14.6052 8.52581 14.6052 8.52581 14.6052H8.52581C8.52581 14.6052 8.52581 14.6052 8.52581 14.6052C8.52581 14.6052 8.52581 14.6052 8.52581 14.6052C8.52581 14.6052 8.52581 14.6052 8.52581 14.6052H8.52581C8.52581 14.6052 8.52581 14.6052 8.52581 14.6052C8.52581 14.6052 8.52581 14.6052 8.52581 14.6052C8.5258 14.6052 8.5258 14.6052 8.5258 14.6052H8.5258C8.5258 14.6052 8.5258 14.6052 8.5258 14.6052H8.5258C8.5258 14.6052 8.5258 14.6052 8.5258 14.6052C8.5258 14.6052 8.5258 14.6052 8.5258 14.6052C8.5258 14.6052 8.5258 14.6052 8.5258 14.6052C8.5258 14.6052 8.5258 14.6052 8.5258 14.6052C8.5258 14.6052 8.5258 14.6052 8.5258 14.6052H8.5258C8.5258 14.6052 8.5258 14.6052 8.5258 14.6052C8.5258 14.6052 8.5258 14.6052 8.5258 14.6052H8.5258C8.5258 14.6052 8.5258 14.6052 8.5258 14.6052C8.5258 14.6052 8.5258 14.6052 8.5258 14.6052C8.5258 14.6052 8.5258 14.6052 8.5258 14.6052C8.5258 14.6052 8.5258 14.6052 8.5258 14.6052C8.5258 14.6052 8.5258 14.6052 8.5258 14.6052C8.5258 14.6052 8.5258 14.6052 8.5258 14.6052C8.5258 14.6052 8.5258 14.6052 8.5258 14.6052H8.5258C8.5258 14.6052 8.5258 14.6052 8.52579 14.6052H8.52579C8.52579 14.6052 8.52579 14.6052 8.52579 14.6052C8.52579 14.6052 8.52579 14.6052 8.52579 14.6052C8.52579 14.6052 8.52579 14.6052 8.52579 14.6052C8.52579 14.6052 8.52579 14.6052 8.52579 14.6052C8.52579 14.6052 8.52579 14.6052 8.52579 14.6052H8.52579C8.52579 14.6052 8.52579 14.6052 8.52579 14.6052C8.52579 14.6052 8.52579 14.6052 8.52579 14.7052C8.52579 14.8052 8.52579 14.8052 8.52579 14.8052C8.52579 14.8052 8.52579 14.8052 8.52579 14.8052H8.52579C8.52579 14.8052 8.52579 14.8052 8.52579 14.8052C8.52579 14.8052 8.52579 14.8052 8.52579 14.8052C8.52579 14.8052 8.52579 14.8052 8.52579 14.8052C8.52579 14.8052 8.52579 14.8052 8.52579 14.8052C8.52579 14.8052 8.52579 14.8052 8.52579 14.8052H8.52579C8.5258 14.8052 8.5258 14.8052 8.5258 14.8052H8.5258C8.5258 14.8052 8.5258 14.8052 8.5258 14.8052C8.5258 14.8052 8.5258 14.8052 8.5258 14.8052C8.5258 14.8052 8.5258 14.8052 8.5258 14.8052C8.5258 14.8052 8.5258 14.8052 8.5258 14.8052C8.5258 14.8052 8.5258 14.8052 8.5258 14.8052C8.5258 14.8052 8.5258 14.8052 8.5258 14.8052C8.5258 14.8052 8.5258 14.8052 8.5258 14.8052H8.5258C8.5258 14.8052 8.5258 14.8052 8.5258 14.8052C8.5258 14.8052 8.5258 14.8052 8.5258 14.8052H8.5258C8.5258 14.8052 8.5258 14.8052 8.5258 14.8052C8.5258 14.8052 8.5258 14.8052 8.5258 14.8052C8.5258 14.8052 8.5258 14.8052 8.5258 14.8052C8.5258 14.8052 8.5258 14.8052 8.5258 14.8052C8.5258 14.8052 8.5258 14.8052 8.5258 14.8052H8.5258C8.5258 14.8052 8.5258 14.8052 8.5258 14.8052H8.5258C8.5258 14.8052 8.5258 14.8052 8.52581 14.8052C8.52581 14.8052 8.52581 14.8052 8.52581 14.8052C8.52581 14.8052 8.52581 14.8052 8.52581 14.8052H8.52581C8.52581 14.8052 8.52581 14.8052 8.52581 14.8052C8.52581 14.8052 8.52581 14.8052 8.52581 14.8052C8.52581 14.8052 8.52581 14.8052 8.52581 14.8052H8.52581C8.52581 14.8052 8.52581 14.8052 8.52581 14.8052C8.52581 14.8052 8.52581 14.8052 8.52581 14.8052C8.52581 14.8052 8.52581 14.8052 8.52581 14.8052C8.52581 14.8052 8.52581 14.8052 8.52581 14.8052H8.52581H8.52581H8.52581H8.52581C8.52581 14.8052 8.52581 14.8052 8.52581 14.8052C8.52581 14.8052 8.52581 14.8052 8.52581 14.8052C8.52581 14.8052 8.52581 14.8052 8.52581 14.8052C8.52581 14.8052 8.52581 14.8052 8.52581 14.8052C8.52581 14.8052 8.52581 14.8052 8.52582 14.8052C8.52582 14.8052 8.52582 14.8052 8.52582 14.8052C8.52582 14.8052 8.52582 14.8052 8.52582 14.8052C8.52582 14.8052 8.52582 14.8052 8.52582 14.8052C8.52582 14.8052 8.52582 14.8052 8.52582 14.8052C8.52582 14.8052 8.52582 14.8052 8.52582 14.8052C8.52582 14.8052 8.52582 14.8052 8.52582 14.8052C8.52582 14.8052 8.52582 14.8052 8.52582 14.8052C8.52582 14.8052 8.52582 14.8052 8.52582 14.8052C8.52582 14.8052 8.52582 14.8052 8.52582 14.8052C8.52582 14.8052 8.52582 14.8052 8.52582 14.8052C8.52582 14.8052 8.52582 14.8052 8.52582 14.8052H8.52582H8.52582H8.52582H8.52582C8.52582 14.8052 8.52582 14.8052 8.52582 14.8052C8.52582 14.8052 8.52582 14.8052 8.52582 14.8052C8.52582 14.8052 8.52582 14.8052 8.52582 14.8052C8.52582 14.8052 8.52582 14.8052 8.52582 14.8052C8.52582 14.8052 8.52582 14.8052 8.52583 14.8052H8.52583H8.52583C8.52583 14.8052 8.52583 14.8052 8.52583 14.8052C8.52583 14.8052 8.52583 14.8052 8.52583 14.8052C8.52583 14.8052 8.52583 14.8052 8.52583 14.8052H8.52583H8.52583C8.52583 14.8052 8.52583 14.8052 8.52583 14.8052C8.52583 14.8052 8.52583 14.8052 8.52583 14.8052H8.52583H8.52583C8.52583 14.8052 8.52583 14.8052 8.52583 14.8052C8.52583 14.8052 8.52583 14.8052 8.52583 14.8052H8.52583C8.52583 14.8052 8.52583 14.8052 8.52583 14.8052C8.52583 14.8052 8.52583 14.8052 8.52583 14.8052H8.52584H8.52584C8.52584 14.8052 8.52584 14.8052 8.52584 14.8052H8.52584H8.52584C8.52584 14.8052 8.52584 14.8052 8.52584 14.8052H8.52584C8.52584 14.8052 8.52584 14.8052 8.52584 14.8052C8.52584 14.8052 8.52584 14.8052 8.52584 14.8052H8.52584C8.52584 14.8052 8.52584 14.8052 8.52584 14.8052H8.52584C8.52584 14.8052 8.52584 14.8052 8.52584 14.8052H8.52584H8.52584C8.52584 14.8052 8.52584 14.8052 8.52585 14.8052H8.52585C8.52585 14.8052 8.52585 14.8052 8.52585 14.8052H8.52585C8.52585 14.8052 8.52585 14.8052 8.52585 14.8052H8.52585C8.52585 14.8052 8.52585 14.8052 8.52585 14.8052H8.52585C8.52585 14.8052 8.52585 14.8052 8.52585 14.8052C8.52585 14.8052 8.52585 14.8052 8.52585 14.8052H8.52585C8.52585 14.8052 8.52585 14.8052 8.52585 14.8052H8.52585C8.52585 14.8052 8.52585 14.8052 8.52585 14.8052H8.52586C8.52586 14.8052 8.52586 14.8052 8.52586 14.8052C8.52586 14.8052 8.52586 14.8052 8.52586 14.8052H8.52586C8.52586 14.8052 8.52586 14.8052 8.52586 14.8052H8.52586C8.52586 14.8052 8.52586 14.8052 8.52586 14.8052C8.52586 14.8052 8.52586 14.8052 8.52586 14.8052H8.52586C8.52586 14.8052 8.52586 14.8052 8.52586 14.8052C8.52586 14.8052 8.52586 14.8052 8.52586 14.8052C8.52586 14.8052 8.52586 14.8052 8.52586 14.8052H8.52586C8.52587 14.8052 8.52587 14.8052 8.52587 14.8052C8.52587 14.8052 8.52587 14.8052 8.52587 14.8052H8.52587C8.52587 14.8052 8.52587 14.8052 8.52587 14.8052C8.52587 14.8052 8.52587 14.8052 8.52587 14.8052C8.52587 14.8052 8.52587 14.8052 8.52587 14.8052H8.52587C8.52587 14.8052 8.52587 14.8052 8.52587 14.8052C8.52587 14.8052 8.52587 14.8052 8.52587 14.8052C8.52587 14.8052 8.52587 14.8052 8.52587 14.8052C8.52587 14.8052 8.52587 14.8052 8.52587 14.8052C8.52587 14.8052 8.52587 14.8052 8.52588 14.8052H8.52588C8.52588 14.8052 8.52588 14.8052 8.52588 14.8052C8.52588 14.8052 8.52588 14.8052 8.52588 14.8052C8.52588 14.8052 8.52588 14.8052 8.52588 14.8052C8.52588 14.8052 8.52588 14.8052 8.52588 14.8052C8.52588 14.8052 8.52588 14.8052 8.52588 14.8052C8.52588 14.8052 8.52588 14.8052 8.52588 14.8052H8.52588C8.52588 14.8052 8.52588 14.8052 8.52588 14.8052C8.52588 14.8052 8.52588 14.8052 8.52588 14.8052C8.52588 14.8052 8.52588 14.8052 8.52588 14.8052C8.52589 14.8052 8.52589 14.8052 8.52589 14.8052C8.52589 14.8052 8.52589 14.8052 8.52589 14.8052C8.52589 14.8052 8.52589 14.8052 8.52589 14.8052C8.52589 14.8052 8.52589 14.8052 8.52589 14.8052C8.52589 14.8052 8.52589 14.8052 8.52589 14.8052C8.52589 14.8052 8.52589 14.8052 8.52589 14.8052C8.52589 14.8052 8.52589 14.8052 8.52589 14.8052C8.52589 14.8052 8.52589 14.8052 8.52589 14.8052C8.52589 14.8052 8.52589 14.8052 8.52589 14.8052C8.52589 14.8052 8.52589 14.8052 8.52589 14.8052C8.52589 14.8052 8.52589 14.8052 8.5259 14.8052C8.5259 14.8052 8.5259 14.8052 8.5259 14.8052C8.5259 14.8052 8.5259 14.8052 8.5259 14.8052C8.5259 14.8052 8.5259 14.8052 8.5259 14.8052C8.5259 14.8052 8.5259 14.8052 8.5259 14.8052C8.5259 14.8052 8.5259 14.8052 8.5259 14.8052C8.5259 14.8052 8.5259 14.8052 8.5259 14.8052C8.5259 14.8052 8.5259 14.8052 8.5259 14.8052C8.5259 14.8052 8.5259 14.8052 8.5259 14.8052C8.5259 14.8052 8.5259 14.8052 8.5259 14.8052C8.5259 14.8052 8.5259 14.8052 8.52591 14.8052C8.52591 14.8052 8.52591 14.8052 8.52591 14.8052C8.52591 14.8052 8.52591 14.8052 8.52591 14.8052C8.52591 14.8052 8.52591 14.8052 8.52591 14.8052C8.52591 14.8052 8.52591 14.8052 8.52591 14.8052C8.52591 14.8052 8.52591 14.8052 8.52591 14.8052C8.52591 14.8052 8.52591 14.8052 8.52591 14.8052C8.52591 14.8052 8.52591 14.8052 8.52591 14.8052C8.52591 14.8052 8.52591 14.8052 8.52591 14.8052C8.52591 14.8052 8.52591 14.8052 8.52591 14.8052C8.52591 14.8052 8.52592 14.8052 8.52592 14.8052C8.52592 14.8052 8.52592 14.8052 8.52592 14.8052C8.52592 14.8052 8.52592 14.8052 8.52592 14.8052C8.52592 14.8052 8.52592 14.8052 8.52592 14.8052C8.52592 14.8052 8.52592 14.8052 8.52592 14.8052C8.52592 14.8052 8.52592 14.8052 8.52592 14.8052C8.52592 14.8052 8.52592 14.8052 8.52592 14.8052C8.52592 14.8052 8.52592 14.8052 8.52592 14.8052C8.52592 14.8052 8.52592 14.8052 8.52592 14.8052C8.52592 14.8052 8.52592 14.8052 8.52593 14.8052C8.52593 14.8052 8.52593 14.8052 8.52593 14.8052C8.52593 14.8052 8.52593 14.8052 8.52593 14.8052C8.52593 14.8052 8.52593 14.8052 8.52593 14.8052C8.52593 14.8052 8.52593 14.8052 8.52593 14.8052C8.52593 14.8052 8.52593 14.8052 8.52593 14.8052C8.52593 14.8052 8.52593 14.8052 8.52593 14.8052C8.52593 14.8052 8.52593 14.8052 8.52593 14.8052C8.52593 14.8052 8.52593 14.8052 8.52593 14.8052C8.52593 14.8052 8.52594 14.8052 8.52594 14.8052C8.52594 14.8052 8.52594 14.8052 8.52594 14.8052C8.52594 14.8052 8.52594 14.8052 8.52594 14.8052C8.52594 14.8052 8.52594 14.8052 8.52594 14.8052C8.52594 14.8052 8.52594 14.8052 8.52594 14.8052V14.6052C8.52594 14.6052 8.52594 14.6052 8.52594 14.6052C8.52594 14.6052 8.52594 14.6052 8.52594 14.6052C8.52594 14.6052 8.52594 14.6052 8.52594 14.6052C8.52594 14.6052 8.52594 14.6052 8.52594 14.6052C8.52594 14.6052 8.52593 14.6052 8.52593 14.6052C8.52593 14.6052 8.52593 14.6052 8.52593 14.6052C8.52593 14.6052 8.52593 14.6052 8.52593 14.6052C8.52593 14.6052 8.52593 14.6052 8.52593 14.6052C8.52593 14.6052 8.52593 14.6052 8.52593 14.6052C8.52593 14.6052 8.52593 14.6052 8.52593 14.6052C8.52593 14.6052 8.52593 14.6052 8.52593 14.6052C8.52593 14.6052 8.52593 14.6052 8.52593 14.6052C8.52593 14.6052 8.52593 14.6052 8.52593 14.6052C8.52592 14.6052 8.52592 14.6052 8.52592 14.6052C8.52592 14.6052 8.52592 14.6052 8.52592 14.6052C8.52592 14.6052 8.52592 14.6052 8.52592 14.6052C8.52592 14.6052 8.52592 14.6052 8.52592 14.6052C8.52592 14.6052 8.52592 14.6052 8.52592 14.6052C8.52592 14.6052 8.52592 14.6052 8.52592 14.6052C8.52592 14.6052 8.52592 14.6052 8.52592 14.6052C8.52592 14.6052 8.52592 14.6052 8.52592 14.6052C8.52592 14.6052 8.52592 14.6052 8.52592 14.6052C8.52592 14.6052 8.52591 14.6052 8.52591 14.6052C8.52591 14.6052 8.52591 14.6052 8.52591 14.6052C8.52591 14.6052 8.52591 14.6052 8.52591 14.6052C8.52591 14.6052 8.52591 14.6052 8.52591 14.6052C8.52591 14.6052 8.52591 14.6052 8.52591 14.6052C8.52591 14.6052 8.52591 14.6052 8.52591 14.6052C8.52591 14.6052 8.52591 14.6052 8.52591 14.6052C8.52591 14.6052 8.52591 14.6052 8.52591 14.6052C8.52591 14.6052 8.52591 14.6052 8.52591 14.6052C8.52591 14.6052 8.52591 14.6052 8.52591 14.6052C8.5259 14.6052 8.5259 14.6052 8.5259 14.6052C8.5259 14.6052 8.5259 14.6052 8.5259 14.6052C8.5259 14.6052 8.5259 14.6052 8.5259 14.6052C8.5259 14.6052 8.5259 14.6052 8.5259 14.6052C8.5259 14.6052 8.5259 14.6052 8.5259 14.6052C8.5259 14.6052 8.5259 14.6052 8.5259 14.6052C8.5259 14.6052 8.5259 14.6052 8.5259 14.6052C8.5259 14.6052 8.5259 14.6052 8.5259 14.6052C8.5259 14.6052 8.5259 14.6052 8.5259 14.6052C8.5259 14.6052 8.5259 14.6052 8.5259 14.6052C8.52589 14.6052 8.52589 14.6052 8.52589 14.6052C8.52589 14.6052 8.52589 14.6052 8.52589 14.6052C8.52589 14.6052 8.52589 14.6052 8.52589 14.6052C8.52589 14.6052 8.52589 14.6052 8.52589 14.6052C8.52589 14.6052 8.52589 14.6052 8.52589 14.6052C8.52589 14.6052 8.52589 14.6052 8.52589 14.6052C8.52589 14.6052 8.52589 14.6052 8.52589 14.6052C8.52589 14.6052 8.52589 14.6052 8.52589 14.6052C8.52589 14.6052 8.52589 14.6052 8.52589 14.6052C8.52589 14.6052 8.52589 14.6052 8.52589 14.6052C8.52589 14.6052 8.52589 14.6052 8.52588 14.6052C8.52588 14.6052 8.52588 14.6052 8.52588 14.6052C8.52588 14.6052 8.52588 14.6052 8.52588 14.6052C8.52588 14.6052 8.52588 14.6052 8.52588 14.6052H8.52588C8.52588 14.6052 8.52588 14.6052 8.52588 14.6052C8.52588 14.6052 8.52588 14.6052 8.52588 14.6052C8.52588 14.6052 8.52588 14.6052 8.52588 14.6052C8.52588 14.6052 8.52588 14.6052 8.52588 14.6052C8.52588 14.6052 8.52588 14.6052 8.52588 14.6052C8.52588 14.6052 8.52588 14.6052 8.52588 14.6052H8.52588C8.52587 14.6052 8.52587 14.6052 8.52587 14.6052C8.52587 14.6052 8.52587 14.6052 8.52587 14.6052C8.52587 14.6052 8.52587 14.6052 8.52587 14.6052C8.52587 14.6052 8.52587 14.6052 8.52587 14.6052C8.52587 14.6052 8.52587 14.6052 8.52587 14.6052H8.52587C8.52587 14.6052 8.52587 14.6052 8.52587 14.6052C8.52587 14.6052 8.52587 14.6052 8.52587 14.6052C8.52587 14.6052 8.52587 14.6052 8.52587 14.6052H8.52587C8.52587 14.6052 8.52587 14.6052 8.52587 14.6052C8.52587 14.6052 8.52587 14.6052 8.52586 14.6052H8.52586C8.52586 14.6052 8.52586 14.6052 8.52586 14.6052C8.52586 14.6052 8.52586 14.6052 8.52586 14.6052C8.52586 14.6052 8.52586 14.6052 8.52586 14.6052H8.52586C8.52586 14.6052 8.52586 14.6052 8.52586 14.6052C8.52586 14.6052 8.52586 14.6052 8.52586 14.6052H8.52586C8.52586 14.6052 8.52586 14.6052 8.52586 14.6052H8.52586C8.52586 14.6052 8.52586 14.6052 8.52586 14.6052C8.52586 14.6052 8.52586 14.6052 8.52586 14.6052H8.52585C8.52585 14.6052 8.52585 14.6052 8.52585 14.6052H8.52585C8.52585 14.6052 8.52585 14.6052 8.52585 14.6052H8.52585C8.52585 14.6052 8.52585 14.6052 8.52585 14.6052C8.52585 14.6052 8.52585 14.6052 8.52585 14.6052H8.52585C8.52585 14.6052 8.52585 14.6052 8.52585 14.6052H8.52585C8.52585 14.6052 8.52585 14.6052 8.52585 14.6052H8.52585C8.52585 14.6052 8.52585 14.6052 8.52585 14.6052H8.52585C8.52584 14.6052 8.52584 14.6052 8.52584 14.6052H8.52584H8.52584C8.52584 14.6052 8.52584 14.6052 8.52584 14.6052H8.52584C8.52584 14.6052 8.52584 14.6052 8.52584 14.6052H8.52584C8.52584 14.6052 8.52584 14.6052 8.52584 14.6052C8.52584 14.6052 8.52584 14.6052 8.52584 14.6052H8.52584C8.52584 14.6052 8.52584 14.6052 8.52584 14.6052H8.52584H8.52584C8.52584 14.6052 8.52584 14.6052 8.52584 14.6052H8.52584H8.52583C8.52583 14.6052 8.52583 14.6052 8.52583 14.6052C8.52583 14.6052 8.52583 14.6052 8.52583 14.6052H8.52583C8.52583 14.6052 8.52583 14.6052 8.52583 14.6052C8.52583 14.6052 8.52583 14.6052 8.52583 14.6052H8.52583H8.52583C8.52583 14.6052 8.52583 14.6052 8.52583 14.6052C8.52583 14.6052 8.52583 14.6052 8.52583 14.6052H8.52583H8.52583C8.52583 14.6052 8.52583 14.6052 8.52583 14.6052C8.52583 14.6052 8.52583 14.6052 8.52583 14.6052C8.52583 14.6052 8.52583 14.6052 8.52583 14.6052H8.52583H8.52583C8.52582 14.6052 8.52582 14.6052 8.52582 14.6052C8.52582 14.6052 8.52582 14.6052 8.52582 14.6052C8.52582 14.6052 8.52582 14.6052 8.52582 14.6052C8.52582 14.6052 8.52582 14.6052 8.52582 14.6052C8.52582 14.6052 8.52582 14.6052 8.52582 14.6052H8.52582H8.52582H8.52582H8.52582C8.52582 14.6052 8.52582 14.6052 8.52582 14.6052C8.52582 14.6052 8.52582 14.6052 8.52582 14.6052C8.52582 14.6052 8.52582 14.6052 8.52582 14.6052C8.52582 14.6052 8.52582 14.6052 8.52582 14.6052C8.52582 14.6052 8.52582 14.6052 8.52582 14.6052C8.52582 14.6052 8.52582 14.6052 8.52582 14.6052C8.52582 14.6052 8.52582 14.6052 8.52582 14.6052C8.52582 14.6052 8.52582 14.6052 8.52582 14.6052C8.52582 14.6052 8.52582 14.6052 8.52582 14.6052C8.52582 14.6052 8.52582 14.6052 8.52582 14.6052C8.52582 14.6052 8.52582 14.6052 8.52582 14.6052C8.52581 14.6052 8.52581 14.6052 8.52581 14.6052C8.52581 14.6052 8.52581 14.6052 8.52581 14.6052C8.52581 14.6052 8.52581 14.6052 8.52581 14.6052C8.52581 14.6052 8.52581 14.6052 8.52581 14.6052C8.52581 14.6052 8.52581 14.6052 8.52581 14.6052H8.52581H8.52581H8.52581H8.52581C8.52581 14.6052 8.52581 14.6052 8.52581 14.6052C8.52581 14.6052 8.52581 14.6052 8.52581 14.6052C8.52581 14.6052 8.52581 14.6052 8.52581 14.6052C8.52581 14.6052 8.52581 14.6052 8.52581 14.6052H8.52581C8.52581 14.6052 8.52581 14.6052 8.52581 14.6052C8.52581 14.6052 8.52581 14.6052 8.52581 14.6052C8.52581 14.6052 8.52581 14.6052 8.52581 14.6052H8.52581C8.52581 14.6052 8.52581 14.6052 8.52581 14.6052C8.52581 14.6052 8.52581 14.6052 8.52581 14.6052C8.5258 14.6052 8.5258 14.6052 8.5258 14.6052H8.5258C8.5258 14.6052 8.5258 14.6052 8.5258 14.6052H8.5258C8.5258 14.6052 8.5258 14.6052 8.5258 14.6052C8.5258 14.6052 8.5258 14.6052 8.5258 14.6052C8.5258 14.6052 8.5258 14.6052 8.5258 14.6052C8.5258 14.6052 8.5258 14.6052 8.5258 14.6052C8.5258 14.6052 8.5258 14.6052 8.5258 14.6052H8.5258C8.5258 14.6052 8.5258 14.6052 8.5258 14.6052C8.5258 14.6052 8.5258 14.6052 8.5258 14.6052H8.5258C8.5258 14.6052 8.5258 14.6052 8.5258 14.6052C8.5258 14.6052 8.5258 14.6052 8.5258 14.6052C8.5258 14.6052 8.5258 14.6052 8.5258 14.6052C8.5258 14.6052 8.5258 14.6052 8.5258 14.6052C8.5258 14.6052 8.5258 14.6052 8.5258 14.6052C8.5258 14.6052 8.5258 14.6052 8.5258 14.6052C8.5258 14.6052 8.5258 14.6052 8.5258 14.6052H8.5258C8.5258 14.6052 8.5258 14.6052 8.52579 14.6052H8.52579C8.52579 14.6052 8.52579 14.6052 8.52579 14.6052C8.52579 14.6052 8.52579 14.6052 8.52579 14.6052C8.52579 14.6052 8.52579 14.6052 8.52579 14.6052C8.52579 14.6052 8.52579 14.6052 8.52579 14.6052C8.52579 14.6052 8.52579 14.6052 8.52579 14.6052H8.52579C8.52579 14.6052 8.52579 14.6052 8.52579 14.6052C8.52579 14.6052 8.52579 14.6052 8.52579 14.7052C8.52579 14.8052 8.52579 14.8052 8.52579 14.8052C8.52579 14.8052 8.52579 14.8052 8.52579 14.8052H8.52579C8.52579 14.8052 8.52579 14.8052 8.52579 14.8052C8.52579 14.8052 8.52579 14.8052 8.52579 14.8052C8.52579 14.8052 8.52579 14.8052 8.52579 14.8052C8.52579 14.8052 8.52579 14.8052 8.52579 14.8052C8.52579 14.8052 8.52579 14.8052 8.52579 14.8052H8.52579C8.5258 14.8052 8.5258 14.8052 8.5258 14.8052H8.5258C8.5258 14.8052 8.5258 14.8052 8.5258 14.8052C8.5258 14.8052 8.5258 14.8052 8.5258 14.8052C8.5258 14.8052 8.5258 14.8052 8.5258 14.8052C8.5258 14.8052 8.5258 14.8052 8.5258 14.8052C8.5258 14.8052 8.5258 14.8052 8.5258 14.8052C8.5258 14.8052 8.5258 14.8052 8.5258 14.8052C8.5258 14.8052 8.5258 14.8052 8.5258 14.8052H8.5258C8.5258 14.8052 8.5258 14.8052 8.5258 14.8052C8.5258 14.8052 8.5258 14.8052 8.5258 14.8052H8.5258C8.5258 14.8052 8.5258 14.8052 8.5258 14.8052C8.5258 14.8052 8.5258 14.8052 8.5258 14.8052C8.5258 14.8052 8.5258 14.8052 8.5258 14.8052C8.5258 14.8052 8.5258 14.8052 8.5258 14.8052C8.5258 14.8052 8.5258 14.8052 8.5258 14.8052H8.5258C8.5258 14.8052 8.5258 14.8052 8.5258 14.8052H8.5258C8.5258 14.8052 8.5258 14.8052 8.52581 14.8052C8.52581 14.8052 8.52581 14.8052 8.52581 14.8052C8.52581 14.8052 8.52581 14.8052 8.52581 14.8052H8.52581C8.52581 14.8052 8.52581 14.8052 8.52581 14.8052C8.52581 14.8052 8.52581 14.8052 8.52581 14.8052C8.52581 14.8052 8.52581 14.8052 8.52581 14.8052H8.52581C8.52581 14.8052 8.52581 14.8052 8.52581 14.8052C8.52581 14.8052 8.52581 14.8052 8.52581 14.8052C8.52581 14.8052 8.52581 14.8052 8.52581 14.8052C8.52581 14.8052 8.52581 14.8052 8.52581 14.8052H8.52581H8.52581H8.52581H8.52581C8.52581 14.8052 8.52581 14.8052 8.52581 14.8052C8.52581 14.8052 8.52581 14.8052 8.52581 14.8052C8.52581 14.8052 8.52581 14.8052 8.52581 14.8052C8.52581 14.8052 8.52581 14.8052 8.52581 14.8052C8.52581 14.8052 8.52581 14.8052 8.52582 14.8052C8.52582 14.8052 8.52582 14.8052 8.52582 14.8052C8.52582 14.8052 8.52582 14.8052 8.52582 14.8052C8.52582 14.8052 8.52582 14.8052 8.52582 14.8052C8.52582 14.8052 8.52582 14.8052 8.52582 14.8052C8.52582 14.8052 8.52582 14.8052 8.52582 14.8052C8.52582 14.8052 8.52582 14.8052 8.52582 14.8052C8.52582 14.8052 8.52582 14.8052 8.52582 14.8052C8.52582 14.8052 8.52582 14.8052 8.52582 14.8052C8.52582 14.8052 8.52582 14.8052 8.52582 14.8052C8.52582 14.8052 8.52582 14.8052 8.52582 14.8052C8.52582 14.8052 8.52582 14.8052 8.52582 14.8052H8.52582H8.52582H8.52582H8.52582C8.52582 14.8052 8.52582 14.8052 8.52582 14.8052C8.52582 14.8052 8.52582 14.8052 8.52582 14.8052C8.52582 14.8052 8.52582 14.8052 8.52582 14.8052C8.52582 14.8052 8.52582 14.8052 8.52582 14.8052C8.52582 14.8052 8.52582 14.8052 8.52583 14.8052H8.52583H8.52583C8.52583 14.8052 8.52583 14.8052 8.52583 14.8052C8.52583 14.8052 8.52583 14.8052 8.52583 14.8052C8.52583 14.8052 8.52583 14.8052 8.52583 14.8052H8.52583H8.52583C8.52583 14.8052 8.52583 14.8052 8.52583 14.8052C8.52583 14.8052 8.52583 14.8052 8.52583 14.8052H8.52583H8.52583C8.52583 14.8052 8.52583 14.8052 8.52583 14.8052C8.52583 14.8052 8.52583 14.8052 8.52583 14.8052H8.52583C8.52583 14.8052 8.52583 14.8052 8.52583 14.8052C8.52583 14.8052 8.52583 14.8052 8.52583 14.8052H8.52584H8.52584C8.52584 14.8052 8.52584 14.8052 8.52584 14.8052H8.52584H8.52584C8.52584 14.8052 8.52584 14.8052 8.52584 14.8052H8.52584C8.52584 14.8052 8.52584 14.8052 8.52584 14.8052C8.52584 14.8052 8.52584 14.8052 8.52584 14.8052H8.52584C8.52584 14.8052 8.52584 14.8052 8.52584 14.8052H8.52584C8.52584 14.8052 8.52584 14.8052 8.52584 14.8052H8.52584H8.52584C8.52584 14.8052 8.52584 14.8052 8.52585 14.8052H8.52585C8.52585 14.8052 8.52585 14.8052 8.52585 14.8052H8.52585C8.52585 14.8052 8.52585 14.8052 8.52585 14.8052H8.52585C8.52585 14.8052 8.52585 14.8052 8.52585 14.8052H8.52585C8.52585 14.8052 8.52585 14.8052 8.52585 14.8052C8.52585 14.8052 8.52585 14.8052 8.52585 14.8052H8.52585C8.52585 14.8052 8.52585 14.8052 8.52585 14.8052H8.52585C8.52585 14.8052 8.52585 14.8052 8.52585 14.8052H8.52586C8.52586 14.8052 8.52586 14.8052 8.52586 14.8052C8.52586 14.8052 8.52586 14.8052 8.52586 14.8052H8.52586C8.52586 14.8052 8.52586 14.8052 8.52586 14.8052H8.52586C8.52586 14.8052 8.52586 14.8052 8.52586 14.8052C8.52586 14.8052 8.52586 14.8052 8.52586 14.8052H8.52586C8.52586 14.8052 8.52586 14.8052 8.52586 14.8052C8.52586 14.8052 8.52586 14.8052 8.52586 14.8052C8.52586 14.8052 8.52586 14.8052 8.52586 14.8052H8.52586C8.52587 14.8052 8.52587 14.8052 8.52587 14.8052C8.52587 14.8052 8.52587 14.8052 8.52587 14.8052H8.52587C8.52587 14.8052 8.52587 14.8052 8.52587 14.8052C8.52587 14.8052 8.52587 14.8052 8.52587 14.8052C8.52587 14.8052 8.52587 14.8052 8.52587 14.8052H8.52587C8.52587 14.8052 8.52587 14.8052 8.52587 14.8052C8.52587 14.8052 8.52587 14.8052 8.52587 14.8052C8.52587 14.8052 8.52587 14.8052 8.52587 14.8052C8.52587 14.8052 8.52587 14.8052 8.52587 14.8052C8.52587 14.8052 8.52587 14.8052 8.52588 14.8052H8.52588C8.52588 14.8052 8.52588 14.8052 8.52588 14.8052C8.52588 14.8052 8.52588 14.8052 8.52588 14.8052C8.52588 14.8052 8.52588 14.8052 8.52588 14.8052C8.52588 14.8052 8.52588 14.8052 8.52588 14.8052C8.52588 14.8052 8.52588 14.8052 8.52588 14.8052C8.52588 14.8052 8.52588 14.8052 8.52588 14.8052H8.52588C8.52588 14.8052 8.52588 14.8052 8.52588 14.8052C8.52588 14.8052 8.52588 14.8052 8.52588 14.8052C8.52588 14.8052 8.52588 14.8052 8.52588 14.8052C8.52589 14.8052 8.52589 14.8052 8.52589 14.8052C8.52589 14.8052 8.52589 14.8052 8.52589 14.8052C8.52589 14.8052 8.52589 14.8052 8.52589 14.8052C8.52589 14.8052 8.52589 14.8052 8.52589 14.8052C8.52589 14.8052 8.52589 14.8052 8.52589 14.8052C8.52589 14.8052 8.52589 14.8052 8.52589 14.8052C8.52589 14.8052 8.52589 14.8052 8.52589 14.8052C8.52589 14.8052 8.52589 14.8052 8.52589 14.8052C8.52589 14.8052 8.52589 14.8052 8.52589 14.8052C8.52589 14.8052 8.52589 14.8052 8.52589 14.8052C8.52589 14.8052 8.52589 14.8052 8.5259 14.8052C8.5259 14.8052 8.5259 14.8052 8.5259 14.8052C8.5259 14.8052 8.5259 14.8052 8.5259 14.8052C8.5259 14.8052 8.5259 14.8052 8.5259 14.8052C8.5259 14.8052 8.5259 14.8052 8.5259 14.8052C8.5259 14.8052 8.5259 14.8052 8.5259 14.8052C8.5259 14.8052 8.5259 14.8052 8.5259 14.8052C8.5259 14.8052 8.5259 14.8052 8.5259 14.8052C8.5259 14.8052 8.5259 14.8052 8.5259 14.8052C8.5259 14.8052 8.5259 14.8052 8.5259 14.8052C8.5259 14.8052 8.5259 14.8052 8.52591 14.8052C8.52591 14.8052 8.52591 14.8052 8.52591 14.8052C8.52591 14.8052 8.52591 14.8052 8.52591 14.8052C8.52591 14.8052 8.52591 14.8052 8.52591 14.8052C8.52591 14.8052 8.52591 14.8052 8.52591 14.8052C8.52591 14.8052 8.52591 14.8052 8.52591 14.8052C8.52591 14.8052 8.52591 14.8052 8.52591 14.8052C8.52591 14.8052 8.52591 14.8052 8.52591 14.8052C8.52591 14.8052 8.52591 14.8052 8.52591 14.8052C8.52591 14.8052 8.52591 14.8052 8.52591 14.8052C8.52591 14.8052 8.52592 14.8052 8.52592 14.8052C8.52592 14.8052 8.52592 14.8052 8.52592 14.8052C8.52592 14.8052 8.52592 14.8052 8.52592 14.8052C8.52592 14.8052 8.52592 14.8052 8.52592 14.8052C8.52592 14.8052 8.52592 14.8052 8.52592 14.8052C8.52592 14.8052 8.52592 14.8052 8.52592 14.8052C8.52592 14.8052 8.52592 14.8052 8.52592 14.8052C8.52592 14.8052 8.52592 14.8052 8.52592 14.8052C8.52592 14.8052 8.52592 14.8052 8.52592 14.8052C8.52592 14.8052 8.52592 14.8052 8.52593 14.8052C8.52593 14.8052 8.52593 14.8052 8.52593 14.8052C8.52593 14.8052 8.52593 14.8052 8.52593 14.8052C8.52593 14.8052 8.52593 14.8052 8.52593 14.8052C8.52593 14.8052 8.52593 14.8052 8.52593 14.8052C8.52593 14.8052 8.52593 14.8052 8.52593 14.8052C8.52593 14.8052 8.52593 14.8052 8.52593 14.8052C8.52593 14.8052 8.52593 14.8052 8.52593 14.8052C8.52593 14.8052 8.52593 14.8052 8.52593 14.8052C8.52593 14.8052 8.52594 14.8052 8.52594 14.8052C8.52594 14.8052 8.52594 14.8052 8.52594 14.8052C8.52594 14.8052 8.52594 14.8052 8.52594 14.8052C8.52594 14.8052 8.52594 14.8052 8.52594 14.8052C8.52594 14.8052 8.52594 14.8052 8.52594 14.8052V14.6052ZM7.98718 14.2666H7.98738V14.0666H7.98718V14.2666ZM7.91667 14.0959L6.13755 15.8748L6.27896 16.0163L8.05809 14.2373L7.91667 14.0959ZM6.13754 15.8748C5.99253 16.0199 5.75629 16.0199 5.61103 15.8748L5.46969 16.0163C5.69299 16.2394 6.05581 16.2394 6.27896 16.0163L6.13754 15.8748ZM5.61107 15.8748L3.83214 14.0959L3.69072 14.2373L5.46965 16.0163L5.61107 15.8748ZM3.83218 14.096C3.68708 13.9507 3.68713 13.7145 3.83214 13.5694L3.69072 13.428C3.46756 13.6512 3.46762 14.014 3.69068 14.2373L3.83218 14.096ZM3.83214 13.5694L5.61107 11.7905L5.46965 11.6491L3.69072 13.428L3.83214 13.5694ZM5.61107 11.7905C5.68161 11.72 5.77481 11.6813 5.8744 11.6813V11.4813C5.72168 11.4813 5.57764 11.5411 5.46965 11.6491L5.61107 11.7905ZM5.8744 11.6813C5.97402 11.6813 6.06717 11.72 6.13746 11.7904L6.27904 11.6492C6.1712 11.5411 6.02711 11.4813 5.8744 11.4813V11.6813ZM6.13754 11.7905L7.91647 13.5694L8.05789 13.428L6.27896 11.6491L6.13754 11.7905ZM7.91651 13.5695C8.06167 13.7145 8.06172 13.9507 7.91647 14.0959L8.05789 14.2373C8.28121 14.014 8.28126 13.6511 8.05786 13.428L7.91651 13.5695ZM16.9782 6.3061L16.0266 5.83478L15.9379 6.014L16.8894 6.48532L16.9782 6.3061ZM16.0266 5.83477C15.7572 5.70141 15.4429 5.71644 15.1876 5.87517L15.2932 6.04503C15.4897 5.92287 15.7304 5.91132 15.9379 6.01401L16.0266 5.83477ZM15.1877 5.87511C14.9321 6.0336 14.7792 6.30854 14.7792 6.60915H14.9792C14.9792 6.37774 15.0964 6.16709 15.2931 6.04508L15.1877 5.87511ZM14.7792 6.60915V7.64005H14.9792V6.60915H14.7792ZM14.7792 7.64005C14.7792 7.95344 14.9422 8.23451 15.2143 8.39018L15.3136 8.21657C15.1037 8.09652 14.9792 7.88168 14.9792 7.64005H14.7792ZM15.2143 8.39019C15.3484 8.46681 15.4958 8.50533 15.6434 8.50533V8.30533C15.5308 8.30533 15.4176 8.27601 15.3136 8.21656L15.2143 8.39019ZM15.6434 8.50533C15.7945 8.50533 15.9451 8.465 16.0814 8.3848L15.9799 8.21243C15.8742 8.27466 15.7586 8.30533 15.6434 8.30533V8.50533ZM16.0814 8.38481L17.0327 7.82522L16.9313 7.65283L15.98 8.21242L16.0814 8.38481ZM17.0327 7.82523C17.3065 7.6642 17.4697 7.3669 17.4582 7.04948L17.2584 7.05669C17.2672 7.30064 17.1419 7.52901 16.9313 7.65283L17.0327 7.82523ZM17.4582 7.04949C17.4468 6.73189 17.2628 6.44717 16.9782 6.30611L16.8894 6.4853C17.1083 6.59378 17.2496 6.81251 17.2584 7.05668L17.4582 7.04949ZM16.5454 6.99619L15.5905 7.55637L15.6917 7.72888L16.6466 7.1687L16.5454 6.99619ZM15.6411 7.64262C15.7391 7.62301 15.7391 7.62303 15.7391 7.62304C15.7391 7.62305 15.7391 7.62306 15.7391 7.62307C15.7391 7.62309 15.7391 7.62311 15.7391 7.62313C15.7392 7.62317 15.7392 7.62321 15.7392 7.62325C15.7392 7.62333 15.7392 7.62341 15.7392 7.62348C15.7392 7.62364 15.7393 7.6238 15.7393 7.62396C15.7394 7.62427 15.7394 7.62459 15.7395 7.62491C15.7396 7.62555 15.7397 7.6262 15.7398 7.62685C15.74 7.62815 15.7402 7.6295 15.7404 7.63089C15.7407 7.63364 15.7409 7.63671 15.7409 7.64005H15.5409C15.5409 7.64497 15.5412 7.64933 15.5416 7.65297C15.5418 7.65481 15.542 7.6565 15.5423 7.65804C15.5424 7.65881 15.5425 7.65955 15.5426 7.66024C15.5427 7.66059 15.5428 7.66093 15.5428 7.66127C15.5429 7.66143 15.5429 7.6616 15.5429 7.66176C15.5429 7.66184 15.5429 7.66192 15.543 7.662C15.543 7.66204 15.543 7.66208 15.543 7.66212C15.543 7.66214 15.543 7.66216 15.543 7.66218C15.543 7.66219 15.543 7.6622 15.543 7.66221C15.543 7.66222 15.543 7.66224 15.6411 7.64262ZM15.7409 7.64039L15.7444 6.60731L15.5444 6.60662L15.5409 7.6397L15.7409 7.64039ZM15.6001 6.69661L16.5525 7.16733L16.6411 6.98804L15.6887 6.51732L15.6001 6.69661ZM16.5019 7.1093C16.4965 7.09302 16.4966 7.07913 16.4975 7.07008C16.4981 7.06461 16.4996 7.0545 16.5046 7.04268C16.509 7.0321 16.5216 7.00784 16.5513 6.993L16.6407 7.17189C16.671 7.15675 16.684 7.13189 16.6888 7.12055C16.6941 7.10797 16.6958 7.09693 16.6965 7.09049C16.6976 7.07951 16.6975 7.06354 16.6917 7.04606L16.5019 7.1093ZM15.2009 17.9792C15.2009 18.3352 15.34 18.6707 15.5918 18.9225L15.7332 18.7811C15.5189 18.5667 15.4009 18.2821 15.4009 17.9792H15.2009ZM15.5918 18.9225L17.3707 20.7014L17.5121 20.56L15.7332 18.7811L15.5918 18.9225ZM17.3707 20.7014C17.6225 20.9533 17.9578 21.0921 18.3138 21.0921V20.8921C18.0109 20.8921 17.7265 20.7743 17.5121 20.56L17.3707 20.7014ZM18.3138 21.0921C18.67 21.0921 19.0055 20.9533 19.2572 20.7014L19.1157 20.56C18.9016 20.7743 18.617 20.8921 18.3138 20.8921V21.0921ZM19.2571 20.7014L21.0361 18.9225L20.8947 18.7811L19.1157 20.56L19.2571 20.7014ZM21.036 18.9225C21.2881 18.6707 21.427 18.3354 21.427 17.9792H21.227C21.227 18.2823 21.1092 18.5667 20.8947 18.781L21.036 18.9225ZM21.427 17.9792C21.427 17.623 21.2881 17.2877 21.036 17.0358L20.8947 17.1773C21.1092 17.3916 21.227 17.676 21.227 17.9792H21.427ZM21.0361 17.0359L19.2571 15.2569L19.1157 15.3984L20.8947 17.1773L21.0361 17.0359ZM19.2572 15.257C18.737 14.7366 17.8908 14.7369 17.3707 15.2569L17.5121 15.3984C17.9541 14.9564 18.6737 14.9562 19.1157 15.3983L19.2572 15.257ZM17.3707 15.2569L15.5916 17.0359L15.733 17.1773L17.5121 15.3984L17.3707 15.2569ZM15.5916 17.0359C15.34 17.2877 15.2009 17.6229 15.2009 17.9792H15.4009C15.4009 17.6761 15.5189 17.3916 15.733 17.1773L15.5916 17.0359ZM16.2718 17.7159L18.0507 15.9369L17.9093 15.7955L16.1303 17.5744L16.2718 17.7159ZM18.0507 15.9369C18.1231 15.8645 18.2183 15.8281 18.314 15.8281V15.6281C18.1677 15.6281 18.0209 15.6839 17.9093 15.7955L18.0507 15.9369ZM18.314 15.8281C18.4095 15.8281 18.5047 15.8645 18.5772 15.9369L18.7186 15.7955C18.607 15.6839 18.4602 15.6281 18.314 15.6281V15.8281ZM18.5772 15.9369L20.3561 17.7159L20.4975 17.5744L18.7186 15.7955L18.5772 15.9369ZM20.3561 17.7159C20.4266 17.7864 20.4653 17.8796 20.4653 17.9792H20.6653C20.6653 17.8265 20.6055 17.6824 20.4975 17.5744L20.3561 17.7159ZM20.4653 17.9792C20.4653 18.0788 20.4266 18.172 20.3562 18.2422L20.4974 18.3838C20.6055 18.276 20.6653 18.1319 20.6653 17.9792H20.4653ZM20.3561 18.2423L18.5772 20.0215L18.7186 20.1629L20.4975 18.3837L20.3561 18.2423ZM18.5772 20.0214C18.5067 20.0918 18.4134 20.1304 18.3138 20.1304V20.3304C18.4665 20.3304 18.6105 20.2707 18.7185 20.163L18.5772 20.0214ZM18.3138 20.1304C18.2145 20.1304 18.1212 20.0918 18.0507 20.0213L17.9093 20.1627C18.0172 20.2706 18.1613 20.3304 18.3138 20.3304V20.1304ZM18.0507 20.0213L16.2718 18.2423L16.1303 18.3837L17.9093 20.1627L18.0507 20.0213ZM16.2717 18.2422C16.2012 18.172 16.1626 18.0788 16.1626 17.9792H15.9626C15.9626 18.1319 16.0223 18.276 16.1304 18.3838L16.2717 18.2422ZM16.1626 17.9792C16.1626 17.8796 16.2012 17.7864 16.2718 17.7159L16.1303 17.5744C16.0224 17.6824 15.9626 17.8265 15.9626 17.9792H16.1626ZM16.868 3.93566L17.2262 4.85905L17.4127 4.78671L17.0544 3.86332L16.868 3.93566ZM17.2262 4.85907C17.3408 5.15436 17.5962 5.36365 17.9082 5.41828L17.9427 5.22128C17.6996 5.17871 17.5019 5.01666 17.4126 4.78669L17.2262 4.85907ZM17.9083 5.4183C17.9605 5.42737 18.0128 5.43208 18.0653 5.43208V5.23208C18.0249 5.23208 17.984 5.22845 17.9425 5.22125L17.9083 5.4183ZM18.0653 5.43208C18.3224 5.43208 18.5665 5.32188 18.7392 5.12361L18.5883 4.99227C18.4535 5.14708 18.2644 5.23208 18.0653 5.23208V5.43208ZM18.7392 5.12359L19.4874 4.26388L19.3365 4.13258L18.5883 4.99229L18.7392 5.12359ZM19.4874 4.26388C19.7136 4.00402 19.7713 3.64452 19.6374 3.32686L19.4531 3.40452C19.5573 3.65181 19.5126 3.93025 19.3365 4.13257L19.4874 4.26388ZM19.6374 3.32692C19.5038 3.00926 19.2063 2.7991 18.8622 2.77947L18.8509 2.97914C19.1186 2.99442 19.3491 3.15718 19.4531 3.40447L19.6374 3.32692ZM18.8623 2.77947L17.7558 2.71579L17.7443 2.91546L18.8508 2.97914L18.8623 2.77947ZM17.7559 2.7158C17.4501 2.69794 17.1594 2.83563 16.9791 3.08352L17.1408 3.20115C17.2811 3.00827 17.5065 2.90158 17.7442 2.91546L17.7559 2.7158ZM16.9791 3.08348C16.7988 3.33117 16.7573 3.65002 16.8679 3.93562L17.0544 3.86336C16.9683 3.64115 17.0006 3.39387 17.1408 3.20119L16.9791 3.08348ZM17.757 3.64895C17.75 3.65858 17.7381 3.66804 17.7226 3.67283C17.7098 3.67677 17.6983 3.67574 17.7031 3.6759L17.7098 3.47601C17.71 3.47602 17.703 3.47566 17.6953 3.47608C17.6869 3.47654 17.676 3.4779 17.6638 3.48167C17.6373 3.48982 17.6131 3.50662 17.5948 3.53193L17.757 3.64895ZM17.7007 3.67579L18.8072 3.73947L18.8187 3.5398L17.7122 3.47612L17.7007 3.67579ZM18.8056 3.73937C18.8111 3.73977 18.7975 3.7397 18.783 3.73236C18.775 3.72833 18.7677 3.72283 18.7618 3.71621C18.756 3.70979 18.7529 3.70383 18.7513 3.7001L18.9356 3.62241C18.9233 3.5931 18.9023 3.56853 18.8731 3.5538C18.8474 3.54085 18.8228 3.54009 18.8202 3.5399L18.8056 3.73937ZM18.7513 3.7001C18.7475 3.69106 18.7442 3.67416 18.7504 3.65468C18.7555 3.63878 18.765 3.62911 18.7621 3.63247L18.9129 3.76383C18.9153 3.76104 18.9322 3.74304 18.941 3.71529C18.951 3.68395 18.9479 3.65168 18.9356 3.62241L18.7513 3.7001ZM18.7621 3.6325L18.0138 4.49221L18.1647 4.62351L18.9129 3.7638L18.7621 3.6325ZM18.0138 4.49224C18.0121 4.49426 18.0191 4.48527 18.0316 4.47861C18.0464 4.47066 18.0622 4.46895 18.0744 4.47118L18.0387 4.66795C18.0705 4.67375 18.1007 4.66847 18.126 4.65492C18.1489 4.64265 18.1625 4.62602 18.1647 4.62348L18.0138 4.49224ZM18.0735 4.47101C18.0854 4.47306 18.0994 4.47985 18.1105 4.49204C18.1199 4.50244 18.1235 4.51298 18.1231 4.51188L17.9361 4.58281C17.9378 4.58747 17.9451 4.60743 17.9626 4.62666C17.9817 4.64768 18.008 4.66269 18.0396 4.66812L18.0735 4.47101ZM18.1228 4.51119L17.7648 3.588L17.5783 3.66032L17.9363 4.58351L18.1228 4.51119ZM17.7646 3.5876C17.7638 3.58563 17.7684 3.59588 17.7686 3.60981C17.7688 3.62609 17.7634 3.64021 17.7565 3.64962L17.5953 3.53126C17.5769 3.55634 17.5682 3.58454 17.5686 3.61238C17.5689 3.63786 17.577 3.65714 17.5784 3.66073L17.7646 3.5876ZM9.0775 20.7014C9.32933 20.9533 9.66461 21.0921 10.0208 21.0921V20.8921C9.71765 20.8921 9.43324 20.7743 9.21892 20.56L9.0775 20.7014ZM10.0208 21.0921C10.377 21.0921 10.7123 20.9533 10.9641 20.7014L10.8227 20.56C10.6084 20.7743 10.324 20.8921 10.0208 20.8921V21.0921ZM10.9641 20.7014L12.7431 18.9225L12.6016 18.7811L10.8227 20.56L10.9641 20.7014ZM12.7431 18.9225C12.9949 18.6707 13.1338 18.3354 13.1338 17.9792H12.9338C12.9338 18.2823 12.816 18.5668 12.6016 18.7811L12.7431 18.9225ZM13.1338 17.9792C13.1338 17.623 12.9949 17.2877 12.7431 17.0359L12.6016 17.1773C12.816 17.3916 12.9338 17.676 12.9338 17.9792H13.1338ZM12.7431 17.0359L10.9641 15.2569L10.8227 15.3984L12.6016 17.1773L12.7431 17.0359ZM10.9641 15.2569C10.4438 14.7366 9.59777 14.7369 9.07751 15.2569L9.2189 15.3984C9.66111 14.9564 10.3805 14.9562 10.8227 15.3984L10.9641 15.2569ZM9.0775 15.2569L7.29857 17.0359L7.43999 17.1773L9.21892 15.3984L9.0775 15.2569ZM7.29858 17.0359C6.77828 17.5559 6.77828 18.4022 7.29858 18.9223L7.43997 18.7809C6.99781 18.3389 6.99781 17.6193 7.43997 17.1773L7.29858 17.0359ZM7.29856 18.9223L9.07749 20.7014L9.21892 20.56L7.43999 18.7809L7.29856 18.9223ZM7.97854 17.7159L9.75767 15.9369L9.61626 15.7955L7.83713 17.5744L7.97854 17.7159ZM9.75768 15.9369C9.83016 15.8644 9.92517 15.8281 10.0208 15.8281V15.6281C9.87445 15.6281 9.72786 15.6839 9.61625 15.7955L9.75768 15.9369ZM10.0208 15.8281C10.1165 15.8281 10.2117 15.8645 10.2841 15.9369L10.4256 15.7955C10.3139 15.6839 10.1671 15.6281 10.0208 15.6281V15.8281ZM10.2841 15.9369L12.0631 17.7159L12.2045 17.5744L10.4256 15.7955L10.2841 15.9369ZM12.0631 17.7159C12.1335 17.7863 12.172 17.8795 12.172 17.9792H12.372C12.372 17.8266 12.3126 17.6825 12.2045 17.5744L12.0631 17.7159ZM12.172 17.9792C12.172 18.0789 12.1335 18.172 12.0632 18.2422L12.2044 18.3838C12.3126 18.2759 12.372 18.1318 12.372 17.9792H12.172ZM12.0631 18.2423L10.2841 20.0215L10.4256 20.1629L12.2045 18.3837L12.0631 18.2423ZM10.2842 20.0214C10.2137 20.0918 10.1204 20.1304 10.0208 20.1304V20.3304C10.1735 20.3304 10.3175 20.2707 10.4255 20.163L10.2842 20.0214ZM10.0208 20.1304C9.92126 20.1304 9.82825 20.0918 9.75768 20.0213L9.61625 20.1627C9.72421 20.2706 9.86805 20.3304 10.0208 20.3304V20.1304ZM9.75768 20.0213L7.97875 18.2423L7.83732 18.3837L9.61625 20.1627L9.75768 20.0213ZM7.97867 18.2422C7.90822 18.172 7.86958 18.0788 7.86958 17.9792H7.66958C7.66958 18.1319 7.72933 18.276 7.8374 18.3838L7.97867 18.2422ZM7.86958 17.9792C7.86958 17.8796 7.90822 17.7863 7.97863 17.7158L7.83705 17.5745C7.72932 17.6825 7.66958 17.8265 7.66958 17.9792H7.86958ZM15.1107 11.1103C14.8589 10.8585 14.5236 10.7196 14.1674 10.7196V10.9196C14.4706 10.9196 14.755 11.0374 14.9693 11.2518L15.1107 11.1103ZM14.1674 10.7196C13.8112 10.7196 13.4759 10.8585 13.2241 11.1103L13.3655 11.2518C13.5798 11.0374 13.8643 10.9196 14.1674 10.9196V10.7196ZM13.2241 11.1103L11.4452 12.8893L11.5866 13.0307L13.3655 11.2518L13.2241 11.1103ZM11.4452 12.8893C10.9249 13.4095 10.9249 14.2556 11.4452 14.7759L11.5866 14.6345C11.1444 14.1923 11.1444 13.4729 11.5866 13.0307L11.4452 12.8893ZM11.4452 14.7759L13.2241 16.5548L13.3655 16.4134L11.5866 14.6345L11.4452 14.7759ZM13.2241 16.5548C13.4843 16.815 13.8261 16.9449 14.1674 16.9449V16.7449C13.8768 16.7449 13.5866 16.6344 13.3655 16.4134L13.2241 16.5548ZM14.1674 16.9449C14.5087 16.9449 14.8505 16.815 15.1107 16.5548L14.9693 16.4134C14.7483 16.6344 14.4581 16.7449 14.1674 16.7449V16.9449ZM15.1107 16.5548L16.8897 14.7759L16.7482 14.6345L14.9693 16.4134L15.1107 16.5548ZM16.8897 14.7759C17.4097 14.2556 17.4097 13.4096 16.8897 12.8893L16.7482 13.0307C17.1902 13.4729 17.1902 14.1923 16.7482 14.6345L16.8897 14.7759ZM16.8897 12.8893L15.1107 11.1103L14.9693 11.2518L16.7482 13.0307L16.8897 12.8893ZM16.2097 14.0959L14.4306 15.8748L14.572 16.0163L16.3511 14.2373L16.2097 14.0959ZM14.4306 15.8748C14.2855 16.0199 14.0493 16.0199 13.904 15.8748L13.7627 16.0163C13.986 16.2394 14.3488 16.2394 14.572 16.0163L14.4306 15.8748ZM13.9041 15.8748L12.1252 14.0959L11.9837 14.2373L13.7627 16.0163L13.9041 15.8748ZM12.1252 14.096C11.9801 13.9507 11.9801 13.7145 12.1252 13.5694L11.9837 13.428C11.7606 13.6512 11.7606 14.014 11.9837 14.2373L12.1252 14.096ZM12.1251 13.5694L13.9043 11.7905L13.7629 11.6491L11.9837 13.428L12.1251 13.5694ZM13.9044 11.7904C13.9747 11.72 14.0678 11.6813 14.1674 11.6813V11.4813C14.0147 11.4813 13.8706 11.5411 13.7628 11.6492L13.9044 11.7904ZM14.1674 11.6813C14.267 11.6813 14.3602 11.72 14.4308 11.7905L14.5722 11.6491C14.4642 11.5411 14.3201 11.4813 14.1674 11.4813V11.6813ZM14.4308 11.7905L16.2097 13.5694L16.3511 13.428L14.5722 11.6491L14.4308 11.7905ZM16.2097 13.5694C16.3547 13.7145 16.3547 13.9507 16.2096 14.096L16.3511 14.2373C16.5742 14.014 16.5743 13.6512 16.3511 13.428L16.2097 13.5694ZM13.2241 24.8481C13.4843 25.108 13.8261 25.2382 14.1674 25.2382V25.0382C13.8768 25.0382 13.5866 24.9275 13.3655 24.7066L13.2241 24.8481ZM14.1674 25.2382C14.5088 25.2382 14.8506 25.108 15.1107 24.8481L14.9693 24.7066C14.7483 24.9275 14.458 25.0382 14.1674 25.0382V25.2382ZM15.1107 24.848L16.8897 23.0689L16.7482 22.9275L14.9693 24.7066L15.1107 24.848ZM16.8897 23.0689C17.1415 22.8171 17.2804 22.4818 17.2804 22.1258H17.0804C17.0804 22.4287 16.9626 22.7132 16.7482 22.9275L16.8897 23.0689ZM17.2804 22.1258C17.2804 21.7696 17.1415 21.4343 16.8897 21.1823L16.7482 21.3237C16.9626 21.5382 17.0804 21.8226 17.0804 22.1258H17.2804ZM16.8897 21.1823L15.1107 19.4035L14.9693 19.545L16.7482 21.3237L16.8897 21.1823ZM15.1107 19.4035C14.8589 19.1517 14.5236 19.0128 14.1674 19.0128V19.2128C14.4706 19.2128 14.755 19.3306 14.9693 19.545L15.1107 19.4035ZM14.1674 19.0128C13.8112 19.0128 13.4759 19.1517 13.2241 19.4035L13.3655 19.545C13.5798 19.3306 13.8643 19.2128 14.1674 19.2128V19.0128ZM13.2241 19.4035L11.4452 21.1825L11.5866 21.3239L13.3655 19.545L13.2241 19.4035ZM11.4452 21.1825C11.1933 21.4343 11.0545 21.7696 11.0545 22.1258H11.2545C11.2545 21.8226 11.3723 21.5382 11.5866 21.3239L11.4452 21.1825ZM11.0545 22.1258C11.0545 22.4818 11.1933 22.8173 11.4452 23.0691L11.5866 22.9277C11.3723 22.7134 11.2545 22.4288 11.2545 22.1258H11.0545ZM11.4452 23.0691L13.2241 24.848L13.3655 24.7066L11.5866 22.9277L11.4452 23.0691ZM12.1252 21.8625L13.9041 20.0835L13.7627 19.9421L11.9837 21.721L12.1252 21.8625ZM13.9041 20.0835C13.9745 20.0131 14.0677 19.9746 14.1674 19.9746V19.7746C14.0148 19.7746 13.8707 19.834 13.7627 19.9421L13.9041 20.0835ZM14.1674 19.9746C14.2671 19.9746 14.3603 20.0131 14.4305 20.0835L14.5721 19.9422C14.4641 19.834 14.32 19.7746 14.1674 19.7746V19.9746ZM14.4306 20.0835L16.2097 21.8625L16.3511 21.721L14.572 19.9421L14.4306 20.0835ZM16.2096 21.8624C16.28 21.9329 16.3187 22.0262 16.3187 22.1258H16.5187C16.5187 21.9731 16.4589 21.8291 16.3512 21.7211L16.2096 21.8624ZM16.3187 22.1258C16.3187 22.2252 16.28 22.3186 16.2097 22.3889L16.3511 22.5304C16.4589 22.4225 16.5187 22.2783 16.5187 22.1258H16.3187ZM16.2097 22.3889L14.4306 24.1679L14.572 24.3093L16.3511 22.5304L16.2097 22.3889ZM14.4306 24.1679C14.2855 24.3129 14.0493 24.3131 13.9041 24.1679L13.7627 24.3093C13.986 24.5326 14.3489 24.5324 14.572 24.3093L14.4306 24.1679ZM13.9041 24.1679L12.1252 22.3889L11.9837 22.5304L13.7627 24.3093L13.9041 24.1679ZM12.1251 22.3889C12.0547 22.3186 12.0162 22.2253 12.0162 22.1258H11.8162C11.8162 22.2782 11.8756 22.4225 11.9838 22.5304L12.1251 22.3889ZM12.0162 22.1258C12.0162 22.0261 12.0547 21.9329 12.1252 21.8625L11.9837 21.721C11.8757 21.8291 11.8162 21.9732 11.8162 22.1258H12.0162ZM9.33145 7.23145C9.52809 7.3975 9.77452 7.48654 10.0278 7.48654V7.28654C9.82158 7.28654 9.6209 7.2141 9.46048 7.07864L9.33145 7.23145ZM10.0278 7.48654C10.0881 7.48654 10.1486 7.48151 10.2091 7.47124L10.1757 7.27406C10.1263 7.28244 10.0769 7.28654 10.0278 7.28654V7.48654ZM10.2091 7.47124C10.5684 7.41036 10.9145 7.32595 11.2484 7.2198L11.1878 7.0292C10.8628 7.13252 10.5258 7.21473 10.1757 7.27406L10.2091 7.47124ZM11.2424 7.22151C11.2481 7.22009 11.2528 7.21856 11.2555 7.21765C11.2566 7.21727 11.2583 7.21672 11.2587 7.21659C11.2594 7.21634 11.2596 7.21628 11.2596 7.21628L11.1993 7.02557C11.1974 7.02617 11.1958 7.02672 11.1946 7.02711C11.1932 7.0276 11.193 7.02768 11.1922 7.02792C11.1913 7.02825 11.1922 7.02791 11.1939 7.02748L11.2424 7.22151ZM11.2599 7.21618C13.372 6.54117 14.9754 4.96197 16.1442 2.43731L15.9627 2.35328C14.8107 4.84168 13.2442 6.37204 11.199 7.02567L11.2599 7.21618ZM16.1442 2.43732C16.3005 2.09977 16.2746 1.7109 16.0744 1.39799L15.9059 1.50576C16.0692 1.76096 16.0905 2.07748 15.9627 2.35327L16.1442 2.43732ZM16.0745 1.39806C15.8754 1.08617 15.5351 0.9 15.165 0.9V1.1C15.4669 1.1 15.7436 1.25144 15.9059 1.50568L16.0745 1.39806ZM15.165 0.9H10.9654V1.1H15.165V0.9ZM10.9654 0.9C9.85291 0.9 8.94784 1.80508 8.94784 2.91779H9.14784C9.14784 1.91553 9.96338 1.1 10.9654 1.1V0.9ZM8.94784 2.91779V4.26646H9.14784V2.91779H8.94784ZM8.94784 4.26646C8.94784 4.53196 9.1632 4.74732 9.4287 4.74732V4.54732C9.27366 4.54732 9.14784 4.4215 9.14784 4.26646H8.94784ZM9.4287 4.74732C9.69419 4.74732 9.90956 4.53196 9.90956 4.26646H9.70955C9.70955 4.4215 9.58373 4.54732 9.4287 4.54732V4.74732ZM9.90956 4.26646V2.91779H9.70955V4.26646H9.90956ZM9.90956 2.91779C9.90956 2.33546 10.3833 1.86172 10.9654 1.86172V1.66172C10.2728 1.66172 9.70955 2.22503 9.70955 2.91779H9.90956ZM10.9654 1.86172H15.165V1.66172H10.9654V1.86172ZM15.165 1.86172C15.2213 1.86172 15.2499 1.89358 15.2639 1.91549L15.4327 1.80829C15.399 1.75522 15.3162 1.66172 15.165 1.66172V1.86172ZM15.264 1.91572C15.2757 1.93399 15.2969 1.97808 15.2714 2.03309L15.4529 2.11718C15.5202 1.97184 15.4602 1.85128 15.4326 1.80806L15.264 1.91572ZM15.2714 2.03314C15.1653 2.26241 15.0551 2.48241 14.9414 2.69435L15.1176 2.78893C15.2332 2.57359 15.3452 2.35005 15.4529 2.11712L15.2714 2.03314ZM15.0874 2.6601C14.8666 2.5033 14.5989 2.41332 14.3172 2.41332V2.61332C14.556 2.61332 14.7834 2.68957 14.9716 2.82318L15.0874 2.6601ZM14.3172 2.41332H11.8013V2.61332H14.3172V2.41332ZM11.8013 2.41332C11.0657 2.41332 10.4673 3.01173 10.4673 3.74734H10.6673C10.6673 3.12218 11.1762 2.61332 11.8013 2.61332V2.41332ZM10.4673 3.74734V6.2632H10.6673V3.74734H10.4673ZM10.4673 6.2632C10.4673 6.35436 10.4775 6.44333 10.4949 6.52971L10.6909 6.49021C10.6758 6.41513 10.6673 6.33946 10.6673 6.2632H10.4673ZM10.5685 6.41299C10.3981 6.45587 10.225 6.49318 10.0482 6.52304L10.0815 6.72025C10.2641 6.6894 10.4425 6.65094 10.6173 6.60694L10.5685 6.41299ZM10.0478 6.52312C10.0013 6.53117 9.96873 6.51107 9.95174 6.49676L9.82288 6.64972C9.86382 6.68421 9.95462 6.74226 10.0819 6.72017L10.0478 6.52312ZM9.95205 6.49702C9.93505 6.48258 9.90956 6.45359 9.90956 6.40582H9.70955C9.70955 6.535 9.78166 6.61471 9.82258 6.64946L9.95205 6.49702ZM9.90956 6.40582V6.03845H9.70955V6.40582H9.90956ZM9.90956 6.03845C9.90956 5.77273 9.69416 5.55759 9.4287 5.55759V5.75759C9.58377 5.75759 9.70955 5.88325 9.70955 6.03845H9.90956ZM9.4287 5.55759C9.16323 5.55759 8.94784 5.77273 8.94784 6.03845H9.14784C9.14784 5.88325 9.27362 5.75759 9.4287 5.75759V5.55759ZM8.94784 6.03845V6.40582H9.14784V6.03845H8.94784ZM8.94784 6.40582C8.94784 6.72474 9.08781 7.02561 9.33143 7.23143L9.4605 7.07866C9.26177 6.91076 9.14784 6.66573 9.14784 6.40582H8.94784ZM11.429 3.74734C11.429 3.54212 11.5961 3.37504 11.8013 3.37504V3.17504C11.4857 3.17504 11.229 3.43166 11.229 3.74734H11.429ZM11.8013 3.37504H14.3172V3.17504H11.8013V3.37504ZM14.3172 3.37504C14.4133 3.37504 14.5044 3.41361 14.5731 3.47911L14.7111 3.3344C14.6072 3.23526 14.4674 3.17504 14.3172 3.17504V3.37504ZM14.5576 3.35328C13.6758 4.747 12.5955 5.68103 11.2934 6.18359L11.3654 6.37018C12.7143 5.84958 13.826 4.88367 14.7266 3.46022L14.5576 3.35328ZM11.4294 6.27689C11.4294 6.27207 11.4292 6.26762 11.4291 6.2657C11.429 6.26305 11.429 6.26294 11.429 6.2632H11.229C11.229 6.26802 11.2292 6.27247 11.2293 6.27439C11.2294 6.27703 11.2294 6.27714 11.2294 6.27689H11.4294ZM11.429 6.2632V3.74734H11.229V6.2632H11.429Z" fill="#232323" mask="url(#path-1-outside-1_21_741)"/>
</svg>
