<svg width="29" height="28" viewBox="0 0 29 28" fill="none" xmlns="http://www.w3.org/2000/svg">
<path d="M23.8073 12.3285H26.6397H26.6397V12.4035C27.1477 12.4031 27.63 12.6264 27.9583 13.014C28.2866 13.4016 28.4274 13.9141 28.3434 14.4151L23.8073 12.3285ZM23.8073 12.3285C23.8556 11.9878 23.8806 11.6442 23.8821 11.3V11.2996V9.21052C23.8821 8.41334 23.2359 7.7671 22.4387 7.7671H6.92994C6.13276 7.7671 5.48652 8.41334 5.48652 9.21052L5.48652 11.2996L5.48652 11.2999C5.48912 12.0463 5.5994 12.7884 5.81397 13.5033C5.89734 13.7845 6.19286 13.9449 6.47412 13.8616C6.75542 13.7783 6.91593 13.4827 6.83263 13.2014L6.8326 13.2013C6.67412 12.669 6.58221 12.1191 6.55887 11.5644H8.7545C9.04784 11.5644 9.28564 11.3266 9.28564 11.0333C9.28564 10.7399 9.04784 10.5021 8.7545 10.5021H6.5488V9.21052C6.5488 9.00002 6.71944 8.82938 6.92994 8.82938H22.4387C22.6492 8.82938 22.8198 9.00002 22.8198 9.21052V10.5039H11.4913C11.198 10.5039 10.9602 10.7417 10.9602 11.0351C10.9602 11.3284 11.198 11.5662 11.4913 11.5662H22.8085C22.7434 12.9583 22.2571 14.2985 21.4129 15.4088L21.4127 15.409C20.6046 16.4823 19.5449 18.3887 18.9476 21.4513H17.8043C17.511 21.4513 17.2732 21.6891 17.2732 21.9824C17.2732 22.2758 17.511 22.5136 17.8043 22.5136H23.8298C24.0277 22.5138 24.188 22.6741 24.1882 22.872V22.9221L24.1882 22.9225C24.1888 23.0321 24.1397 23.1361 24.0548 23.2053C24.0547 23.2054 24.0546 23.2055 24.0545 23.2055L22.354 24.5644L22.4008 24.623L22.354 24.5644C22.2895 24.616 22.2095 24.6441 22.127 24.6443M23.8073 12.3285L22.127 24.6443M25.2505 22.9221L25.2505 22.9218L25.2505 22.8719V22.8718C25.2497 22.0876 24.6142 21.4521 23.83 21.4513H23.8299H20.0486C20.2719 20.8568 20.6183 20.2286 21.1547 19.7406C21.7196 19.2265 22.4991 18.8645 23.579 18.8645C25.5806 18.8645 26.7752 17.8645 27.4753 16.8102C28.173 15.7594 28.3808 14.654 28.4174 14.4273L24.6738 23.9753C24.9925 23.7188 25.1771 23.3312 25.1755 22.9221H25.2505ZM25.2505 22.9221C25.2521 23.3539 25.0572 23.763 24.7208 24.0337L24.7206 24.0339L23.0164 25.3946L23.0164 25.3946C22.7642 25.5958 22.4513 25.7057 22.1287 25.7065L22.1285 25.7065H16.4359C16.1426 25.7065 15.9048 25.4687 15.9048 25.1754C15.9048 24.8821 16.1426 24.6443 16.4359 24.6443H22.127M25.2505 22.9221L22.127 24.6443M22.127 24.6443L22.1271 24.7193V24.6443H22.127ZM26.6397 13.3158H23.5261C23.255 14.2851 22.8061 15.1957 22.2024 16.0011L26.6397 13.3158ZM26.6397 13.3158C26.8812 13.3154 27.1104 13.4222 27.2656 13.6073L26.6397 13.3158ZM6.76071 13.2227C6.60017 12.6834 6.50718 12.1264 6.48381 11.5644L6.76071 13.2227ZM22.2627 16.0457C22.8605 15.2482 23.3078 14.3485 23.5828 13.3908L26.6397 13.3908L26.6398 13.3908C26.8591 13.3905 27.0672 13.4874 27.2081 13.6554L27.2083 13.6557C27.3479 13.8206 27.4072 14.0389 27.37 14.2516L27.3699 14.2525C27.3218 14.5491 27.1383 15.4397 26.5834 16.2544C26.0309 17.0656 25.1109 17.8018 23.5801 17.8022C22.6047 17.7747 21.6491 18.0637 20.8546 18.6223C21.2093 17.706 21.6826 16.8397 22.2627 16.0457Z" fill="#232323" stroke="#232323" stroke-width="0.15"/>
<path d="M16.5838 21.0702L16.5838 21.0697C16.6131 20.0987 16.2473 19.1573 15.57 18.4608L15.57 18.4608L15.5691 18.4598C13.9257 16.8277 10.8924 17.2381 8.81211 19.3186C7.6689 20.3971 6.99504 21.8816 6.93569 23.4521C6.88974 24.4247 7.25622 25.3716 7.945 26.0599C8.63386 26.7482 9.58117 27.114 10.5539 27.0671L10.6253 27.0637V27.0629C12.1737 26.9904 13.6361 26.325 14.7084 25.2031C15.8513 24.1247 16.5248 22.6405 16.5838 21.0702ZM13.96 24.4485L13.96 24.4485L13.9584 24.45C13.1129 25.2958 12.0977 25.812 11.1436 25.9651C10.1895 26.1182 9.30294 25.9078 8.70094 25.3101C8.69964 25.3087 8.69835 25.3073 8.69705 25.3059C8.95948 25.1692 9.24769 25.0881 9.54357 25.0683L9.54438 25.0682C11.0072 24.9541 12.1699 23.7935 12.2867 22.331L12.2868 22.331L12.2869 22.3291C12.3413 21.3441 13.1292 20.5583 14.1144 20.5065L14.1144 20.5065L14.1167 20.5063C14.5589 20.4691 14.9879 20.3388 15.3756 20.1242C15.4755 20.4271 15.5248 20.7445 15.5216 21.0638C15.4569 22.3512 14.8975 23.5638 13.96 24.4485ZM9.55993 20.0715L9.56001 20.0716L9.56297 20.0684C10.4524 19.1267 11.6727 18.5672 12.9667 18.5077C13.6536 18.4852 14.321 18.7387 14.8198 19.2117C14.8207 19.2127 14.8217 19.2137 14.8227 19.2147C14.5603 19.3515 14.2721 19.4327 13.9763 19.4527L13.9755 19.4527C12.5129 19.567 11.3504 20.7276 11.2336 22.1899L11.2336 22.1899L11.2335 22.1918C11.1796 23.1777 10.3911 23.9643 9.4051 24.0158L9.40509 24.0158L9.40278 24.016C8.96046 24.0529 8.53137 24.1832 8.14377 24.398C8.04364 24.095 7.99428 23.7772 7.99788 23.4576C8.06261 22.1698 8.62222 20.9567 9.55993 20.0715Z" fill="#232323" stroke="#232323" stroke-width="0.15"/>
<path d="M5.74045 27.075C6.02291 27.0764 6.30451 27.0438 6.57919 26.978L6.57932 26.978C6.82296 26.9192 6.9923 26.6981 6.98565 26.4476C6.97158 25.6605 6.67892 24.9039 6.15967 24.3122L6.15969 24.3122L6.15835 24.3107C5.76406 23.8845 5.54876 23.3231 5.55705 22.7425L5.55703 22.7407C5.55137 22.1586 5.76669 21.596 6.15956 21.1664L6.15958 21.1664L6.16109 21.1646C7.25879 19.8874 7.25879 17.9998 6.16109 16.7226L6.1611 16.7226L6.16044 16.7219C5.89547 16.4217 5.70689 16.0625 5.61006 15.6749C5.65374 15.6726 5.69678 15.6715 5.73917 15.6715C6.91778 15.6755 8.01013 16.4187 8.73021 17.7301C8.81907 17.9005 8.99306 18.0096 9.18518 18.0154C9.3776 18.0211 9.55808 17.9224 9.65692 17.7572C9.75562 17.5922 9.75747 17.3868 9.66182 17.2201C8.7709 15.5947 7.3078 14.6125 5.74091 14.6074L5.74055 14.6074C5.46038 14.6078 5.1811 14.639 4.90774 14.7004L4.90771 14.7004C2.58337 15.2235 0.920455 17.816 0.925009 20.8421M5.74045 27.075C3.0631 27.0698 0.920463 24.2547 0.925009 20.8421M5.74045 27.075C5.7404 27.075 5.74035 27.075 5.74029 27.075L5.74067 27L5.74052 27.075C5.7405 27.075 5.74048 27.075 5.74045 27.075ZM0.925009 20.8421C0.925009 20.8421 0.925009 20.842 0.925009 20.842L1.00001 20.8421L0.92501 20.8422C0.925009 20.8422 0.925009 20.8421 0.925009 20.8421ZM5.92291 18.9388L5.92294 18.9408C5.9293 19.524 5.71359 20.0877 5.31955 20.5177L5.31952 20.5177L5.31794 20.5195C4.22105 21.7971 4.22105 23.684 5.31794 24.9615L5.31794 24.9615L5.31865 24.9623C5.58414 25.2627 5.77279 25.6225 5.86908 26.0108C5.82799 26.0127 5.78622 26.0136 5.74358 26.0136C4.71459 26.0112 3.77633 25.4384 3.09303 24.5025C2.40978 23.5667 1.98548 22.2722 1.98729 20.8422L1.98729 20.842C1.98373 18.5948 3.07401 16.6129 4.57898 15.9292C4.71138 16.4598 4.96561 16.9527 5.322 17.3686L5.32196 17.3686L5.32382 17.3706C5.71731 17.7972 5.9318 18.3586 5.92291 18.9388Z" fill="#232323" stroke="#232323" stroke-width="0.15"/>
<path d="M12.9347 1.45753L12.9347 1.45753V1.45614C12.9347 1.1628 12.6969 0.925 12.4036 0.925C12.1102 0.925 11.8724 1.1628 11.8724 1.45614C11.8724 1.54681 11.8534 1.60631 11.8127 1.66628C11.769 1.7307 11.7001 1.79656 11.5915 1.89738C11.2023 2.18683 10.969 2.64043 10.9602 3.12561L10.9601 3.12561L10.9602 3.12833C10.9689 3.61376 11.202 4.06768 11.5912 4.35761C11.7011 4.45833 11.77 4.5243 11.8133 4.58881C11.8536 4.64892 11.8724 4.70911 11.8724 4.80147C11.8724 4.89343 11.8533 4.95339 11.8126 5.01357C11.7688 5.07824 11.6999 5.14418 11.591 5.2455C11.2027 5.53501 10.9698 5.98775 10.9602 6.47219H10.9602V6.47368C10.9602 6.76702 11.198 7.00481 11.4913 7.00481C11.7846 7.00481 12.0224 6.76702 12.0224 6.47368C12.0224 6.38248 12.0416 6.3226 12.0823 6.26221C12.1261 6.1974 12.1951 6.13109 12.3039 6.0296C12.6924 5.73965 12.9253 5.28641 12.9347 4.80155L12.9348 4.80155L12.9347 4.79873C12.9258 4.31341 12.6928 3.85961 12.3038 3.56959C12.195 3.46878 12.126 3.4028 12.0823 3.33821C12.0416 3.27803 12.0224 3.21819 12.0224 3.12698C12.0224 3.03579 12.0415 2.97621 12.0822 2.9163C12.126 2.8519 12.1949 2.78616 12.3038 2.68529C12.6927 2.39575 12.9257 1.94244 12.9347 1.45753Z" fill="#232323" stroke="#232323" stroke-width="0.15"/>
<path d="M15.6713 1.45753L15.6713 1.45753V1.45614C15.6713 1.1628 15.4335 0.925 15.1401 0.925C14.8468 0.925 14.609 1.1628 14.609 1.45614C14.609 1.54681 14.5899 1.60631 14.5492 1.66628C14.5056 1.7307 14.4367 1.79656 14.3281 1.89738C13.9388 2.18683 13.7056 2.64043 13.6967 3.12561L13.6967 3.12561L13.6967 3.12833C13.7055 3.61376 13.9386 4.06768 14.3278 4.35761C14.4376 4.45833 14.5065 4.5243 14.5498 4.58881C14.5902 4.64892 14.609 4.70911 14.609 4.80147C14.609 4.89343 14.5898 4.95339 14.5491 5.01357C14.5054 5.07824 14.4364 5.14418 14.3276 5.2455C13.9393 5.53501 13.7063 5.98775 13.6967 6.47219H13.6967V6.47368C13.6967 6.76702 13.9345 7.00481 14.2279 7.00481C14.5212 7.00481 14.759 6.76702 14.759 6.47368C14.759 6.38248 14.7781 6.3226 14.8189 6.26221C14.8627 6.1974 14.9317 6.13109 15.0405 6.0296C15.429 5.73965 15.6619 5.28641 15.6713 4.80155L15.6713 4.80155L15.6713 4.79873C15.6624 4.31341 15.4294 3.85961 15.0404 3.56959C14.9316 3.46878 14.8626 3.4028 14.8189 3.33821C14.7781 3.27803 14.759 3.21819 14.759 3.12698C14.759 3.03579 14.7781 2.97621 14.8188 2.9163C14.8625 2.8519 14.9315 2.78616 15.0403 2.68529C15.4292 2.39575 15.6623 1.94244 15.6713 1.45753Z" fill="#232323" stroke="#232323" stroke-width="0.15"/>
<path d="M18.4083 1.45753L18.4083 1.45753V1.45614C18.4083 1.1628 18.1705 0.925 17.8772 0.925C17.5839 0.925 17.3461 1.1628 17.3461 1.45614C17.3461 1.54681 17.327 1.60631 17.2863 1.66628C17.2426 1.7307 17.1737 1.79656 17.0652 1.89738C16.6759 2.18683 16.4426 2.64043 16.4338 3.12561L16.4338 3.12561L16.4338 3.12833C16.4425 3.61376 16.6756 4.06768 17.0649 4.35761C17.1747 4.45833 17.2436 4.5243 17.2869 4.58881C17.3273 4.64892 17.3461 4.70911 17.3461 4.80147C17.3461 4.89343 17.3269 4.95339 17.2862 5.01357C17.2424 5.07824 17.1735 5.14418 17.0646 5.2455C16.6763 5.53501 16.4434 5.98775 16.4338 6.47219H16.4338V6.47368C16.4338 6.76702 16.6716 7.00481 16.9649 7.00481C17.2583 7.00481 17.4961 6.76702 17.4961 6.47368C17.4961 6.38248 17.5152 6.3226 17.556 6.26221C17.5997 6.1974 17.6688 6.13109 17.7775 6.0296C18.1661 5.73965 18.399 5.28641 18.4083 4.80155L18.4084 4.80155L18.4083 4.79873C18.3995 4.31341 18.1665 3.85961 17.7774 3.56959C17.6686 3.46878 17.5997 3.4028 17.5559 3.33821C17.5152 3.27803 17.4961 3.21819 17.4961 3.12698C17.4961 3.03579 17.5152 2.97621 17.5559 2.9163C17.5996 2.8519 17.6686 2.78616 17.7774 2.68529C18.1663 2.39575 18.3993 1.94244 18.4083 1.45753Z" fill="#232323" stroke="#232323" stroke-width="0.15"/>
</svg>
