<svg width="36" height="36" viewBox="0 0 36 36" fill="none" xmlns="http://www.w3.org/2000/svg">
<rect x="0.5" y="0.5" width="35" height="35" rx="1.5" stroke="#232323"/>
<path d="M16.0006 18.5C16.0006 17.1193 17.1196 15.9998 18.5003 15.9998C19.881 15.9998 21.0006 17.1193 21.0006 18.5C21.0006 19.8807 19.881 21.0002 18.5003 21.0002C17.1196 21.0002 16.0006 19.8807 16.0006 18.5ZM14.649 18.5C14.649 20.627 16.3732 22.3512 18.5003 22.3512C20.6274 22.3512 22.3516 20.627 22.3516 18.5C22.3516 16.373 20.6274 14.6488 18.5003 14.6488C16.3732 14.6488 14.649 16.373 14.649 18.5ZM21.604 14.4961C21.604 14.6741 21.6567 14.8482 21.7555 14.9962C21.8544 15.1443 21.9949 15.2597 22.1593 15.3279C22.3238 15.396 22.5047 15.4139 22.6793 15.3793C22.8539 15.3446 23.0143 15.259 23.1402 15.1332C23.2662 15.0073 23.352 14.847 23.3868 14.6724C23.4215 14.4979 23.4038 14.3169 23.3357 14.1524C23.2677 13.9879 23.1524 13.8473 23.0044 13.7484C22.8564 13.6494 22.6825 13.5966 22.5044 13.5965H22.5041C22.2655 13.5966 22.0367 13.6914 21.8679 13.8601C21.6992 14.0288 21.6043 14.2575 21.604 14.4961ZM15.4702 24.6048C14.7389 24.5715 14.3415 24.4497 14.0773 24.3468C13.7272 24.2105 13.4773 24.0481 13.2146 23.7858C12.9519 23.5235 12.7893 23.2739 12.6536 22.9237C12.5506 22.6597 12.4288 22.2622 12.3956 21.531C12.3592 20.7404 12.352 20.5029 12.352 18.5001C12.352 16.4972 12.3598 16.2604 12.3956 15.4692C12.4289 14.7379 12.5516 14.3412 12.6536 14.0764C12.7899 13.7262 12.9523 13.4764 13.2146 13.2137C13.477 12.951 13.7266 12.7884 14.0773 12.6527C14.3414 12.5497 14.7389 12.4279 15.4702 12.3947C16.2608 12.3583 16.4983 12.3511 18.5003 12.3511C20.5023 12.3511 20.7401 12.3589 21.5313 12.3947C22.2626 12.428 22.6594 12.5507 22.9242 12.6527C23.2743 12.7884 23.5242 12.9514 23.7869 13.2137C24.0496 13.476 24.2116 13.7262 24.3479 14.0764C24.4509 14.3404 24.5727 14.7379 24.6059 15.4692C24.6423 16.2604 24.6495 16.4972 24.6495 18.5001C24.6495 20.5029 24.6423 20.7397 24.6059 21.531C24.5726 22.2622 24.4502 22.6596 24.3479 22.9237C24.2116 23.2739 24.0492 23.5237 23.7869 23.7858C23.5245 24.0479 23.2743 24.2105 22.9242 24.3468C22.6601 24.4498 22.2626 24.5716 21.5313 24.6048C20.7407 24.6412 20.5032 24.6484 18.5003 24.6484C16.4974 24.6484 16.2605 24.6412 15.4702 24.6048ZM15.4081 11.0454C14.6096 11.0818 14.064 11.2084 13.5875 11.3938C13.0941 11.5852 12.6763 11.8421 12.2589 12.2589C11.8415 12.6756 11.5853 13.094 11.3938 13.5874C11.2084 14.0642 11.0818 14.6095 11.0454 15.4079C11.0085 16.2076 11 16.4632 11 18.5C11 20.5368 11.0085 20.7924 11.0454 21.5921C11.0818 22.3906 11.2084 22.9358 11.3938 23.4126C11.5853 23.9057 11.8415 24.3246 12.2589 24.7411C12.6763 25.1577 13.0941 25.4142 13.5875 25.6062C14.0649 25.7916 14.6096 25.9182 15.4081 25.9546C16.2082 25.9909 16.4635 26 18.5003 26C20.5371 26 20.7928 25.9915 21.5925 25.9546C22.391 25.9182 22.9363 25.7916 23.4131 25.6062C23.9062 25.4142 24.3243 25.1579 24.7417 24.7411C25.1591 24.3244 25.4148 23.9057 25.6068 23.4126C25.7922 22.9358 25.9194 22.3905 25.9552 21.5921C25.9915 20.7918 26 20.5368 26 18.5C26 16.4632 25.9915 16.2076 25.9552 15.4079C25.9188 14.6094 25.7922 14.0639 25.6068 13.5874C25.4148 13.0943 25.1585 12.6763 24.7417 12.2589C24.3249 11.8414 23.9062 11.5852 23.4137 11.3938C22.9363 11.2084 22.391 11.0812 21.5931 11.0454C20.7934 11.0091 20.5377 11 18.5009 11C16.4641 11 16.2082 11.0085 15.4081 11.0454Z" fill="#232323"/>
</svg>
