<svg width="15" height="16" viewBox="0 0 15 16" fill="none" xmlns="http://www.w3.org/2000/svg">
<path fill-rule="evenodd" clip-rule="evenodd" d="M8.07773 1.11016C8.07773 0.723557 7.76433 0.410156 7.37773 0.410156C6.99114 0.410156 6.67773 0.723557 6.67773 1.11016L6.67773 7.08675H0.7C0.313401 7.08675 0 7.40015 0 7.78675C0 8.17335 0.313401 8.48675 0.7 8.48675H6.67773L6.67773 14.4635C6.67773 14.8501 6.99113 15.1635 7.37773 15.1635C7.76433 15.1635 8.07773 14.8501 8.07773 14.4635V8.48675H14.0533C14.4399 8.48675 14.7533 8.17335 14.7533 7.78675C14.7533 7.40015 14.4399 7.08675 14.0533 7.08675H8.07773V1.11016Z" fill="#27AE60"/>
</svg>
