<svg width="20" height="20" viewBox="0 0 20 20" fill="none" xmlns="http://www.w3.org/2000/svg">
<path d="M18.8291 17.9752L13.9211 13.1457C15.2064 11.7494 15.9961 9.90267 15.9961 7.87056C15.9954 3.52349 12.4149 0 7.99772 0C3.58055 0 0 3.52349 0 7.87056C0 12.2176 3.58055 15.7411 7.99772 15.7411C9.90624 15.7411 11.6567 15.081 13.0317 13.9835L17.9586 18.8321C18.1987 19.0685 18.5884 19.0685 18.8285 18.8321C19.0691 18.5956 19.0691 18.2117 18.8291 17.9752ZM7.99772 14.5302C4.26031 14.5302 1.23056 11.5486 1.23056 7.87056C1.23056 4.19254 4.26031 1.21093 7.99772 1.21093C11.7352 1.21093 14.7649 4.19254 14.7649 7.87056C14.7649 11.5486 11.7352 14.5302 7.99772 14.5302Z" fill="#27AE60"/>
</svg>
