<svg width="54" height="54" viewBox="0 0 54 54" fill="none" xmlns="http://www.w3.org/2000/svg">
<path d="M20.9062 7.06775C20.3313 7.06775 19.8646 7.53439 19.8646 8.10938C19.8646 8.68436 20.3313 9.151 20.9062 9.151C21.4812 9.151 21.9479 8.68436 21.9479 8.10938C21.9479 7.53439 21.4812 7.06775 20.9062 7.06775Z" fill="#27AE60" stroke="#27AE60" stroke-width="0.052"/>
<path d="M28.0803 13.737L28.0803 13.7371C28.4939 14.1371 29.1532 14.1262 29.5533 13.7129L29.5533 13.7129C29.9533 13.2995 29.9424 12.64 29.5291 12.2399L29.5291 12.2399C29.0174 11.7448 28.5049 11.4615 28.0416 11.305V10.1406C28.0416 9.56533 27.5752 9.099 27 9.099C26.4248 9.099 25.9584 9.56533 25.9584 10.1406V11.3126C24.7753 11.7403 23.9271 12.8741 23.9271 14.2031C23.9271 15.8975 25.3056 17.276 27 17.276C27.5456 17.276 27.9896 17.72 27.9896 18.2656C27.9896 18.8113 27.5456 19.2552 27 19.2552C26.5769 19.2552 26.1151 18.9887 25.7011 18.4962C25.331 18.0558 24.6738 17.999 24.2336 18.3692C23.7932 18.7394 23.7364 19.3965 24.1065 19.8368C24.6473 20.4801 25.2832 20.9309 25.9584 21.1614V22.3281C25.9584 22.9034 26.4248 23.3698 27 23.3698C27.5752 23.3698 28.0416 22.9034 28.0416 22.3281V21.1561C29.2247 20.7285 30.0729 19.5946 30.0729 18.2656C30.0729 16.5712 28.6944 15.1927 27 15.1927C26.4543 15.1927 26.0104 14.7488 26.0104 14.2031C26.0104 13.6575 26.4543 13.2135 27 13.2135C27.3507 13.2135 27.7244 13.3926 28.0803 13.737Z" fill="#27AE60" stroke="#27AE60" stroke-width="0.052"/>
<path d="M45.2287 29.5637C45.2519 29.5835 45.2736 29.6049 45.2956 29.6268L42.4234 29.6265C43.1857 28.8641 44.4104 28.8299 45.2113 29.5485C45.2128 29.5498 45.2143 29.5511 45.2158 29.5525C45.2201 29.5563 45.2244 29.5601 45.2287 29.5637ZM45.2287 29.5637L45.2118 29.5835C45.2342 29.6026 45.2553 29.6233 45.2772 29.6452L45.2772 29.6452C45.656 30.0237 45.8646 30.527 45.8646 31.0625C45.8646 31.598 45.656 32.1013 45.277 32.4801L45.2954 32.4985L45.277 32.4801L40.2303 37.5267C39.8236 37.9335 39.8236 38.5931 40.2303 38.9999L40.2487 38.9815L40.2303 38.9999C40.6372 39.4067 41.2965 39.4068 41.7035 38.9999L46.7499 33.9536C47.5223 33.1815 47.9479 32.1548 47.9479 31.0625C47.9479 30.0601 47.5886 29.1132 46.9322 28.3674V19.8906C46.9322 18.785 47.8318 17.8854 48.9375 17.8854C50.0432 17.8854 50.9428 18.785 50.9428 19.8906V33.4421C50.9428 34.2491 50.6284 35.0079 50.0575 35.5788L43.718 41.9183C43.1458 42.4905 42.8177 43.2823 42.8177 44.0909V44.5443H34.7448V38.5934C34.7448 37.7855 35.0589 37.027 35.63 36.4567L35.63 36.4567L42.4418 29.6449C43.1944 28.8922 44.4033 28.8585 45.1939 29.5679L45.1941 29.5681C45.1955 29.5693 45.1969 29.5705 45.1984 29.5718C45.2027 29.5756 45.2073 29.5797 45.212 29.5836L45.2287 29.5637ZM48.9375 15.8021C46.6831 15.8021 44.849 17.6362 44.849 19.8906V27.0956C43.4999 26.7599 42.017 27.1237 40.9687 28.1718L34.1574 34.9831C33.1928 35.9464 32.6615 37.2287 32.6615 38.5934V44.5443H31.6719C31.0967 44.5443 30.6302 45.0106 30.6302 45.5859V51.9844C30.6302 52.5597 31.0967 53.026 31.6719 53.026H45.8906C46.4658 53.026 46.9322 52.5597 46.9322 51.9844V45.5859C46.9322 45.0106 46.4658 44.5443 45.8906 44.5443H44.901V44.0909C44.901 43.8308 45.0067 43.5757 45.1912 43.3914L45.1728 43.373L45.1912 43.3914L51.5307 37.0518C52.4949 36.0875 53.026 34.8055 53.026 33.4421V19.8906C53.026 17.6362 51.1919 15.8021 48.9375 15.8021ZM44.849 50.9427H32.7135V46.6276H44.849V50.9427Z" fill="#27AE60" stroke="#27AE60" stroke-width="0.052"/>
<path d="M8.70443 32.4981L8.72281 32.4797L13.8012 37.5581C14.208 37.965 14.208 38.6245 13.8012 39.0313L13.7829 39.0129L13.8012 39.0313C13.3943 39.4381 12.7349 39.4381 12.3281 39.0313L7.24996 33.9532C6.47767 33.1815 6.05212 32.1548 6.05212 31.0625C6.05212 30.0599 6.4114 29.1131 7.06775 28.3673V19.8906C7.06775 18.785 6.16817 17.8854 5.0625 17.8854C3.95683 17.8854 3.05725 18.785 3.05725 19.8906V33.4421C3.05725 34.2491 3.37159 35.0079 3.94247 35.5789L10.282 41.9183C10.8542 42.4905 11.1823 43.2823 11.1821 44.0909V44.5443H19.2551V38.5933C19.2551 37.7854 18.941 37.027 18.3704 36.4571L18.3704 36.4571L11.5581 29.6449C10.8055 28.8923 9.5965 28.8585 8.80599 29.5679L8.80572 29.5681L8.78825 29.5833L8.7881 29.5835L8.70443 32.4981ZM8.70443 32.4981L8.7228 32.4797C8.34398 32.1013 8.13538 31.598 8.13538 31.0625C8.13538 30.527 8.34397 30.0238 8.72247 29.6453L8.70443 32.4981ZM22.3281 44.5443H21.3385V38.5934C21.3385 37.2287 20.8072 35.9464 19.8432 34.9836L13.0314 28.1718C11.983 27.1235 10.5001 26.7598 9.151 27.0956V19.8906C9.151 17.6362 7.31692 15.8021 5.0625 15.8021C2.80808 15.8021 0.974 17.6362 0.974 19.8906V33.4421C0.974 34.8055 1.50507 36.0875 2.4693 37.0518L8.80883 43.3913C8.99328 43.5757 9.099 43.8307 9.099 44.0909V44.5443H8.10938C7.53419 44.5443 7.06775 45.0106 7.06775 45.5859V51.9844C7.06775 52.5597 7.53419 53.026 8.10938 53.026H22.3281C22.9033 53.026 23.3697 52.5597 23.3697 51.9844V45.5859C23.3697 45.0106 22.9033 44.5443 22.3281 44.5443ZM21.2865 50.9427H9.151V46.6276H21.2865V50.9427Z" fill="#27AE60" stroke="#27AE60" stroke-width="0.052"/>
<path d="M27 0.974C18.5854 0.974 11.7396 7.81978 11.7396 16.2344C11.7396 24.649 18.5854 31.4947 27 31.4947C35.4146 31.4947 42.2604 24.649 42.2604 16.2344C42.2604 7.81978 35.4146 0.974 27 0.974ZM27 29.4115C19.7341 29.4115 13.8229 23.5002 13.8229 16.2344C13.8229 8.96853 19.7341 3.05725 27 3.05725C34.2659 3.05725 40.1771 8.96853 40.1771 16.2344C40.1771 23.5002 34.2659 29.4115 27 29.4115Z" fill="#27AE60" stroke="#27AE60" stroke-width="0.052"/>
<path d="M24.9588 7.33996L24.9588 7.33996C24.3965 7.46089 23.8423 7.10363 23.721 6.54134C23.5998 5.97897 23.9574 5.42482 24.5197 5.30358C27.9137 4.57183 31.3806 5.37836 34.0296 7.51724C36.6786 9.6559 38.1979 12.8332 38.1979 16.2344C38.1979 22.4089 33.1745 27.4322 27 27.4322C20.8255 27.4322 15.8021 22.4089 15.8021 16.2344C15.8021 14.3905 16.2604 12.5619 17.1275 10.946L24.9588 7.33996ZM24.9588 7.33996C27.7351 6.74133 30.5642 7.39682 32.721 9.13802C34.8777 10.8795 36.1146 13.4658 36.1146 16.2344C36.1146 21.2602 32.0258 25.349 27 25.349C21.9742 25.349 17.8854 21.2602 17.8854 16.2344C17.8854 14.7331 18.2581 13.2449 18.9631 11.9311C19.2351 11.4242 19.0447 10.7928 18.5378 10.5207L18.5255 10.5436M24.9588 7.33996L18.5255 10.5436M18.5255 10.5436L18.5378 10.5207C18.0309 10.2486 17.3993 10.4391 17.1275 10.946L18.5255 10.5436Z" fill="#27AE60" stroke="#27AE60" stroke-width="0.052"/>
</svg>
