<svg width="54" height="54" viewBox="0 0 54 54" fill="none" xmlns="http://www.w3.org/2000/svg">
<path d="M49.5333 11.3499C47.5938 11.3499 46.0167 12.9271 46.0167 14.8665C46.0167 16.806 47.5939 18.3832 49.5333 18.3832C51.4728 18.3832 53.05 16.8061 53.05 14.8665C53.05 12.9271 51.4728 11.3499 49.5333 11.3499ZM49.5333 16.5499C48.605 16.5499 47.85 15.7949 47.85 14.8665C47.85 13.9382 48.605 13.1832 49.5333 13.1832C50.4617 13.1832 51.2167 13.9381 51.2167 14.8665C51.2166 15.7949 50.4616 16.5499 49.5333 16.5499Z" fill="#27AE60" stroke="#27AE60" stroke-width="0.1"/>
<path d="M4.46663 39.95C2.52721 39.95 0.95 41.5272 0.95 43.4666C0.95 45.4061 2.52721 46.9833 4.46663 46.9833C6.40616 46.9833 7.98326 45.4061 7.98326 43.4666C7.98326 41.5272 6.40616 39.95 4.46663 39.95ZM4.46663 45.15C3.53834 45.15 2.78327 44.395 2.78327 43.4666C2.78327 42.5382 3.53824 41.7833 4.46663 41.7833C5.39493 41.7833 6.15 42.5382 6.15 43.4666C6.15 44.395 5.39503 45.15 4.46663 45.15Z" fill="#27AE60" stroke="#27AE60" stroke-width="0.1"/>
<path d="M40.398 8.84073C39.9413 8.61972 39.3941 8.81233 39.1742 9.26791C38.9542 9.72354 39.1457 10.2717 39.6014 10.4917L47.078 14.1013L47.0998 14.0563L47.0781 14.1013L47.0781 14.1013C47.2064 14.1636 47.3421 14.1929 47.4759 14.1929C47.8167 14.1929 48.1441 14.0024 48.3018 13.6741C48.5218 13.2185 48.3302 12.6703 47.8747 12.4503L47.8529 12.4954L47.8747 12.4503L40.398 8.84073ZM40.398 8.84073L40.3762 8.88574L40.3979 8.84071L40.398 8.84073Z" fill="#27AE60" stroke="#27AE60" stroke-width="0.1"/>
<path d="M40 46.0167C38.0605 46.0167 36.4834 47.5939 36.4834 49.5333C36.4834 51.4727 38.0605 53.05 40 53.05C41.9395 53.05 43.5166 51.4728 43.5166 49.5334C43.5166 47.594 41.9395 46.0167 40 46.0167ZM40 51.2167C39.0717 51.2167 38.3167 50.4617 38.3167 49.5333C38.3167 48.6049 39.0717 47.85 40 47.85C40.9283 47.85 41.6834 48.605 41.6834 49.5334C41.6834 50.4618 40.9283 51.2167 40 51.2167Z" fill="#27AE60" stroke="#27AE60" stroke-width="0.1"/>
<path d="M30.8646 43.5076L38.3413 47.1172L38.3195 47.1623L38.3413 47.1172C38.7968 47.3372 38.9884 47.8853 38.7685 48.341C38.6107 48.6692 38.2833 48.8598 37.9425 48.8598C37.8088 48.8598 37.673 48.8305 37.5447 48.7682L37.5447 48.7682L37.5665 48.7232L37.5446 48.7682L30.068 45.1586C29.6123 44.9386 29.4208 44.3905 29.6408 43.9348L30.8646 43.5076ZM30.8646 43.5076L30.8646 43.5076L30.8428 43.5526L30.8646 43.5076Z" fill="#27AE60" stroke="#27AE60" stroke-width="0.1"/>
<path d="M27 24.3499C25.0605 24.3499 23.4834 25.9271 23.4834 27.8665C23.4834 29.8061 25.0606 31.3832 27 31.3832C28.9395 31.3832 30.5166 29.806 30.5166 27.8665C30.5166 25.9271 28.9395 24.3499 27 24.3499ZM27 29.5499C26.0717 29.5499 25.3167 28.7949 25.3167 27.8665C25.3167 26.9382 26.0716 26.1832 27 26.1832C27.9283 26.1832 28.6834 26.9381 28.6834 27.8665C28.6834 28.7949 27.9283 29.5499 27 29.5499Z" fill="#27AE60" stroke="#27AE60" stroke-width="0.1"/>
<path d="M25.5071 25.5531L25.5071 25.5531L19.7638 21.0767L19.7636 21.0766C19.3641 20.7679 18.7886 20.8364 18.4768 21.2362L18.4767 21.2363C18.166 21.6359 18.2365 22.2115 18.6363 22.5232L18.6363 22.5233L24.3796 26.9996L24.3797 26.9997C24.5474 27.1298 24.7454 27.1931 24.9426 27.1931C25.2156 27.1931 25.4852 27.0721 25.6666 26.8403L25.6667 26.8401C25.9774 26.4404 25.9069 25.8648 25.5071 25.5531Z" fill="#27AE60" stroke="#27AE60" stroke-width="0.1"/>
<path d="M42.6 23.4834C37.316 23.4834 33.0167 27.7828 33.0167 33.0668C33.0167 38.3508 37.316 42.6502 42.6 42.6502C47.884 42.6502 52.1834 38.3508 52.1834 33.0668C52.1834 27.7828 47.884 23.4834 42.6 23.4834ZM42.6 40.8167C38.3264 40.8167 34.85 37.3404 34.85 33.0667C34.85 28.7931 38.3264 25.3167 42.6 25.3167C46.8737 25.3167 50.35 28.7931 50.35 33.0667C50.35 37.3404 46.8737 40.8167 42.6 40.8167Z" fill="#27AE60" stroke="#27AE60" stroke-width="0.1"/>
<path d="M42.6 26.95C40.6605 26.95 39.0834 28.5272 39.0834 30.4666C39.0834 32.4062 40.6606 33.9833 42.6 33.9833C44.5395 33.9833 46.1166 32.4061 46.1166 30.4666C46.1166 28.5272 44.5395 26.95 42.6 26.95ZM42.6 32.15C41.6717 32.15 40.9166 31.395 40.9166 30.4666C40.9166 29.5383 41.6716 28.7833 42.6 28.7833C43.5283 28.7833 44.2834 29.5382 44.2834 30.4666C44.2834 31.395 43.5283 32.15 42.6 32.15Z" fill="#27AE60" stroke="#27AE60" stroke-width="0.1"/>
<path d="M37.8074 41.3579L37.8074 41.3579C39.2675 42.2029 40.9245 42.6499 42.6 42.6499C44.2755 42.6499 45.9325 42.2029 47.3926 41.3579C47.676 41.1946 47.85 40.8911 47.85 40.565V38.2804C47.85 36.8103 46.6217 35.6165 45.1142 35.6165H40.0858C38.5784 35.6165 37.35 36.8103 37.35 38.2795V40.564C37.35 40.8912 37.5241 41.1937 37.8074 41.3579ZM46.0166 40.0165C43.8881 41.0658 41.3119 41.0658 39.1833 40.0165V38.2804C39.1833 37.8263 39.5844 37.4499 40.0857 37.4499H45.1141C45.6154 37.4499 46.0166 37.8263 46.0166 38.2804V40.0165Z" fill="#27AE60" stroke="#27AE60" stroke-width="0.1"/>
<path d="M21.8 33.8833C16.516 33.8833 12.2166 38.1827 12.2166 43.4667C12.2166 48.7507 16.516 53.05 21.8 53.05C27.0839 53.05 31.3833 48.7506 31.3833 43.4666C31.3833 38.1826 27.0839 33.8833 21.8 33.8833ZM21.8 51.2166C17.5263 51.2166 14.05 47.7403 14.05 43.4666C14.05 39.193 17.5263 35.7166 21.8 35.7166C26.0736 35.7166 29.55 39.193 29.55 43.4666C29.55 47.7403 26.0736 51.2166 21.8 51.2166Z" fill="#27AE60" stroke="#27AE60" stroke-width="0.1"/>
<path d="M21.8 37.3499C19.8605 37.3499 18.2834 38.9271 18.2834 40.8665C18.2834 42.8061 19.8606 44.3832 21.8 44.3832C23.7394 44.3832 25.3166 42.806 25.3166 40.8665C25.3166 38.9271 23.7395 37.3499 21.8 37.3499ZM21.8 42.5499C20.8717 42.5499 20.1166 41.7949 20.1166 40.8665C20.1166 39.9382 20.8716 39.1832 21.8 39.1832C22.7283 39.1832 23.4834 39.9381 23.4834 40.8665C23.4834 41.7949 22.7283 42.5499 21.8 42.5499Z" fill="#27AE60" stroke="#27AE60" stroke-width="0.1"/>
<path d="M17.0074 51.758L17.0074 51.758C18.4675 52.603 20.1245 53.05 21.8 53.05C23.4755 53.05 25.1325 52.603 26.5926 51.758C26.8759 51.5948 27.05 51.2914 27.05 50.9651V48.6806C27.05 47.2104 25.8217 46.0167 24.3142 46.0167H19.2858C17.7784 46.0167 16.55 47.2104 16.55 48.6796V50.9642C16.55 51.2914 16.7241 51.5939 17.0074 51.758ZM25.2165 50.4167C23.0879 51.466 20.5118 51.4659 18.3832 50.4166V48.6806C18.3832 48.2264 18.7844 47.85 19.2857 47.85H24.3141C24.8154 47.85 25.2165 48.2264 25.2165 48.6806V50.4167Z" fill="#27AE60" stroke="#27AE60" stroke-width="0.1"/>
<path d="M10.5334 12.2166C5.24938 12.2166 0.95 16.516 0.95 21.8C0.95 27.0839 5.24938 31.3833 10.5334 31.3833C15.8173 31.3833 20.1167 27.0839 20.1167 21.8C20.1166 16.516 15.8172 12.2166 10.5334 12.2166ZM10.5334 29.55C6.25971 29.55 2.78337 26.0736 2.78337 21.8C2.78337 17.5263 6.25971 14.05 10.5334 14.05C14.807 14.05 18.2834 17.5263 18.2834 21.8C18.2834 26.0736 14.807 29.55 10.5334 29.55Z" fill="#27AE60" stroke="#27AE60" stroke-width="0.1"/>
<path d="M10.5333 15.6834C8.59381 15.6834 7.01671 17.2606 7.01671 19.2C7.01671 21.1395 8.59392 22.7167 10.5333 22.7167C12.4729 22.7167 14.05 21.1395 14.05 19.2C14.05 17.2606 12.4728 15.6834 10.5333 15.6834ZM10.5333 20.8834C9.60505 20.8834 8.84998 20.1284 8.84998 19.2C8.84998 18.2716 9.60495 17.5167 10.5333 17.5167C11.4616 17.5167 12.2167 18.2716 12.2167 19.2C12.2167 20.1284 11.4616 20.8834 10.5333 20.8834Z" fill="#27AE60" stroke="#27AE60" stroke-width="0.1"/>
<path d="M5.74076 30.0913L5.74078 30.0913C7.20088 30.9363 8.85787 31.3833 10.5334 31.3833C12.2089 31.3833 13.8659 30.9363 15.326 30.0913C15.6093 29.928 15.7834 29.6245 15.7834 29.2984V27.0138C15.7834 25.5437 14.555 24.3499 13.0476 24.3499H8.01919C6.51179 24.3499 5.28337 25.5436 5.28337 27.0129V29.2974C5.28337 29.6246 5.45749 29.9271 5.74076 30.0913ZM13.9499 28.7499C11.8214 29.7992 9.2452 29.7992 7.11664 28.7499V27.0138C7.11664 26.5597 7.51777 26.1833 8.01909 26.1833H13.0475C13.5488 26.1833 13.9499 26.5597 13.9499 27.0138V28.7499Z" fill="#27AE60" stroke="#27AE60" stroke-width="0.1"/>
<path d="M31.3334 0.95C26.0494 0.95 21.75 5.24938 21.75 10.5334C21.75 15.8173 26.0494 20.1167 31.3334 20.1167C36.6173 20.1167 40.9167 15.8173 40.9167 10.5334C40.9166 5.24938 36.6172 0.95 31.3334 0.95ZM31.3334 18.2834C27.0597 18.2834 23.5834 14.807 23.5834 10.5334C23.5834 6.25971 27.0597 2.78337 31.3334 2.78337C35.607 2.78337 39.0834 6.25971 39.0834 10.5334C39.0834 14.807 35.607 18.2834 31.3334 18.2834Z" fill="#27AE60" stroke="#27AE60" stroke-width="0.1"/>
<path d="M31.3333 4.41655C29.3938 4.41655 27.8167 5.99376 27.8167 7.93318C27.8167 9.87261 29.3939 11.4498 31.3333 11.4498C33.2728 11.4498 34.85 9.87271 34.85 7.93329C34.85 5.99386 33.2728 4.41655 31.3333 4.41655ZM31.3333 9.61655C30.405 9.61655 29.65 8.86158 29.65 7.93318C29.65 7.00489 30.4049 6.24982 31.3333 6.24982C32.2617 6.24982 33.0167 7.00479 33.0167 7.93318C33.0166 8.86158 32.2616 9.61655 31.3333 9.61655Z" fill="#27AE60" stroke="#27AE60" stroke-width="0.1"/>
<path d="M26.5407 18.8247L26.5408 18.8247C28.0009 19.6697 29.6579 20.1167 31.3334 20.1167C33.0088 20.1167 34.6658 19.6697 36.1259 18.8247C36.4093 18.6615 36.5834 18.358 36.5834 18.0318V15.7472C36.5834 14.277 35.355 13.0833 33.8475 13.0833H28.8192C27.3118 13.0833 26.0834 14.277 26.0834 15.7463V18.0308C26.0834 18.358 26.2575 18.6605 26.5407 18.8247ZM34.7499 17.4833C32.6214 18.5326 30.0452 18.5326 27.9166 17.4833V15.7472C27.9166 15.2931 28.3178 14.9167 28.8191 14.9167H33.8474C34.3488 14.9167 34.7499 15.2931 34.7499 15.7472V17.4833Z" fill="#27AE60" stroke="#27AE60" stroke-width="0.1"/>
<path d="M23.3641 9.93659L23.3642 9.93667C23.6933 10.3216 23.6484 10.9001 23.2633 11.2292L17.2573 16.3685L23.3641 9.93659ZM23.3641 9.93659C23.0351 9.55345 22.4567 9.50755 22.0717 9.8367L22.0716 9.83672M23.3641 9.93659L22.0716 9.83672M22.0716 9.83672L16.0657 14.9761C15.6806 15.3051 15.6358 15.8836 15.9648 16.2686L15.9648 16.2686M22.0716 9.83672L15.9648 16.2686M15.9648 16.2686C16.1463 16.4803 16.403 16.5894 16.6614 16.5894M15.9648 16.2686L16.6614 16.5894M16.6614 16.5894C16.8723 16.5894 17.0841 16.517 17.2573 16.3685L16.6614 16.5894Z" fill="#27AE60" stroke="#27AE60" stroke-width="0.1"/>
<path d="M35.9833 16.7342L35.9833 16.7342C35.578 17.0377 35.4965 17.6124 35.7999 18.0167L40.9999 24.95L40.9999 24.9501C41.1805 25.1903 41.4555 25.3167 41.7341 25.3167C41.9248 25.3167 42.1183 25.257 42.2832 25.1333C42.6885 24.8299 42.7701 24.2552 42.4666 23.8509L37.2667 16.9177C37.2667 16.9176 37.2666 16.9176 37.2666 16.9176C36.963 16.5114 36.3883 16.4318 35.9833 16.7342Z" fill="#27AE60" stroke="#27AE60" stroke-width="0.1"/>
<path d="M34.0705 35.7194L34.0706 35.7194C34.4757 35.4161 35.0503 35.4976 35.3539 35.9028C35.6574 36.307 35.5758 36.8819 35.1705 37.1852L34.0705 35.7194ZM34.0705 35.7194L29.2294 39.3499C28.8241 39.6534 28.7426 40.2281 29.046 40.6324L29.046 40.6324C29.2266 40.8726 29.5016 40.999 29.7802 40.999C29.9718 40.999 30.1643 40.9384 30.3292 40.8157L30.3293 40.8156L35.1705 37.1852L34.0705 35.7194Z" fill="#27AE60" stroke="#27AE60" stroke-width="0.1"/>
<path d="M13.1334 42.5501H7.06664C6.56071 42.5501 6.15001 42.9598 6.15001 43.4667C6.15001 43.9737 6.56071 44.3834 7.06664 44.3834H13.1333C13.6392 44.3834 14.0499 43.9737 14.0499 43.4667C14.0499 42.9598 13.6393 42.5501 13.1334 42.5501Z" fill="#27AE60" stroke="#27AE60" stroke-width="0.1"/>
<path d="M10.5334 0.95C8.59386 0.95 7.01665 2.5272 7.01665 4.46663C7.01665 6.40616 8.59386 7.98326 10.5333 7.98326C12.4728 7.98326 14.0499 6.40606 14.0499 4.46663C14.05 2.52721 12.4728 0.95 10.5334 0.95ZM10.5334 6.15C9.60509 6.15 8.85002 5.39502 8.85002 4.46663C8.85002 3.53834 9.60499 2.78327 10.5334 2.78327C11.4617 2.78327 12.2168 3.53824 12.2168 4.46663C12.2167 5.39503 11.4617 6.15 10.5334 6.15Z" fill="#27AE60" stroke="#27AE60" stroke-width="0.1"/>
<path d="M10.5334 6.14995C10.0274 6.14995 9.61675 6.55966 9.61675 7.06658V13.1332C9.61675 13.6401 10.0274 14.0498 10.5334 14.0498C11.0393 14.0498 11.45 13.6401 11.45 13.1332V7.06658C11.45 6.55966 11.0393 6.14995 10.5334 6.14995Z" fill="#27AE60" stroke="#27AE60" stroke-width="0.1"/>
</svg>
