<svg width="52" height="52" viewBox="0 0 52 52" fill="none" xmlns="http://www.w3.org/2000/svg">
<path d="M46.9184 35.1777L51.8298 18.215C52.2063 16.9146 51.9557 15.5481 51.1424 14.4659C50.5384 13.6622 49.6973 13.1138 48.75 12.8843V7.17723C48.75 6.6164 48.2952 6.16161 47.7344 6.16161H41.065V1.01563C41.065 0.454798 40.6102 0 40.0494 0H22.6976C22.1367 0 21.682 0.454798 21.682 1.01563V4.06251H12.8816C12.3207 4.06251 11.866 4.51731 11.866 5.07813V7.27707C11.0093 5.62089 9.29207 4.53894 7.35872 4.53894H3.45313C1.54903 4.53894 0 6.08797 0 7.99207C0 9.89617 1.54903 11.4452 3.45313 11.4452H5.92517L12.9821 40.1774C13.5414 42.4542 15.5693 44.0443 17.9137 44.0443H18.0181C17.405 44.8736 17.0416 45.8982 17.0416 47.0065C17.0416 49.7598 19.2817 52 22.0351 52C24.7885 52 27.0287 49.7598 27.0287 47.0065C27.0287 45.8982 26.6653 44.8736 26.0521 44.0443H33.9137C33.3005 44.8736 32.9372 45.8982 32.9372 47.0065C32.9372 49.7598 35.1774 52 37.9307 52C40.6841 52 42.9241 49.7598 42.9241 47.0065C42.9241 45.8982 42.5608 44.8736 41.9476 44.0443H43.672C45.5761 44.0443 47.1251 42.4953 47.1251 40.5912C47.1251 39.3303 46.4454 38.2256 45.4336 37.6228C46.1202 36.9655 46.6428 36.1298 46.9184 35.1777ZM46.7188 8.19286V12.7631H41.0651V8.19286H46.7188ZM23.7133 2.03125H39.0339V12.7631H36.4867C35.9259 12.7631 35.4711 13.2179 35.4711 13.7787C35.4711 14.3395 35.9259 14.7943 36.4867 14.7943H47.7324C48.4415 14.7943 49.0926 15.1194 49.5186 15.6863C49.9446 16.2532 50.0758 16.969 49.8787 17.6501L44.9673 34.6128C44.5369 36.0998 43.155 37.1381 41.6071 37.1381H19.3472L13.8592 14.7943H27.3461C27.9069 14.7943 28.3617 14.3395 28.3617 13.7787C28.3617 13.2179 27.9069 12.7631 27.3461 12.7631H25.7577V5.07813C25.7577 4.51731 25.303 4.06251 24.7421 4.06251H23.7133V2.03125ZM13.8971 6.09376H23.7265V12.7631H13.8971V6.09376ZM24.9973 47.0066C24.9973 48.64 23.6685 49.9688 22.035 49.9688C20.4016 49.9688 19.0728 48.64 19.0728 47.0066C19.0728 45.3732 20.4016 44.0444 22.035 44.0444C23.6685 44.0444 24.9973 45.3732 24.9973 47.0066ZM40.8928 47.0066C40.8928 48.64 39.5639 49.9688 37.9306 49.9688C36.2972 49.9688 34.9683 48.64 34.9683 47.0066C34.9683 45.3732 36.2972 44.0444 37.9306 44.0444C39.5639 44.0444 40.8928 45.3732 40.8928 47.0066ZM43.672 39.1694C44.456 39.1694 45.0938 39.8072 45.0938 40.5913C45.0938 41.3753 44.456 42.0131 43.672 42.0131H17.9137C16.5071 42.0131 15.2903 41.0591 14.9548 39.693L7.7079 10.1874C7.59638 9.73326 7.18922 9.41405 6.72162 9.41405H3.45313C2.66907 9.41405 2.03125 8.77624 2.03125 7.99217C2.03125 7.20811 2.66907 6.57029 3.45313 6.57029H7.35862C8.76527 6.57029 9.98209 7.52437 10.3175 8.89039L17.5645 38.3961C17.676 38.8503 18.0831 39.1695 18.5507 39.1695H43.672V39.1694Z" fill="#27AE60"/>
<path d="M28.6786 32.6638C28.8215 32.7333 28.9726 32.7661 29.1215 32.7661C29.4982 32.7661 29.8601 32.5555 30.0357 32.1939L35.6241 20.6862C35.8692 20.1816 35.6589 19.574 35.1542 19.329C34.6499 19.0841 34.042 19.2943 33.797 19.7989L28.2086 31.3066C27.9636 31.8112 28.174 32.4188 28.6786 32.6638Z" fill="#27AE60"/>
<path d="M23.7265 21.0569C23.7265 22.8493 25.1847 24.3075 26.9771 24.3075C28.7694 24.3075 30.2276 22.8494 30.2276 21.0569C30.2276 19.2646 28.7695 17.8064 26.9771 17.8064C25.1847 17.8064 23.7265 19.2646 23.7265 21.0569ZM28.1963 21.0569C28.1963 21.7293 27.6493 22.2763 26.9771 22.2763C26.3047 22.2763 25.7577 21.7293 25.7577 21.0569C25.7577 20.3847 26.3047 19.8377 26.9771 19.8377C27.6493 19.8377 28.1963 20.3847 28.1963 21.0569Z" fill="#27AE60"/>
<path d="M33.6384 30.9689C33.6384 32.7612 35.0965 34.2194 36.8889 34.2194C38.6813 34.2194 40.1395 32.7613 40.1395 30.9689C40.1395 29.1765 38.6814 27.7183 36.8889 27.7183C35.0965 27.7183 33.6384 29.1764 33.6384 30.9689ZM36.8889 29.7495C37.5612 29.7495 38.1082 30.2965 38.1082 30.9689C38.1082 31.6411 37.5612 32.1881 36.8889 32.1881C36.2166 32.1881 35.6696 31.6411 35.6696 30.9689C35.6696 30.2965 36.2166 29.7495 36.8889 29.7495Z" fill="#27AE60"/>
<path d="M31.9161 14.7945C32.1843 14.7945 32.4453 14.6858 32.6341 14.4969C32.824 14.308 32.9318 14.0459 32.9318 13.7788C32.9318 13.5107 32.824 13.2497 32.6341 13.0608C32.4453 12.8708 32.1842 12.7632 31.9161 12.7632C31.649 12.7632 31.387 12.8708 31.1981 13.0608C31.0092 13.2488 30.9005 13.5108 30.9005 13.7788C30.9005 14.0459 31.0091 14.308 31.1981 14.4969C31.387 14.6858 31.649 14.7945 31.9161 14.7945Z" fill="#27AE60"/>
</svg>
