<svg width="36" height="36" viewBox="0 0 36 36" fill="none" xmlns="http://www.w3.org/2000/svg">
<rect x="0.5" y="0.5" width="35" height="35" rx="1.5" stroke="#232323"/>
<path fill-rule="evenodd" clip-rule="evenodd" d="M24.0024 12.3365C24.6753 12.5176 25.2059 13.0482 25.3871 13.7212C25.7235 14.9506 25.7106 17.5129 25.7106 17.5129C25.7106 17.5129 25.7106 20.0624 25.3871 21.2918C25.2059 21.9647 24.6753 22.4953 24.0024 22.6765C22.7729 23 17.8553 23 17.8553 23C17.8553 23 12.9506 23 11.7082 22.6635C11.0353 22.4824 10.5047 21.9518 10.3235 21.2788C10 20.0624 10 17.5 10 17.5C10 17.5 10 14.9506 10.3235 13.7212C10.5047 13.0482 11.0482 12.5047 11.7082 12.3235C12.9376 12 17.8553 12 17.8553 12C17.8553 12 22.7729 12 24.0024 12.3365ZM20.3789 17.5001L16.2894 19.8554V15.1448L20.3789 17.5001Z" fill="#232323"/>
</svg>
